<svg width="1032" height="1485" viewBox="0 0 1032 1485" fill="none" xmlns="http://www.w3.org/2000/svg">
<path d="M94.5 793H125.083L97.25 695.333H62.8333L64.8333 702.083L39.4167 793H63.9167L67.0833 777.417H90.75L94.5 793ZM77.8333 724L86.6667 760.417H70.5L77.8333 724ZM121.12 793H149.537V695.333H121.12V793ZM174.576 793L177.16 735.583L177.66 714.417L192.993 783.25H214.743L227.493 714.417L228.493 735.583L232.743 793H258.66L251.493 695.333H216.66L210.16 728.167L206.993 744.667L203.66 728.083L196.326 695.333H157.243L149.493 793H174.576ZM306.375 793H336.958L309.125 695.333H274.708L276.708 702.083L251.292 793H275.792L278.958 777.417H302.625L306.375 793ZM289.708 724L298.542 760.417H282.375L289.708 724ZM359.245 793V762.25L354.329 730.25L366.579 754.417L386.412 793H411.829V695.333H385.245V721.5L389.329 758.583L374.662 727L359.329 695.333H328.662L332.745 703.167V793H359.245ZM489.441 793H520.025L492.191 695.333H457.775L459.775 702.083L434.358 793H458.858L462.025 777.417H485.691L489.441 793ZM472.775 724L481.608 760.417H465.441L472.775 724ZM548.729 779.333H543.395V709.75H549.645C553.534 709.75 556.534 712.139 558.645 716.917C560.756 721.694 561.812 728.472 561.812 737.25V745.667C561.812 757.667 560.673 766.278 558.395 771.5C556.173 776.722 552.951 779.333 548.729 779.333ZM551.312 793.583C557.423 793.583 562.867 792.528 567.645 790.417C572.423 788.306 576.256 785.556 579.145 782.167C582.034 778.778 584.423 774.75 586.312 770.083C588.201 765.361 589.479 760.667 590.145 756C590.867 751.333 591.229 746.417 591.229 741.25C591.229 726.028 588.145 714.444 581.979 706.5C575.867 698.556 565.729 694.583 551.562 694.583C549.062 694.583 545.617 694.694 541.229 694.917C536.84 695.139 532.784 695.278 529.062 695.333H515.812V793H529.062C533.506 793 537.812 793.083 541.979 793.25C546.201 793.472 549.312 793.583 551.312 793.583ZM591.564 793H643.98V770.667H619.147V695.333H591.564V793ZM692.039 793H722.622L694.789 695.333H660.372L662.372 702.083L636.956 793H661.456L664.622 777.417H688.289L692.039 793ZM675.372 724L684.206 760.417H668.039L675.372 724ZM758.743 793L767.326 753.75L777.576 793H805.993L827.493 695.333H802.16L797.243 729L792.66 761.667L785.326 729L779.326 695.333H752.076L758.493 720.083L756.326 729L747.91 761.667L741.326 729L736.91 695.333H709.16L732.41 793H758.743ZM869.666 793H900.249L872.416 695.333H837.999L839.999 702.083L814.583 793H839.083L842.249 777.417H865.916L869.666 793ZM852.999 724L861.833 760.417H845.666L852.999 724ZM922.536 793V762.25L917.62 730.25L929.87 754.417L949.703 793H975.12V695.333H948.536V721.5L952.62 758.583L937.953 727L922.62 695.333H891.953L896.036 703.167V793H922.536Z" fill="#377370"/>
<path d="M64.5 702L39.5 793H64L67 777.5H90.5L94.5 793H125L97 695.5H62.5L64.5 702Z" stroke="#377370"/>
<path d="M77.5 724L70.5 760.5H86.5L77.5 724Z" stroke="#377370"/>
<path d="M121 695.5V793H149.5V695.5H121Z" stroke="#377370"/>
<path d="M157 695.5L149.5 793H174.5L177.5 714.5L193 783H214.5L227.5 714.5L233 793H258.5L251 695.5H216.5L207 744.5L196 695.5H157Z" stroke="#377370"/>
<path d="M276.5 702L251 793H276L279 777.5H302.5L306.5 793H337L309.5 695.5H274.5L276.5 702Z" stroke="#377370"/>
<path d="M289.5 724L282.5 760.5H298.5L289.5 724Z" stroke="#377370"/>
<path d="M332.5 703V793H359V762L354 730L386.5 793H412L411.5 695.5H385V721.5L389.5 758.5L359 695.5H328.5L332.5 703Z" stroke="#377370"/>
<path d="M459.5 702.5L434.5 793H459L462 777.5H485.5L489.5 793H520L492 695.5H457.5L459.5 702.5Z" stroke="#377370"/>
<path d="M472.5 724L465.5 760.5H481.5L472.5 724Z" stroke="#377370"/>
<path d="M516 695.5V793L549.5 793.5C594 793 592 742.5 589.5 723.5C587 704.5 570 693.5 552.5 694.5C538.5 695.3 532 695.5 530.5 695.5H516Z" stroke="#377370"/>
<path d="M543.5 710V779.5H550C556 779.5 558.833 772.833 559.5 769.5C565 735 560 720 557.5 715C555.5 711 551.667 710 550 710H543.5Z" stroke="#377370"/>
<path d="M591 695.5L591.5 793H645.5V770.5H619V695.5H591Z" stroke="#377370"/>
<path d="M662.5 702L637 793H661L665 777.5H688.5L692.5 793H722.5L694.5 695.5H660.5L662.5 702Z" stroke="#377370"/>
<path d="M675.5 724L668 760.5H684L675.5 724Z" stroke="#377370"/>
<path d="M709 695.5L732.5 793L758.5 792.5L767.5 754L777.5 793L806 792.5L827.5 695.5H802.5L792.5 761L779 695.5H752L758.5 720.5L748 762L741 728L736.5 695.5H709Z" stroke="#377370"/>
<path d="M840 702L814.5 793H839L842 777.5H866L870 793H900.5L872 695.5H838L840 702Z" stroke="#377370"/>
<path d="M853 724L845.5 760.5H862L853 724Z" stroke="#377370"/>
<path d="M896 702.5V793L922 792.5L922.5 762L917.5 730.5L949.5 793H975V695.5H948.5V721.5L952.5 758.5L922.5 695.5H892L896 702.5Z" stroke="#377370"/>
<path d="M68.5 702.5H93L118 788" stroke="#73ADAA" stroke-width="2"/>
<path d="M72 726L62.5 766" stroke="#73ADAA" stroke-width="2"/>
<path d="M59.5 777.5L56 790" stroke="#73ADAA" stroke-width="2"/>
<path d="M62.5 766H82" stroke="#73ADAA" stroke-width="2"/>
<path d="M124.5 702.5H142.5V786.5" stroke="#73ADAA" stroke-width="2"/>
<path d="M160.5 702H190.5L203.5 754" stroke="#73ADAA" stroke-width="2"/>
<path d="M171.5 718L167 787.5" stroke="#73ADAA" stroke-width="2"/>
<path d="M220 702.5H243.5L251.5 786" stroke="#73ADAA" stroke-width="2"/>
<path d="M221 718.5L208.5 776.5" stroke="#73ADAA" stroke-width="2"/>
<path d="M280 702.5H304L328.5 787.5" stroke="#73ADAA" stroke-width="2"/>
<path d="M283.5 727.5L275 766" stroke="#73ADAA" stroke-width="2"/>
<path d="M273 779L270.5 789.5" stroke="#73ADAA" stroke-width="2"/>
<path d="M275 766H296" stroke="#73ADAA" stroke-width="2"/>
<path d="M346 727L352 761.5V789.5" stroke="#73ADAA" stroke-width="2"/>
<path d="M336 702.5H354L385.5 766" stroke="#73ADAA" stroke-width="2"/>
<path d="M389 702.5H404.5V787" stroke="#73ADAA" stroke-width="2"/>
<path d="M463 702.5H485L511 788.5" stroke="#73ADAA" stroke-width="2"/>
<path d="M466 727L457 765" stroke="#73ADAA" stroke-width="2"/>
<path d="M454.5 778.5L451.5 790" stroke="#73ADAA" stroke-width="2"/>
<path d="M457 765H476.5" stroke="#73ADAA" stroke-width="2"/>
<path d="M521.5 702.5C529.667 702.5 548.1 702.3 556.5 701.5C567 700.5 597.5 720.5 571.5 779.5" stroke="#73ADAA" stroke-width="2"/>
<path d="M537 713.5V785.5C540 785.5 546.6 785.5 549 785.5" stroke="#73ADAA" stroke-width="2"/>
<path d="M593.5 703H611V778.5H636.5" stroke="#73ADAA" stroke-width="2"/>
<path d="M666 703.5H688L714 788" stroke="#73ADAA" stroke-width="2"/>
<path d="M668.5 727.5L658.5 766" stroke="#73ADAA" stroke-width="2"/>
<path d="M656.5 779L653 790" stroke="#73ADAA" stroke-width="2"/>
<path d="M658.5 766H680.5" stroke="#73ADAA" stroke-width="2"/>
<path d="M715.5 702.5H730.5L734.5 732.5L743 771" stroke="#73ADAA" stroke-width="2"/>
<path d="M757 702H774L788 769.5" stroke="#73ADAA" stroke-width="2"/>
<path d="M761.5 757L754 787" stroke="#73ADAA" stroke-width="2"/>
<path d="M804.5 702.5H819.5L800 787.5" stroke="#73ADAA" stroke-width="2"/>
<path d="M843.5 702.5H866L891 787" stroke="#73ADAA" stroke-width="2"/>
<path d="M846 727L836.5 766" stroke="#73ADAA" stroke-width="2"/>
<path d="M834 777.5L830.5 789.5" stroke="#73ADAA" stroke-width="2"/>
<path d="M836.5 766H858" stroke="#73ADAA" stroke-width="2"/>
<path d="M900.5 703H917L948 765" stroke="#73ADAA" stroke-width="2"/>
<path d="M912 734L915.5 763V788.5" stroke="#73ADAA" stroke-width="2"/>
<path d="M951 703H968.5V789" stroke="#73ADAA" stroke-width="2"/>
<path d="M0 0H1032V477.392L0 694V0Z" fill="url(#paint0_linear)"/>
<path d="M1032 1485L0 1485V1007.61L1032 791V1485Z" fill="url(#paint1_linear)"/>
<defs>
<linearGradient id="paint0_linear" x1="439" y1="-32.7762" x2="565.431" y2="576.223" gradientUnits="userSpaceOnUse">
<stop stop-color="#3E3A3A"/>
<stop offset="0.197917" stop-color="#3E3A3A" stop-opacity="0.975154"/>
<stop offset="0.404536" stop-color="#3E3A3A" stop-opacity="0.933107"/>
<stop offset="0.579126" stop-color="#3E3A3A" stop-opacity="0.8"/>
<stop offset="0.724237" stop-color="#3E3A3A" stop-opacity="0.6"/>
<stop offset="0.825695" stop-color="#3E3A3A" stop-opacity="0.4"/>
<stop offset="0.911076" stop-color="#3E3A3A" stop-opacity="0.2"/>
<stop offset="1" stop-color="#3E3A3A" stop-opacity="0"/>
</linearGradient>
<linearGradient id="paint1_linear" x1="593" y1="1517.78" x2="466.569" y2="908.777" gradientUnits="userSpaceOnUse">
<stop stop-color="#3E3A3A"/>
<stop offset="0.197917" stop-color="#3E3A3A" stop-opacity="0.975154"/>
<stop offset="0.404536" stop-color="#3E3A3A" stop-opacity="0.933107"/>
<stop offset="0.579126" stop-color="#3E3A3A" stop-opacity="0.8"/>
<stop offset="0.724237" stop-color="#3E3A3A" stop-opacity="0.6"/>
<stop offset="0.825695" stop-color="#3E3A3A" stop-opacity="0.4"/>
<stop offset="0.911076" stop-color="#3E3A3A" stop-opacity="0.2"/>
<stop offset="1" stop-color="#3E3A3A" stop-opacity="0"/>
</linearGradient>
</defs>
</svg>
