<svg width="90" height="92" viewBox="0 0 90 92" fill="none" xmlns="http://www.w3.org/2000/svg">
<path fill-rule="evenodd" clip-rule="evenodd" d="M10.2234 91.2783L51.0289 7.64303L49.0002 3.46758C47.8614 1.37974 46.2354 0.996369 44.888 1.00003C43.5462 1.00367 41.8513 1.88572 41.0922 3.40432L1.48876 84.7621C0.72959 86.3437 0.919401 88.0518 1.61529 89.1273C2.25457 90.1153 3.70301 91.2783 5.41114 91.2783H10.2234ZM50.9187 49.2092L45.0351 37.1257L21.8761 84.7001C21.0537 86.4083 21.4399 88.2631 22.1292 89.3184C22.7938 90.336 24.4067 91.2799 25.7985 91.2799H71.4163L66.2918 80.5882H35.6087L50.9187 49.2092ZM79.9956 91.2836L71.1386 73.1267H47.7309L52.8553 62.5616H65.951L49.3125 28.3989L55.196 16.3155L88.6586 84.8939C89.2912 86.2857 88.9749 88.1836 88.279 89.2591C87.6194 90.2785 86.128 91.2836 84.6097 91.2836H79.9956Z" fill="#1890B5"/>
<path d="M51.0289 7.64303L51.4783 7.86228L51.585 7.64349L51.4786 7.42453L51.0289 7.64303ZM10.2234 91.2783V91.7783H10.5358L10.6728 91.4976L10.2234 91.2783ZM49.0002 3.46758L49.4499 3.24908L49.4448 3.2385L49.4392 3.22817L49.0002 3.46758ZM44.888 1.00003L44.8867 0.500028L44.888 1.00003ZM41.0922 3.40432L40.6449 3.18073L40.6426 3.18548L41.0922 3.40432ZM1.48876 84.7621L1.03919 84.5433L1.038 84.5457L1.48876 84.7621ZM1.61529 89.1273L2.03508 88.8557L2.03508 88.8557L1.61529 89.1273ZM45.0351 37.1257L45.4846 36.9068L45.035 35.9834L44.5855 36.9068L45.0351 37.1257ZM50.9187 49.2092L51.368 49.4284L51.4749 49.2094L51.3682 48.9903L50.9187 49.2092ZM21.8761 84.7001L21.4266 84.4813L21.4256 84.4832L21.8761 84.7001ZM22.1292 89.3184L22.5478 89.045L22.5478 89.045L22.1292 89.3184ZM71.4163 91.2799V91.7799H72.2104L71.8672 91.0638L71.4163 91.2799ZM66.2918 80.5882L66.7427 80.3721L66.6067 80.0882H66.2918V80.5882ZM35.6087 80.5882L35.1593 80.369L34.8084 81.0882H35.6087V80.5882ZM71.1386 73.1267L71.588 72.9075L71.451 72.6267H71.1386V73.1267ZM79.9956 91.2836L79.5462 91.5028L79.6832 91.7836H79.9956V91.2836ZM47.7309 73.1267L47.281 72.9085L46.9326 73.6267H47.7309V73.1267ZM52.8553 62.5616V62.0616H52.5421L52.4054 62.3434L52.8553 62.5616ZM65.951 62.5616V63.0616H66.7506L66.4005 62.3427L65.951 62.5616ZM49.3125 28.3989L48.8629 28.18L48.7563 28.399L48.8629 28.6179L49.3125 28.3989ZM55.196 16.3155L55.6454 16.0962L55.1956 15.1743L54.7465 16.0966L55.196 16.3155ZM88.6586 84.8939L89.1139 84.6869L89.108 84.6746L88.6586 84.8939ZM88.279 89.2591L88.6988 89.5307L88.6988 89.5307L88.279 89.2591ZM50.5795 7.42379L9.77407 91.0591L10.6728 91.4976L51.4783 7.86228L50.5795 7.42379ZM48.5505 3.68609L50.5792 7.86154L51.4786 7.42453L49.4499 3.24908L48.5505 3.68609ZM44.8894 1.50002C45.5169 1.49832 46.1757 1.58717 46.7999 1.89727C47.4174 2.20411 48.0366 2.74504 48.5612 3.707L49.4392 3.22817C48.8251 2.10229 48.0618 1.40761 47.2448 1.00171C46.4344 0.599079 45.6065 0.498074 44.8867 0.500028L44.8894 1.50002ZM41.5394 3.6279C42.2087 2.28908 43.7241 1.50319 44.8894 1.50002L44.8867 0.500028C43.3683 0.504148 41.494 1.48237 40.6449 3.18074L41.5394 3.6279ZM1.93833 84.9809L41.5417 3.62316L40.6426 3.18548L1.03919 84.5433L1.93833 84.9809ZM2.03508 88.8557C1.43843 87.9336 1.2519 86.411 1.93952 84.9785L1.038 84.5457C0.207279 86.2764 0.400368 88.1701 1.1955 89.3989L2.03508 88.8557ZM5.41114 90.7783C3.91918 90.7783 2.61074 89.7454 2.03508 88.8557L1.1955 89.3989C1.89839 90.4853 3.48685 91.7783 5.41114 91.7783V90.7783ZM10.2234 90.7783H5.41114V91.7783H10.2234V90.7783ZM44.5855 37.3446L50.4691 49.428L51.3682 48.9903L45.4846 36.9068L44.5855 37.3446ZM22.3257 84.919L45.4846 37.3445L44.5855 36.9068L21.4266 84.4813L22.3257 84.919ZM22.5478 89.045C21.9398 88.1141 21.5909 86.445 22.3266 84.917L21.4256 84.4832C20.5164 86.3715 20.94 88.412 21.7106 89.5918L22.5478 89.045ZM25.7985 90.7799C25.208 90.7799 24.5396 90.5768 23.9321 90.2426C23.3232 89.9077 22.824 89.468 22.5478 89.045L21.7106 89.5918C22.0989 90.1865 22.7386 90.7274 23.4502 91.1188C24.1632 91.511 24.9972 91.7799 25.7985 91.7799V90.7799ZM71.4163 90.7799H25.7985V91.7799H71.4163V90.7799ZM65.841 80.8043L70.9654 91.496L71.8672 91.0638L66.7427 80.3721L65.841 80.8043ZM35.6087 81.0882H66.2918V80.0882H35.6087V81.0882ZM50.4693 48.9899L35.1593 80.369L36.0581 80.8075L51.368 49.4284L50.4693 48.9899ZM70.6892 73.3459L79.5462 91.5028L80.445 91.0644L71.588 72.9075L70.6892 73.3459ZM47.7309 73.6267H71.1386V72.6267H47.7309V73.6267ZM52.4054 62.3434L47.281 72.9085L48.1807 73.3449L53.3051 62.7798L52.4054 62.3434ZM65.951 62.0616H52.8553V63.0616H65.951V62.0616ZM48.8629 28.6179L65.5014 62.7805L66.4005 62.3427L49.762 28.18L48.8629 28.6179ZM54.7465 16.0966L48.8629 28.18L49.762 28.6178L55.6456 16.5343L54.7465 16.0966ZM89.108 84.6746L55.6454 16.0962L54.7467 16.5347L88.2092 85.1131L89.108 84.6746ZM88.6988 89.5307C89.0957 88.9173 89.3699 88.0969 89.4639 87.2503C89.5581 86.4031 89.4766 85.4853 89.1138 84.687L88.2034 85.1008C88.4732 85.6943 88.5499 86.4213 88.4701 87.1399C88.3902 87.8591 88.1582 88.5254 87.8592 88.9875L88.6988 89.5307ZM84.6097 91.7836C86.3216 91.7836 87.9609 90.6711 88.6988 89.5307L87.8592 88.9875C87.2779 89.8859 85.9344 90.7836 84.6097 90.7836V91.7836ZM79.9956 91.7836H84.6097V90.7836H79.9956V91.7836Z" fill="#1890B5"/>
</svg>
