<svg width="410" height="410" viewBox="0 0 410 410" fill="none" xmlns="http://www.w3.org/2000/svg">
<circle cx="205" cy="205" r="205" fill="#2F8581"/>
<path d="M206.25 145H180V118.75C180 113.918 176.082 110 171.25 110H153.75C148.918 110 145 113.918 145 118.75V145H118.75C113.918 145 110 148.918 110 153.75V171.25C110 176.082 113.918 180 118.75 180H145V241.25C145 246.082 148.918 250 153.75 250H171.25C176.082 250 180 246.082 180 241.25V180H206.25C211.082 180 215 176.082 215 171.25V153.75C215 148.918 211.082 145 206.25 145Z" fill="#BEBDAB"/>
<path d="M294 273V198.714C294 195.143 291.857 193 288.286 193H215.429C203.286 193 194 202.286 194 214.429V285.857C194 298 203.286 307.286 215.429 307.286H288.286C291.143 307.286 294 305.143 294 301.571V298C294 296.571 293.286 295.143 291.857 293.714C291.143 290.143 291.143 280.143 291.857 277.286C293.286 276.571 294 275.143 294 273V273ZM226.143 225.143C226.143 223.17 227.741 221.571 229.714 221.571H240.429V210.857C240.429 208.884 242.027 207.286 244 207.286H251.143C253.116 207.286 254.714 208.884 254.714 210.857V221.571H265.429C267.402 221.571 269 223.17 269 225.143V232.286C269 234.259 267.402 235.857 265.429 235.857H254.714V260.857C254.714 262.83 253.116 264.429 251.143 264.429H244C242.027 264.429 240.429 262.83 240.429 260.857V235.857H229.714C227.741 235.857 226.143 234.259 226.143 232.286V225.143ZM279 293H215.429C211.143 293 208.286 290.143 208.286 285.857C208.286 281.571 211.857 278.714 215.429 278.714H279V293Z" fill="#C0A6C7"/>
</svg>
