<svg width="410" height="410" viewBox="0 0 410 410" fill="none" xmlns="http://www.w3.org/2000/svg">
<path d="M205 410C318.218 410 410 318.218 410 205C410 91.7816 318.218 0 205 0C91.7816 0 0 91.7816 0 205C0 318.218 91.7816 410 205 410Z" fill="#2F8581"/>
<path d="M189.545 257.713C189.545 257.713 169.056 241.282 132.453 245.904C95.8502 250.526 84.9253 255.622 72.0781 257.713C72.0781 257.713 84.3646 259.506 101.857 255.921C119.334 252.318 166.317 243.637 187.622 258.17L191.451 257.713" fill="#DDDDDD"/>
<path d="M216.392 259.102H72.0938L97.5798 237.539H216.392V259.102Z" fill="#BC832D"/>
<path d="M193.741 259.102V265.411L67 261.896C67 261.896 93.9598 237.521 97.5961 237.521L72.094 259.102H193.741V259.102Z" fill="#3A4A38"/>
<path d="M216.392 259.102H338.039L312.537 237.539H193.741L216.392 259.102Z" fill="#BC832D"/>
<path d="M216.392 259.101V265.41L343.149 261.895C343.149 261.895 316.206 237.52 312.553 237.52L338.055 259.101H216.392V259.101Z" fill="#3A4A38"/>
<path d="M189.544 259.101C189.544 259.101 192.284 272 204.474 272C216.664 272 221.038 259.101 221.038 259.101H189.544Z" fill="#82A47D"/>
<path d="M189.544 257.713C189.544 257.713 196.272 264.514 205.387 264.514C214.502 264.514 220.573 257.713 220.573 257.713H189.544Z" fill="#E7AE7A"/>
<path d="M340.202 245.078L335.796 239.559C313.915 236.73 275.453 236.449 275.453 236.449C310.054 232.319 338.359 236.449 338.359 236.449C335.252 222.372 326.97 218.313 326.97 218.313C256.407 225.008 239.667 238.47 239.667 238.47C268.902 210.545 331.76 212.425 331.76 212.425C317.118 169.51 295.509 162.937 295.509 162.937C259.178 185.133 220.813 237.521 220.813 237.521C254.933 178.385 296.935 155.82 296.935 155.82L282.998 152.498C241.301 188.982 220.813 226.783 220.813 226.783C237.376 186.117 284.792 145.838 284.792 145.838L276.559 144.414C255.638 161.356 228.23 204.131 228.23 204.131C244.184 170.723 275.453 138 275.453 138H255.67C215.078 165.24 207.117 228.101 206.123 237.679C205.13 228.084 197.169 165.222 156.577 138H136.794C136.794 138 168.063 170.74 184.017 204.131C184.017 204.131 156.625 161.356 135.688 144.414L127.439 145.838C127.439 145.838 174.855 186.1 191.418 226.783C191.418 226.783 170.93 188.964 129.233 152.498L115.312 155.82C115.312 155.82 157.298 178.367 191.418 237.521C191.418 237.521 153.069 185.133 116.722 162.937C116.722 162.937 95.1126 169.528 80.4714 212.425C80.4714 212.425 142.384 218.295 168.767 238.154C168.767 238.154 127.663 218.963 85.261 218.313C85.261 218.313 76.9793 222.372 73.8716 236.449C73.8716 236.449 102.177 232.319 136.778 236.449C136.778 236.449 98.3164 236.73 76.4346 239.559L72.0454 245.078L85.6294 242.196L72.51 256.747C72.51 256.747 92.5175 257.625 110.635 253.25C128.752 248.874 174.935 240.649 192.267 256.747H218.282C235.614 240.649 283.447 248.874 301.564 253.25C319.681 257.625 339.689 256.747 339.689 256.747L326.569 242.196L340.202 245.078Z" fill="#D4D5D4"/>
</svg>
