<svg width="410" height="410" viewBox="0 0 410 410" fill="none" xmlns="http://www.w3.org/2000/svg">
<path d="M205 410C318.218 410 410 318.218 410 205C410 91.7816 318.218 0 205 0C91.7816 0 0 91.7816 0 205C0 318.218 91.7816 410 205 410Z" fill="#2F8581"/>
<path d="M204.964 118.481C205.252 120.176 210.769 152.556 210.769 164.924C210.769 183.782 200.745 197.231 185.925 202.64L190.577 288.493C190.829 293.433 186.899 297.616 181.923 297.616H158.846C153.906 297.616 149.94 293.469 150.192 288.493L154.844 202.64C139.988 197.231 130 183.746 130 164.924C130 152.52 135.517 120.176 135.805 118.481C136.959 111.162 152.139 111.053 153.077 118.878V169.791C153.546 171.017 158.522 170.945 158.846 169.791C159.351 160.669 161.695 119.599 161.731 118.662C162.921 111.162 177.849 111.162 179.002 118.662C179.075 119.635 181.382 160.669 181.887 169.791C182.212 170.945 187.224 171.017 187.656 169.791V118.878C188.594 111.089 203.81 111.162 204.964 118.481ZM247.945 221.498L242.536 288.241C242.103 293.289 246.106 297.616 251.154 297.616H271.346C276.142 297.616 280 293.758 280 288.962V121.654C280 116.895 276.142 113.001 271.346 113.001C241.599 113.001 191.514 177.363 247.945 221.498Z" fill="#17CAE2"/>
</svg>
