<svg width="410" height="410" viewBox="0 0 410 410" fill="none" xmlns="http://www.w3.org/2000/svg">
<circle cx="205" cy="205" r="205" fill="#2F8581"/>
<path d="M261.945 183.493H210.882V202.305C210.882 215.642 200.032 226.493 186.695 226.493C173.358 226.493 162.508 215.642 162.508 202.305V161.455L140.705 174.557C134.222 178.42 130.258 185.441 130.258 192.966V208.856L103.383 224.376C98.2428 227.332 96.4624 233.917 99.4522 239.057L126.327 285.617C129.283 290.757 135.868 292.504 141.008 289.548L175.743 269.492H221.632C233.491 269.492 243.132 259.851 243.132 247.992H248.507C254.453 247.992 259.257 243.189 259.257 237.243V215.743H261.945C266.413 215.743 270.007 212.148 270.007 207.68V191.555C270.007 187.087 266.413 183.493 261.945 183.493ZM311.563 170.929L284.688 124.368C281.732 119.228 275.147 117.481 270.007 120.437L235.271 140.493H200.939C196.907 140.493 192.977 141.635 189.55 143.751L178.297 150.772C175.139 152.721 173.258 156.181 173.258 159.876V202.305C173.258 209.729 179.271 215.743 186.695 215.743C194.119 215.743 200.132 209.729 200.132 202.305V172.743H261.945C272.325 172.743 280.757 181.175 280.757 191.555V201.129L307.632 185.609C312.772 182.619 314.519 176.068 311.563 170.929Z" fill="#FFB789"/>
</svg>
