<svg width="410" height="410" viewBox="0 0 410 410" fill="none" xmlns="http://www.w3.org/2000/svg">
<circle cx="205" cy="205" r="205" fill="#2F8581"/>
<path d="M180.04 261.257C177.605 258.015 172.989 257.349 169.75 259.786C166.511 262.223 165.845 266.844 168.28 270.086L177.031 281.765C178.134 283.237 177.973 285.283 176.687 286.57L173.747 289.513C172.208 291.054 169.704 290.939 168.326 289.26L147.7 264.476V230.357C147.7 226.288 144.415 223 140.35 223C136.285 223 133 226.288 133 230.357V280.57C133 283.076 133.85 285.513 135.412 287.467L159.322 318.344C160.471 319.838 161.252 321.54 161.711 323.333C162.124 324.919 163.571 326 165.225 326H195.475C197.496 326 199.15 324.345 199.15 322.321V296.571C199.15 290.203 197.083 284.018 193.27 278.914L180.04 261.257V261.257ZM272.65 223C268.585 223 265.3 226.288 265.3 230.357V264.476L244.674 289.26C243.296 290.916 240.769 291.031 239.253 289.513L236.313 286.57C235.027 285.283 234.866 283.237 235.969 281.765L244.72 270.086C247.155 266.844 246.489 262.223 243.25 259.786C240.011 257.349 235.395 258.015 232.96 261.257L219.73 278.914C215.917 284.018 213.85 290.203 213.85 296.571V322.321C213.85 324.345 215.504 326 217.525 326H247.775C249.406 326 250.876 324.919 251.289 323.333C251.748 321.54 252.529 319.838 253.678 318.344L277.588 287.467C279.15 285.513 280 283.076 280 280.57V230.357C280 226.288 276.715 223 272.65 223Z" fill="#FFB789"/>
<path d="M277.529 110.803C258.263 94.3337 229.611 97.2961 211.928 115.6L205.003 122.759L198.077 115.6C180.429 97.2961 151.742 94.3337 132.477 110.803C110.399 129.707 109.239 163.634 128.996 184.124L197.022 254.588C201.417 259.137 208.553 259.137 212.948 254.588L280.974 184.124C300.766 163.634 299.606 129.707 277.529 110.803V110.803Z" fill="#FF7C7C"/>
</svg>
