<svg width="410" height="410" viewBox="0 0 410 410" fill="none" xmlns="http://www.w3.org/2000/svg">
<circle cx="205" cy="205" r="205" fill="#2F8581"/>
<path d="M183.5 207.5C185.736 209.172 185.264 209.672 187.5 208L189.5 206.5C191.736 204.828 191.236 204.672 189 203L164 187.5L189 171.5C191.236 169.828 192.236 170.172 190 168.5L188.5 167.5C186.264 165.828 185.736 166.328 183.5 168L160 185.5C157.764 187.172 157.764 187.328 160 189L183.5 207.5ZM222 205.5L224 207C226.236 208.672 225.764 208.672 228 207L250.5 189.5C252.736 187.828 252.736 187.172 250.5 185.5L228 168.5C225.764 166.828 225.236 165.828 223 167.5L221.5 168.5C219.264 170.172 220.764 170.089 223 171.762L247 187.375L223 202.5C220.764 204.172 219.764 203.828 222 205.5ZM314.275 247.313H227.52C227.255 252.613 222.951 253.5 216.5 253.5H192C185.312 253.5 182.235 251.2 182.324 247.313H96.725C93.5762 247.313 91 247.145 91 249.5V251.5C91 260.919 101.305 260 113.9 260H295C307.595 260 319.5 260.919 319.5 251.5V249.5C319.5 247.145 317.424 247.313 314.275 247.313ZM297.1 143.5C297.1 136.436 296.946 136 287.5 136H122.5C113.054 136 113.9 134.936 113.9 142V238.75H297.1V143.5ZM292.5 234.5H118.5V141H292.5V234.5Z" fill="#F79999"/>
</svg>
