<svg width="410" height="410" viewBox="0 0 410 410" fill="none" xmlns="http://www.w3.org/2000/svg">
<circle cx="205" cy="205" r="205" fill="#2F8581"/>
<path d="M226.308 160.564C236.376 160.564 244.538 152.379 244.538 142.282C244.538 132.185 236.376 124 226.308 124C216.239 124 208.077 132.185 208.077 142.282C208.077 152.379 216.239 160.564 226.308 160.564ZM166.18 244.916L160.559 258.064H135.154C128.443 258.064 123 263.522 123 270.252C123 276.982 128.443 282.44 135.154 282.44H164.57C171.881 282.44 178.463 278.083 181.323 271.36L184.662 263.545L180.609 261.145C174.031 257.249 169.192 251.482 166.18 244.916ZM268.846 209.312H252.123L242.225 189.03C237.478 179.299 228.761 172.184 218.761 169.629L191.764 161.577C181.016 158.987 169.823 161.368 161.061 168.105L145.994 179.688C140.665 183.782 139.655 191.43 143.745 196.774C147.836 202.117 155.458 203.119 160.783 199.028L175.858 187.446C178.771 185.203 182.482 184.399 185.456 185.107L191.039 186.772L176.811 220.056C172.018 231.285 176.314 244.436 186.8 250.644L219.076 269.753L208.643 303.167C206.637 309.589 210.204 316.425 216.607 318.436C217.819 318.817 219.042 319 220.246 319C225.415 319 230.208 315.66 231.838 310.449L243.855 271.958C246.099 264.047 242.757 255.55 235.636 251.242L212.376 237.478L224.268 207.663L231.967 223.442C235.005 229.666 241.432 233.684 248.34 233.684H268.846C275.557 233.684 281 228.226 281 221.496C281 214.766 275.557 209.312 268.846 209.312Z" fill="#D1DAAF"/>
</svg>
