<svg width="410" height="410" viewBox="0 0 410 410" fill="none" xmlns="http://www.w3.org/2000/svg">
<path d="M205 410C318.218 410 410 318.218 410 205C410 91.7816 318.218 0 205 0C91.7816 0 0 91.7816 0 205C0 318.218 91.7816 410 205 410Z" fill="#2F8581"/>
<path d="M180.667 143.489L180.454 142.287C179.972 139.563 183.586 130.926 191.298 116.377C199.042 101.781 202.798 93.8221 202.563 92.4999C202.329 91.1777 200.189 90.8752 196.142 91.5922C192.095 92.3093 189.392 92.9122 188.032 93.4011C186.713 93.8829 185.088 94.6254 183.158 95.6285C181.261 96.5844 179.852 97.1441 178.931 97.3074C176.447 97.7475 174.867 96.0645 174.193 92.2582C173.511 88.4119 175.975 85.9918 181.584 84.9978L190.96 83.3365L192.593 83.1091L195.729 82.6154C196.818 82.4638 197.883 82.2957 198.925 82.1111L200.498 81.8943C201.547 81.7498 202.572 81.5888 203.574 81.4113L208.223 80.7115C212.951 79.8738 215.798 79.6172 216.764 79.9418C217.731 80.2664 218.342 81.1499 218.598 82.5923C219.024 84.9962 215.462 93.5822 207.913 108.35C200.364 123.118 196.693 131.083 196.899 132.245C197.197 133.928 199.87 134.322 204.919 133.427C209.967 132.533 213.981 131.284 216.962 129.682C219.983 128.072 221.854 127.203 222.575 127.075C224.979 126.649 226.5 128.239 227.139 131.845C227.899 136.132 224.492 138.947 216.92 140.289L210.73 141.385L209.157 141.602L207.594 141.879L190.352 144.624C184.222 145.711 180.994 145.332 180.667 143.489Z" fill="#10CAE3"/>
<path d="M218.211 172.225L218.6 171.172C219.482 168.784 226.364 163.604 239.246 155.632C252.176 147.639 258.855 143.062 259.283 141.904C259.711 140.745 258.152 139.51 254.605 138.2C251.059 136.89 248.632 136.113 247.325 135.87C246.053 135.639 244.418 135.474 242.42 135.375C240.469 135.253 239.09 135.042 238.283 134.744C236.105 133.94 235.633 131.87 236.865 128.534C238.111 125.163 241.192 124.385 246.108 126.201L254.325 129.237L255.727 129.815L258.447 130.879C259.382 131.265 260.306 131.626 261.219 131.963L262.569 132.522C263.469 132.894 264.358 133.243 265.236 133.567L269.253 135.171C273.397 136.702 275.777 137.82 276.394 138.527C277.011 139.234 277.086 140.219 276.619 141.483C275.84 143.59 269.024 148.754 256.169 156.976C243.315 165.197 236.7 169.817 236.323 170.835C235.779 172.31 237.718 173.865 242.143 175.499C246.568 177.134 250.335 178.007 253.447 178.119C256.593 178.244 258.483 178.423 259.115 178.656C261.222 179.435 261.691 181.404 260.524 184.564C259.136 188.322 255.123 188.974 248.487 186.523L243.061 184.518L241.711 183.96L240.342 183.454L225.375 177.625C220.002 175.641 217.614 173.84 218.211 172.225Z" fill="#10CAE3"/>
<path d="M194.123 218.01L193.544 217.348C192.232 215.849 191.242 209.181 190.575 197.344C189.91 185.466 189.259 179.163 188.623 178.436C187.986 177.709 186.554 178.319 184.328 180.268C182.101 182.218 180.66 183.596 180.005 184.404C179.371 185.192 178.646 186.255 177.831 187.591C177.018 188.887 176.359 189.757 175.852 190.201C174.485 191.397 172.885 190.948 171.052 188.854C169.199 186.738 169.816 184.329 172.902 181.627L178.06 177.112L178.982 176.363L180.73 174.891C181.344 174.392 181.938 173.892 182.511 173.39L183.4 172.67C183.992 172.191 184.564 171.71 185.115 171.227L187.719 169.064C190.32 166.787 191.979 165.569 192.695 165.409C193.412 165.249 194.118 165.565 194.812 166.359C195.97 167.681 196.974 174.298 197.823 186.21C198.672 198.121 199.376 204.396 199.936 205.036C200.747 205.961 202.541 205.208 205.318 202.777C208.095 200.345 210.104 198.081 211.344 195.983C212.605 193.866 213.435 192.634 213.831 192.287C215.154 191.129 216.684 191.542 218.42 193.526C220.485 195.884 219.435 198.887 215.269 202.535L211.863 205.516L210.974 206.236L210.115 206.988L200.513 215.102C197.141 218.054 195.011 219.024 194.123 218.01Z" fill="#10CAE3"/>
<circle cx="243" cy="229" r="15" fill="url(#paint0_linear)"/>
<circle cx="185.5" cy="285.5" r="8.5" fill="url(#paint1_linear)"/>
<circle cx="209.5" cy="257.5" r="11.5" fill="url(#paint2_linear)"/>
<circle cx="185" cy="321" r="6" fill="url(#paint3_linear)"/>
<defs>
<linearGradient id="paint0_linear" x1="232" y1="216.5" x2="256" y2="242" gradientUnits="userSpaceOnUse">
<stop stop-color="#10CAE3"/>
<stop offset="1" stop-color="#1E8998"/>
</linearGradient>
<linearGradient id="paint1_linear" x1="179.267" y1="278.417" x2="192.867" y2="292.867" gradientUnits="userSpaceOnUse">
<stop stop-color="#10CAE3"/>
<stop offset="1" stop-color="#1E8998"/>
</linearGradient>
<linearGradient id="paint2_linear" x1="201.067" y1="247.917" x2="219.467" y2="267.467" gradientUnits="userSpaceOnUse">
<stop stop-color="#10CAE3"/>
<stop offset="1" stop-color="#1E8998"/>
</linearGradient>
<linearGradient id="paint3_linear" x1="180.6" y1="316" x2="190.2" y2="326.2" gradientUnits="userSpaceOnUse">
<stop stop-color="#10CAE3"/>
<stop offset="1" stop-color="#1E8998"/>
</linearGradient>
</defs>
</svg>
