<svg width="40" height="40" viewBox="0 0 40 40" fill="none" xmlns="http://www.w3.org/2000/svg">
<path d="M36.282 29.0129C35.6481 29.0141 35.0337 28.7933 34.5455 28.3888L20.0027 16.2336L5.43266 27.9547C5.15513 28.1801 4.8358 28.3484 4.49301 28.45C4.15022 28.5515 3.79075 28.5843 3.43524 28.5465C3.07973 28.5087 2.7352 28.401 2.42145 28.2296C2.1077 28.0582 1.83092 27.8265 1.60702 27.5477C1.38164 27.2702 1.21334 26.9509 1.11178 26.6081C1.01022 26.2653 0.977404 25.9058 1.01522 25.5503C1.05304 25.1948 1.16075 24.8503 1.33216 24.5365C1.50356 24.2228 1.73528 23.946 2.014 23.7221L18.2933 10.6172C18.7788 10.2182 19.3878 10 20.0162 10C20.6447 10 21.2536 10.2182 21.7391 10.6172L38.0185 24.1833C38.2932 24.4111 38.5203 24.6908 38.6868 25.0065C38.8532 25.3222 38.9558 25.6676 38.9885 26.023C39.0213 26.3783 38.9836 26.7367 38.8777 27.0775C38.7718 27.4183 38.5996 27.7348 38.3712 28.009C38.1187 28.3202 37.8004 28.5717 37.4392 28.7452C37.078 28.9188 36.6828 29.0102 36.282 29.0129Z" fill="#6FDCFE"/>
</svg>
