<svg width="40" height="40" viewBox="0 0 40 40" fill="none" xmlns="http://www.w3.org/2000/svg">
<circle cx="20" cy="20" r="20" fill="#022530"/>
<path d="M19.25 19.3769C20.2437 18.8718 20.7625 18.1074 20.7625 16.9178C20.7625 14.5716 19.1188 14 17.2219 14H12V25.7773H17.3688C19.3813 25.7773 21.2719 24.7505 21.2719 22.3578C21.2719 20.879 20.6125 19.7857 19.25 19.3769ZM14.4344 16.0105H16.7188C17.5969 16.0105 18.3875 16.2731 18.3875 17.3564C18.3875 18.3567 17.7719 18.7588 16.9031 18.7588H14.4344V16.0105ZM17.0375 23.7768H14.4344V20.5334H17.0875C18.1594 20.5334 18.8375 21.0086 18.8375 22.2149C18.8375 23.4046 18.0281 23.7768 17.0375 23.7768ZM28.2406 15.7779H23.75V14.6181H28.2406V15.7779ZM30 21.6367C30 19.1144 28.6125 17.0108 26.0969 17.0108C23.6531 17.0108 21.9937 18.9648 21.9937 21.5237C21.9937 24.1789 23.5656 26 26.0969 26C28.0125 26 29.2531 25.0828 29.85 23.1321H27.9062C27.6969 23.8599 26.8344 24.2454 26.1656 24.2454C24.875 24.2454 24.1969 23.4412 24.1969 22.0753H29.9813C29.9906 21.9358 30 21.7862 30 21.6367ZM24.2 20.5998C24.2719 19.4799 24.9719 18.7787 26.0281 18.7787C27.1344 18.7787 27.6906 19.47 27.7844 20.5998H24.2Z" fill="#FFC01D"/>
</svg>
