<svg width="30" height="30" viewBox="0 0 30 30" fill="none" xmlns="http://www.w3.org/2000/svg">
<path d="M30 14.9998C30 23.2846 23.2846 30 14.9998 30C6.71538 30 0 23.2843 0 14.9998C0 6.71504 6.71538 0 14.9998 0C23.2846 0 30 6.71504 30 14.9998Z" fill="#F0AF06"/>
<path d="M25.0295 12.7428C25.0295 15.0268 23.1776 16.8787 20.8928 16.8787C18.6094 16.8787 16.7568 15.0268 16.7568 12.7428C16.7568 10.4583 18.6091 8.60712 20.8928 8.60712C23.1776 8.60712 25.0295 10.4583 25.0295 12.7428Z" fill="white"/>
<path d="M24.434 14.9908C24.434 15.9856 23.6276 16.7916 22.6332 16.7916C21.6388 16.7916 20.834 15.9852 20.834 14.9908C20.834 13.9967 21.6392 13.19 22.6332 13.19C23.6276 13.19 24.434 13.9967 24.434 14.9908Z" fill="#562912"/>
<path d="M13.2453 12.7428C13.2453 15.0268 11.3934 16.8787 9.10864 16.8787C6.82524 16.8787 4.97266 15.0268 4.97266 12.7428C4.97266 10.4583 6.82489 8.60712 9.10864 8.60712C11.3934 8.60712 13.2453 10.4583 13.2453 12.7428Z" fill="white"/>
<path d="M9.02228 10.0036C9.02228 10.998 8.21627 11.8036 7.22227 11.8036C6.22827 11.8036 5.42383 10.9976 5.42383 10.0036C5.42383 9.01 6.22866 8.20361 7.22227 8.20361C8.21627 8.20361 9.02228 9.01 9.02228 10.0036Z" fill="#562912"/>
<path d="M8.43542 18.7986C7.84723 18.5179 7.24172 19.1965 7.58347 19.7507C9.16432 22.3111 11.8931 24.0049 15.0007 24.0049C18.1083 24.0049 20.8364 22.3111 22.4173 19.7507C22.7601 19.1965 22.1546 18.5179 21.5667 18.7986C19.6635 19.7057 17.4155 20.2342 15.0007 20.2342C12.586 20.2342 10.3379 19.7057 8.43542 18.7986Z" fill="#562912"/>
<path d="M14.8245 20.9679C13.2408 20.9679 11.7123 20.842 10.2617 20.6143V25.0719V25.8057V26.5221C10.2617 28.3719 12.3042 29.8724 14.8245 29.8724C17.3442 29.8724 19.3877 28.3719 19.3877 26.5221V25.8057V25.0719V20.6147C17.9362 20.842 16.4087 20.9679 14.8245 20.9679Z" fill="#CC342F"/>
<path d="M14.9989 21.423C14.7986 21.423 14.6053 21.3819 14.4219 21.3077V22.7612V23.0005V23.2341C14.4219 23.8373 14.6802 24.3266 14.9989 24.3266C15.3176 24.3266 15.5761 23.8373 15.5761 23.2341V23.0005V22.7612V21.3078C15.3925 21.3819 15.1993 21.423 14.9989 21.423Z" fill="#FFC01D"/>
</svg>
