<svg width="128" height="132" viewBox="0 0 128 132" fill="none" xmlns="http://www.w3.org/2000/svg">
<path fill-rule="evenodd" clip-rule="evenodd" d="M13.8157 131.276L72.7 10.5862L69.7725 4.56084C68.1292 1.54798 65.7827 0.99476 63.8384 1.00004C61.9021 1.00529 59.4563 2.27814 58.3608 4.46955L1.21116 121.873C0.115645 124.155 0.389551 126.62 1.39375 128.172C2.31626 129.598 4.40644 131.276 6.87135 131.276H13.8157ZM72.5412 70.5682L64.051 53.1311L30.6315 121.783C29.4446 124.248 30.0019 126.925 30.9966 128.448C31.9557 129.916 34.2832 131.278 36.2916 131.278H102.12L94.7255 115.85H50.4482L72.5412 70.5682ZM114.501 131.284L101.719 105.082H67.9409L75.3357 89.8364H94.2334L70.2232 40.538L78.7135 23.1009L127.002 122.063C127.915 124.071 127.458 126.81 126.454 128.362C125.502 129.833 123.35 131.284 121.159 131.284H114.501Z" fill="#45C0E4"/>
<path d="M72.7 10.5862L73.1493 10.8055L73.2561 10.5867L73.1497 10.3677L72.7 10.5862ZM13.8157 131.276V131.776H14.1281L14.2651 131.495L13.8157 131.276ZM69.7725 4.56084L70.2222 4.34234L70.2171 4.33176L70.2114 4.32143L69.7725 4.56084ZM63.8384 1.00004L63.8398 1.50004L63.8384 1.00004ZM58.3608 4.46955L57.9136 4.24596L57.9112 4.25071L58.3608 4.46955ZM1.21116 121.873L0.761592 121.654L0.760402 121.656L1.21116 121.873ZM1.39375 128.172L1.81354 127.9L1.39375 128.172ZM64.051 53.1311L64.5005 52.9122L64.0509 51.9889L63.6014 52.9123L64.051 53.1311ZM72.5412 70.5682L72.9906 70.7874L73.0975 70.5684L72.9908 70.3493L72.5412 70.5682ZM30.6315 121.783L30.1819 121.565L30.181 121.566L30.6315 121.783ZM30.9966 128.448L31.4152 128.174V128.174L30.9966 128.448ZM102.12 131.278V131.778H102.914L102.571 131.062L102.12 131.278ZM94.7255 115.85L95.1764 115.634L95.0403 115.35H94.7255V115.85ZM50.4482 115.85L49.9989 115.63L49.6479 116.35H50.4482V115.85ZM101.719 105.082L102.169 104.863L102.032 104.582H101.719V105.082ZM114.501 131.284L114.051 131.503L114.188 131.784H114.501V131.284ZM67.9409 105.082L67.491 104.864L67.1427 105.582H67.9409V105.082ZM75.3357 89.8364V89.3364H75.0225L74.8858 89.6182L75.3357 89.8364ZM94.2334 89.8364V90.3364H95.0331L94.6829 89.6174L94.2334 89.8364ZM70.2232 40.538L69.7737 40.3191L69.6671 40.538L69.7737 40.7569L70.2232 40.538ZM78.7135 23.1009L79.1629 22.8817L78.713 21.9598L78.264 22.8821L78.7135 23.1009ZM127.002 122.063L127.457 121.856L127.451 121.844L127.002 122.063ZM126.454 128.362L126.874 128.634L126.454 128.362ZM72.2506 10.367L13.3664 131.057L14.2651 131.495L73.1493 10.8055L72.2506 10.367ZM69.3228 4.77935L72.2502 10.8047L73.1497 10.3677L70.2222 4.34234L69.3228 4.77935ZM63.8398 1.50004C64.7658 1.49752 65.7539 1.62843 66.6958 2.09642C67.6312 2.56114 68.5566 3.37579 69.3335 4.80026L70.2114 4.32143C69.3451 2.73304 68.2756 1.76464 67.1408 1.20086C66.0126 0.640339 64.8553 0.497275 63.8371 0.500039L63.8398 1.50004ZM58.808 4.69313C59.8137 2.6815 62.08 1.50481 63.8398 1.50004L63.8371 0.500039C61.7242 0.505773 59.099 1.87479 57.9136 4.24597L58.808 4.69313ZM1.66073 122.092L58.8104 4.68839L57.9112 4.25071L0.761598 121.654L1.66073 122.092ZM1.81354 127.9C0.908585 126.502 0.637957 124.222 1.66193 122.089L0.760402 121.656C-0.406667 124.088 -0.129482 126.738 0.973967 128.444L1.81354 127.9ZM6.87135 130.776C4.6226 130.776 2.67244 129.228 1.81354 127.9L0.973967 128.444C1.96009 129.968 4.19027 131.776 6.87135 131.776V130.776ZM13.8157 130.776H6.87135V131.776H13.8157V130.776ZM63.6014 53.35L72.0917 70.787L72.9908 70.3493L64.5005 52.9122L63.6014 53.35ZM31.081 122.002L64.5005 53.35L63.6014 52.9123L30.1819 121.565L31.081 122.002ZM31.4152 128.174C30.5019 126.776 29.9819 124.285 31.082 122L30.181 121.566C28.9074 124.212 29.502 127.074 30.578 128.721L31.4152 128.174ZM36.2916 130.778C35.3928 130.778 34.3916 130.471 33.4916 129.976C32.5901 129.48 31.8387 128.823 31.4152 128.174L30.578 128.721C31.1136 129.541 32.0055 130.299 33.0097 130.852C34.0152 131.405 35.182 131.778 36.2916 131.778V130.778ZM102.12 130.778H36.2916V131.778H102.12V130.778ZM94.2746 116.066L101.669 131.494L102.571 131.062L95.1764 115.634L94.2746 116.066ZM50.4482 116.35H94.7255V115.35H50.4482V116.35ZM72.0919 70.3489L49.9989 115.63L50.8976 116.069L72.9906 70.7874L72.0919 70.3489ZM101.27 105.302L114.051 131.503L114.95 131.064L102.169 104.863L101.27 105.302ZM67.9409 105.582H101.719V104.582H67.9409V105.582ZM74.8858 89.6182L67.491 104.864L68.3908 105.301L75.7855 90.0546L74.8858 89.6182ZM94.2334 89.3364H75.3357V90.3364H94.2334V89.3364ZM69.7737 40.7569L93.7839 90.0553L94.6829 89.6174L70.6728 40.319L69.7737 40.7569ZM78.264 22.8821L69.7737 40.3191L70.6728 40.7569L79.1631 23.3198L78.264 22.8821ZM127.451 121.844L79.1629 22.8817L78.2642 23.3202L126.552 122.282L127.451 121.844ZM126.874 128.634C127.425 127.782 127.811 126.632 127.944 125.439C128.076 124.245 127.96 122.963 127.457 121.856L126.546 122.27C126.956 123.172 127.068 124.263 126.95 125.329C126.831 126.395 126.487 127.39 126.034 128.091L126.874 128.634ZM121.159 131.784C123.543 131.784 125.843 130.226 126.874 128.634L126.034 128.091C125.161 129.441 123.156 130.784 121.159 130.784V131.784ZM114.501 131.784H121.159V130.784H114.501V131.784Z" fill="#1890B5"/>
</svg>
