<svg width="1400" height="980" viewBox="0 0 1400 980" fill="none" xmlns="http://www.w3.org/2000/svg">
<rect x="525" y="96" width="350" height="350" rx="40" fill="#E1E1E1"/>
<path d="M624.062 382.212L719.498 186.606L714.753 176.84C712.09 171.957 708.287 171.061 705.136 171.069C701.997 171.078 698.034 173.141 696.258 176.692L603.633 366.972C601.858 370.671 602.302 374.666 603.929 377.182C605.424 379.492 608.812 382.212 612.807 382.212H624.062Z" fill="#1D7A77" stroke="#A7BAB9" stroke-width="3"/>
<path d="M719.202 283.817L705.441 255.556L651.277 366.824C649.353 370.819 650.257 375.157 651.869 377.625C653.423 380.005 657.195 382.212 660.451 382.212H767.142L755.156 357.207H683.395L719.202 283.817Z" fill="#1D7A77" stroke="#A7BAB9" stroke-width="3"/>
<path d="M766.55 339.748L787.265 382.213H798.056C801.608 382.213 805.096 379.862 806.638 377.478C808.266 374.963 809.006 370.524 807.526 367.269L729.264 206.877L715.503 235.138L754.417 315.038H723.789L711.804 339.748H766.55Z" fill="#1D7A77" stroke="#A7BAB9" stroke-width="3"/>
</svg>
