<svg width="180" height="123" viewBox="0 0 180 123" fill="none" xmlns="http://www.w3.org/2000/svg">
<path fill-rule="evenodd" clip-rule="evenodd" d="M55.5222 90.5026L95.9771 7.58595L93.9658 3.44638C92.8368 1.37648 91.2247 0.9964 89.889 1.00003C88.5587 1.00364 86.8784 1.87811 86.1257 3.38366L46.8626 84.0424C46.11 85.6104 46.2981 87.3038 46.9881 88.3701C47.6218 89.3496 49.0578 90.5026 50.7513 90.5026H55.5222ZM95.868 48.7949L90.035 36.8153L67.075 83.9809C66.2597 85.6744 66.6425 87.5132 67.3259 88.5595C67.9848 89.5684 69.5839 90.5041 70.9637 90.5041H116.19L111.109 79.9043H80.6896L95.868 48.7949ZM124.695 90.5078L115.914 72.507H92.7075L97.7879 62.0326H110.771L94.2755 28.1635L100.109 16.1839L133.284 84.173C133.911 85.5529 133.597 87.4345 132.907 88.5007C132.253 89.5114 130.775 90.5078 129.269 90.5078H124.695Z" fill="#58C0DF"/>
<path d="M95.9771 7.58595L96.4264 7.8052L96.5332 7.58641L96.4268 7.36745L95.9771 7.58595ZM55.5222 90.5026V91.0026H55.8346L55.9716 90.7219L55.5222 90.5026ZM93.9658 3.44638L94.4155 3.22788L94.4104 3.21729L94.4048 3.20697L93.9658 3.44638ZM89.889 1.00003L89.8876 0.500027L89.889 1.00003ZM86.1257 3.38366L85.6785 3.16007L85.6762 3.16482L86.1257 3.38366ZM46.8626 84.0424L46.413 83.8235L46.4119 83.826L46.8626 84.0424ZM46.9881 88.3701L47.4078 88.0985L47.4078 88.0985L46.9881 88.3701ZM90.035 36.8153L90.4845 36.5964L90.0349 35.673L89.5854 36.5964L90.035 36.8153ZM95.868 48.7949L96.3174 49.0141L96.4243 48.7951L96.3176 48.576L95.868 48.7949ZM67.075 83.9809L66.6255 83.7621L66.6245 83.764L67.075 83.9809ZM67.3259 88.5595L67.7445 88.2861L67.7445 88.2861L67.3259 88.5595ZM116.19 90.5041V91.0041H116.984L116.64 90.288L116.19 90.5041ZM111.109 79.9043L111.56 79.6882L111.424 79.4043H111.109V79.9043ZM80.6896 79.9043L80.2402 79.6851L79.8893 80.4043H80.6896V79.9043ZM115.914 72.507L116.364 72.2878L116.227 72.007H115.914V72.507ZM124.695 90.5078L124.246 90.727L124.383 91.0078H124.695V90.5078ZM92.7075 72.507L92.2576 72.2888L91.9093 73.007H92.7075V72.507ZM97.7879 62.0326V61.5326H97.4747L97.338 61.8144L97.7879 62.0326ZM110.771 62.0326V62.5326H111.571L111.221 61.8137L110.771 62.0326ZM94.2755 28.1635L93.826 27.9446L93.7194 28.1635L93.826 28.3824L94.2755 28.1635ZM100.109 16.1839L100.558 15.9646L100.108 15.0427L99.659 15.965L100.109 16.1839ZM133.284 84.173L133.739 83.966L133.733 83.9538L133.284 84.173ZM132.907 88.5007L132.487 88.2291L132.487 88.2291L132.907 88.5007ZM95.5277 7.36671L55.0729 90.2834L55.9716 90.7219L96.4264 7.8052L95.5277 7.36671ZM93.5161 3.66489L95.5273 7.80446L96.4268 7.36745L94.4155 3.22788L93.5161 3.66489ZM89.8903 1.50002C90.512 1.49834 91.1645 1.58637 91.7825 1.89341C92.3939 2.19718 93.0071 2.7328 93.5269 3.6858L94.4048 3.20697C93.7956 2.09005 93.0382 1.40069 92.2274 0.997849C91.4232 0.598279 90.6016 0.49809 89.8876 0.500027L89.8903 1.50002ZM86.573 3.60724C87.2357 2.28147 88.7366 1.50316 89.8903 1.50002L89.8876 0.500027C88.3808 0.504117 86.521 1.47476 85.6785 3.16008L86.573 3.60724ZM47.3122 84.2612L86.5753 3.6025L85.6762 3.16482L46.413 83.8235L47.3122 84.2612ZM47.4078 88.0985C46.8172 87.1856 46.6323 85.6777 47.3134 84.2587L46.4119 83.826C45.5877 85.5431 45.7791 87.4221 46.5683 88.6417L47.4078 88.0985ZM50.7513 90.0026C49.274 90.0026 47.978 88.9797 47.4078 88.0985L46.5683 88.6417C47.2657 89.7195 48.8417 91.0026 50.7513 91.0026V90.0026ZM55.5222 90.0026H50.7513V91.0026H55.5222V90.0026ZM89.5855 37.0342L95.4185 49.0138L96.3176 48.576L90.4845 36.5964L89.5855 37.0342ZM67.5246 84.1998L90.4846 37.0341L89.5854 36.5964L66.6255 83.7621L67.5246 84.1998ZM67.7445 88.2861C67.1425 87.3643 66.7969 85.7111 67.5255 84.1978L66.6245 83.764C65.7224 85.6376 66.1426 87.6622 66.9073 88.8329L67.7445 88.2861ZM70.9637 90.0041C70.3792 90.0041 69.7173 89.803 69.1154 89.472C68.5122 89.1402 68.0179 88.7047 67.7445 88.2861L66.9073 88.8329C67.2928 89.4232 67.9276 89.96 68.6335 90.3482C69.3409 90.7373 70.1684 91.0041 70.9637 91.0041V90.0041ZM116.19 90.0041H70.9637V91.0041H116.19V90.0041ZM110.658 80.1204L115.739 90.7202L116.64 90.288L111.56 79.6882L110.658 80.1204ZM80.6896 80.4043H111.109V79.4043H80.6896V80.4043ZM95.4187 48.5757L80.2402 79.6851L81.139 80.1236L96.3174 49.0141L95.4187 48.5757ZM115.465 72.7262L124.246 90.727L125.144 90.2886L116.364 72.2878L115.465 72.7262ZM92.7075 73.007H115.914V72.007H92.7075V73.007ZM97.338 61.8144L92.2576 72.2888L93.1574 72.7252L98.2377 62.2508L97.338 61.8144ZM110.771 61.5326H97.7879V62.5326H110.771V61.5326ZM93.826 28.3824L110.322 62.2516L111.221 61.8137L94.725 27.9446L93.826 28.3824ZM99.659 15.965L93.826 27.9446L94.7251 28.3824L100.558 16.4027L99.659 15.965ZM133.733 83.9538L100.558 15.9646L99.6592 16.4031L132.834 84.3923L133.733 83.9538ZM133.327 88.7724C133.721 88.1636 133.993 87.3495 134.086 86.5097C134.18 85.6692 134.099 84.7584 133.739 83.9661L132.828 84.3799C133.095 84.9674 133.171 85.6874 133.092 86.3993C133.013 87.1118 132.783 87.7717 132.487 88.2291L133.327 88.7724ZM129.269 91.0078C130.968 91.0078 132.595 89.904 133.327 88.7724L132.487 88.2291C131.912 89.1187 130.581 90.0078 129.269 90.0078V91.0078ZM124.695 91.0078H129.269V90.0078H124.695V91.0078Z" fill="#58C0DF"/>
<path d="M5.61309 113.439C5.61309 112.72 5.76042 112.083 6.05509 111.528C6.35842 110.974 6.76575 110.545 7.27709 110.241C7.79709 109.929 8.36909 109.773 8.99309 109.773C9.55642 109.773 10.0461 109.886 10.4621 110.111C10.8868 110.328 11.2248 110.601 11.4761 110.93V109.89H12.9711V117.053H11.4761V115.987C11.2248 116.325 10.8824 116.607 10.4491 116.832C10.0158 117.058 9.52175 117.17 8.96709 117.17C8.35175 117.17 7.78842 117.014 7.27709 116.702C6.76575 116.382 6.35842 115.94 6.05509 115.376C5.76042 114.804 5.61309 114.159 5.61309 113.439ZM11.4761 113.465C11.4761 112.971 11.3721 112.542 11.1641 112.178C10.9648 111.814 10.7004 111.537 10.3711 111.346C10.0418 111.156 9.68642 111.06 9.30509 111.06C8.92375 111.06 8.56842 111.156 8.23909 111.346C7.90975 111.528 7.64109 111.801 7.43309 112.165C7.23375 112.521 7.13409 112.945 7.13409 113.439C7.13409 113.933 7.23375 114.367 7.43309 114.739C7.64109 115.112 7.90975 115.398 8.23909 115.597C8.57709 115.788 8.93242 115.883 9.30509 115.883C9.68642 115.883 10.0418 115.788 10.3711 115.597C10.7004 115.407 10.9648 115.129 11.1641 114.765C11.3721 114.393 11.4761 113.959 11.4761 113.465ZM21.1316 108.941C20.863 108.941 20.6376 108.85 20.4556 108.668C20.2736 108.486 20.1826 108.261 20.1826 107.992C20.1826 107.724 20.2736 107.498 20.4556 107.316C20.6376 107.134 20.863 107.043 21.1316 107.043C21.3916 107.043 21.6126 107.134 21.7946 107.316C21.9766 107.498 22.0676 107.724 22.0676 107.992C22.0676 108.261 21.9766 108.486 21.7946 108.668C21.6126 108.85 21.3916 108.941 21.1316 108.941ZM21.8596 109.89V117.053H20.3776V109.89H21.8596ZM37.9364 109.773C38.4997 109.773 39.0024 109.89 39.4444 110.124C39.895 110.358 40.246 110.705 40.4974 111.164C40.7574 111.624 40.8874 112.178 40.8874 112.828V117.053H39.4184V113.049C39.4184 112.408 39.258 111.918 38.9374 111.58C38.6167 111.234 38.179 111.06 37.6244 111.06C37.0697 111.06 36.6277 111.234 36.2984 111.58C35.9777 111.918 35.8174 112.408 35.8174 113.049V117.053H34.3484V113.049C34.3484 112.408 34.188 111.918 33.8674 111.58C33.5467 111.234 33.109 111.06 32.5544 111.06C31.9997 111.06 31.5577 111.234 31.2284 111.58C30.9077 111.918 30.7474 112.408 30.7474 113.049V117.053H29.2654V109.89H30.7474V110.709C30.99 110.415 31.2977 110.185 31.6704 110.02C32.043 109.856 32.4417 109.773 32.8664 109.773C33.4384 109.773 33.9497 109.895 34.4004 110.137C34.851 110.38 35.1977 110.731 35.4404 111.19C35.657 110.757 35.995 110.415 36.4544 110.163C36.9137 109.903 37.4077 109.773 37.9364 109.773ZM47.7392 113.439C47.7392 112.72 47.8865 112.083 48.1812 111.528C48.4845 110.974 48.8918 110.545 49.4032 110.241C49.9232 109.929 50.4952 109.773 51.1192 109.773C51.6825 109.773 52.1722 109.886 52.5882 110.111C53.0128 110.328 53.3508 110.601 53.6022 110.93V109.89H55.0972V117.053H53.6022V115.987C53.3508 116.325 53.0085 116.607 52.5752 116.832C52.1418 117.058 51.6478 117.17 51.0932 117.17C50.4778 117.17 49.9145 117.014 49.4032 116.702C48.8918 116.382 48.4845 115.94 48.1812 115.376C47.8865 114.804 47.7392 114.159 47.7392 113.439ZM53.6022 113.465C53.6022 112.971 53.4982 112.542 53.2902 112.178C53.0908 111.814 52.8265 111.537 52.4972 111.346C52.1678 111.156 51.8125 111.06 51.4312 111.06C51.0498 111.06 50.6945 111.156 50.3652 111.346C50.0358 111.528 49.7672 111.801 49.5592 112.165C49.3598 112.521 49.2602 112.945 49.2602 113.439C49.2602 113.933 49.3598 114.367 49.5592 114.739C49.7672 115.112 50.0358 115.398 50.3652 115.597C50.7032 115.788 51.0585 115.883 51.4312 115.883C51.8125 115.883 52.1678 115.788 52.4972 115.597C52.8265 115.407 53.0908 115.129 53.2902 114.765C53.4982 114.393 53.6022 113.959 53.6022 113.465ZM66.1177 109.773C66.6811 109.773 67.1837 109.89 67.6257 110.124C68.0764 110.358 68.4274 110.705 68.6787 111.164C68.9301 111.624 69.0557 112.178 69.0557 112.828V117.053H67.5867V113.049C67.5867 112.408 67.4264 111.918 67.1057 111.58C66.7851 111.234 66.3474 111.06 65.7927 111.06C65.2381 111.06 64.7961 111.234 64.4667 111.58C64.1461 111.918 63.9857 112.408 63.9857 113.049V117.053H62.5037V109.89H63.9857V110.709C64.2284 110.415 64.5361 110.185 64.9087 110.02C65.2901 109.856 65.6931 109.773 66.1177 109.773ZM84.7491 113.439C84.7491 112.72 84.8964 112.083 85.1911 111.528C85.4944 110.974 85.9017 110.545 86.4131 110.241C86.9331 109.929 87.5051 109.773 88.1291 109.773C88.6924 109.773 89.1821 109.886 89.5981 110.111C90.0227 110.328 90.3607 110.601 90.6121 110.93V109.89H92.1071V117.053H90.6121V115.987C90.3607 116.325 90.0184 116.607 89.5851 116.832C89.1517 117.058 88.6577 117.17 88.1031 117.17C87.4877 117.17 86.9244 117.014 86.4131 116.702C85.9017 116.382 85.4944 115.94 85.1911 115.376C84.8964 114.804 84.7491 114.159 84.7491 113.439ZM90.6121 113.465C90.6121 112.971 90.5081 112.542 90.3001 112.178C90.1007 111.814 89.8364 111.537 89.5071 111.346C89.1777 111.156 88.8224 111.06 88.4411 111.06C88.0597 111.06 87.7044 111.156 87.3751 111.346C87.0457 111.528 86.7771 111.801 86.5691 112.165C86.3697 112.521 86.2701 112.945 86.2701 113.439C86.2701 113.933 86.3697 114.367 86.5691 114.739C86.7771 115.112 87.0457 115.398 87.3751 115.597C87.7131 115.788 88.0684 115.883 88.4411 115.883C88.8224 115.883 89.1777 115.788 89.5071 115.597C89.8364 115.407 90.1007 115.129 90.3001 114.765C90.5081 114.393 90.6121 113.959 90.6121 113.465ZM99.0196 113.439C99.0196 112.72 99.1669 112.083 99.4616 111.528C99.7649 110.974 100.172 110.545 100.684 110.241C101.204 109.929 101.78 109.773 102.413 109.773C102.881 109.773 103.34 109.877 103.791 110.085C104.25 110.285 104.614 110.553 104.883 110.891V107.433H106.378V117.053H104.883V115.974C104.64 116.321 104.302 116.607 103.869 116.832C103.444 117.058 102.954 117.17 102.4 117.17C101.776 117.17 101.204 117.014 100.684 116.702C100.172 116.382 99.7649 115.94 99.4616 115.376C99.1669 114.804 99.0196 114.159 99.0196 113.439ZM104.883 113.465C104.883 112.971 104.779 112.542 104.571 112.178C104.371 111.814 104.107 111.537 103.778 111.346C103.448 111.156 103.093 111.06 102.712 111.06C102.33 111.06 101.975 111.156 101.646 111.346C101.316 111.528 101.048 111.801 100.84 112.165C100.64 112.521 100.541 112.945 100.541 113.439C100.541 113.933 100.64 114.367 100.84 114.739C101.048 115.112 101.316 115.398 101.646 115.597C101.984 115.788 102.339 115.883 102.712 115.883C103.093 115.883 103.448 115.788 103.778 115.597C104.107 115.407 104.371 115.129 104.571 114.765C104.779 114.393 104.883 113.959 104.883 113.465ZM115.266 107.433V117.053H113.784V107.433H115.266ZM122.178 113.439C122.178 112.72 122.325 112.083 122.62 111.528C122.923 110.974 123.331 110.545 123.842 110.241C124.362 109.929 124.934 109.773 125.558 109.773C126.121 109.773 126.611 109.886 127.027 110.111C127.452 110.328 127.79 110.601 128.041 110.93V109.89H129.536V117.053H128.041V115.987C127.79 116.325 127.447 116.607 127.014 116.832C126.581 117.058 126.087 117.17 125.532 117.17C124.917 117.17 124.353 117.014 123.842 116.702C123.331 116.382 122.923 115.94 122.62 115.376C122.325 114.804 122.178 114.159 122.178 113.439ZM128.041 113.465C128.041 112.971 127.937 112.542 127.729 112.178C127.53 111.814 127.265 111.537 126.936 111.346C126.607 111.156 126.251 111.06 125.87 111.06C125.489 111.06 125.133 111.156 124.804 111.346C124.475 111.528 124.206 111.801 123.998 112.165C123.799 112.521 123.699 112.945 123.699 113.439C123.699 113.933 123.799 114.367 123.998 114.739C124.206 115.112 124.475 115.398 124.804 115.597C125.142 115.788 125.497 115.883 125.87 115.883C126.251 115.883 126.607 115.788 126.936 115.597C127.265 115.407 127.53 115.129 127.729 114.765C127.937 114.393 128.041 113.959 128.041 113.465ZM146.562 109.89L144.339 117.053H142.779L141.336 111.762L139.893 117.053H138.333L136.097 109.89H137.605L139.1 115.649L140.621 109.89H142.168L143.624 115.623L145.106 109.89H146.562ZM152.636 113.439C152.636 112.72 152.783 112.083 153.078 111.528C153.381 110.974 153.789 110.545 154.3 110.241C154.82 109.929 155.392 109.773 156.016 109.773C156.579 109.773 157.069 109.886 157.485 110.111C157.91 110.328 158.248 110.601 158.499 110.93V109.89H159.994V117.053H158.499V115.987C158.248 116.325 157.905 116.607 157.472 116.832C157.039 117.058 156.545 117.17 155.99 117.17C155.375 117.17 154.811 117.014 154.3 116.702C153.789 116.382 153.381 115.94 153.078 115.376C152.783 114.804 152.636 114.159 152.636 113.439ZM158.499 113.465C158.499 112.971 158.395 112.542 158.187 112.178C157.988 111.814 157.723 111.537 157.394 111.346C157.065 111.156 156.709 111.06 156.328 111.06C155.947 111.06 155.591 111.156 155.262 111.346C154.933 111.528 154.664 111.801 154.456 112.165C154.257 112.521 154.157 112.945 154.157 113.439C154.157 113.933 154.257 114.367 154.456 114.739C154.664 115.112 154.933 115.398 155.262 115.597C155.6 115.788 155.955 115.883 156.328 115.883C156.709 115.883 157.065 115.788 157.394 115.597C157.723 115.407 157.988 115.129 158.187 114.765C158.395 114.393 158.499 113.959 158.499 113.465ZM171.015 109.773C171.578 109.773 172.081 109.89 172.523 110.124C172.973 110.358 173.324 110.705 173.576 111.164C173.827 111.624 173.953 112.178 173.953 112.828V117.053H172.484V113.049C172.484 112.408 172.323 111.918 172.003 111.58C171.682 111.234 171.244 111.06 170.69 111.06C170.135 111.06 169.693 111.234 169.364 111.58C169.043 111.918 168.883 112.408 168.883 113.049V117.053H167.401V109.89H168.883V110.709C169.125 110.415 169.433 110.185 169.806 110.02C170.187 109.856 170.59 109.773 171.015 109.773Z" fill="#58C0DF"/>
</svg>
