<svg width="40" height="40" viewBox="0 0 40 40" fill="none" xmlns="http://www.w3.org/2000/svg">
<path d="M13.5253 26.5983L15.2752 24.4116L9.64189 19.9052L15.2752 15.3989L13.5253 13.2122L6.52563 18.8119C6.36162 18.943 6.22922 19.1094 6.13823 19.2987C6.04724 19.4879 6 19.6952 6 19.9052C6 20.1152 6.04724 20.3226 6.13823 20.5118C6.22922 20.7011 6.36162 20.8674 6.52563 20.9986L13.5253 26.5983ZM26.4747 13.2122L24.7248 15.3989L30.3581 19.9052L24.7248 24.4116L26.4747 26.5983L33.4744 20.9986C33.6384 20.8674 33.7708 20.7011 33.8618 20.5118C33.9528 20.3226 34 20.1152 34 19.9052C34 19.6952 33.9528 19.4879 33.8618 19.2987C33.7708 19.1094 33.6384 18.943 33.4744 18.8119L26.4747 13.2122Z" fill="black"/>
<path d="M24.1688 7.60757L18.569 32.8064L15.835 32.1988L21.4347 7L24.1688 7.60757Z" fill="black"/>
</svg>
