<svg width="906" height="99" viewBox="0 0 906 99" fill="none" xmlns="http://www.w3.org/2000/svg">
<path d="M47.6064 98C48.1566 95.334 48.4316 93.2181 48.4316 91.6523C48.4316 90.0443 48.3893 88.8382 48.3047 88.0342C48.2624 87.2301 48.1777 86.3838 48.0508 85.4951C47.9661 84.5641 47.8392 83.5485 47.6699 82.4482C47.543 81.3057 47.416 79.9938 47.2891 78.5127C46.3158 68.3988 42.8669 60.0833 36.9424 53.5664C34.3187 50.6888 31.4834 48.5094 28.4365 47.0283C25.3896 45.5049 22.8717 44.7432 20.8828 44.7432C18.9362 44.7432 17.4339 44.8701 16.376 45.124C14.0062 52.2334 12.8213 59.6602 12.8213 67.4043C12.8213 74.2598 13.181 79.3802 13.9004 82.7656C15.043 87.8438 16.7992 92.943 19.1689 98.0635H0.189453C1.20508 95.5244 1.71289 90.1924 1.71289 82.0674C1.71289 73.9001 2.3265 66.2829 3.55371 59.2158C4.78092 52.1064 6.36784 45.7799 8.31445 40.2363C10.3034 34.6927 12.5039 29.8473 14.916 25.7002C17.3704 21.5107 19.8037 17.8714 22.2158 14.7822C24.6702 11.6507 26.9766 8.9847 29.1348 6.78418C31.293 4.54134 33.0915 2.57357 34.5303 0.880859H54.5254C52.7057 2.95443 51.7959 5.85319 51.7959 9.57715C51.7959 11.2699 52.071 14.0417 52.6211 17.8926L54.208 29.4453C60.0055 69.3932 65.1895 92.2448 69.7598 98H47.6064ZM18.9785 38.3955C20.6289 37.7607 22.3639 37.4434 24.1836 37.4434C26.0033 37.4434 27.6325 37.5703 29.0713 37.8242C30.5524 38.0781 32.0124 38.5013 33.4512 39.0938C36.5404 40.2786 39.1217 42.1618 41.1953 44.7432C39.1217 33.8675 37.8522 27.2236 37.3867 24.8115L35.165 13.7031L31.5469 18.0195C26.4688 24.1133 22.2793 30.9053 18.9785 38.3955ZM101.942 0.880859C100.377 4.81641 99.4668 8.77311 99.2129 12.751C98.959 16.6865 98.7686 20.0719 98.6416 22.9072C98.5146 25.7425 98.4089 28.6836 98.3242 31.7305C98.1973 38.8398 98.1338 45.3145 98.1338 51.1543C98.1338 75.1061 99.0225 89.7904 100.8 95.207C101.096 96.138 101.477 97.069 101.942 98H80.043C81.3548 95.1224 82.1377 92.5199 82.3916 90.1924C82.6455 87.8649 82.8783 85.0931 83.0898 81.877C83.5977 75.2331 83.8516 67.5736 83.8516 58.8984C83.8516 50.2233 83.8304 44.2988 83.7881 41.125C83.7458 37.9089 83.6823 34.7773 83.5977 31.7305C83.3014 16.877 82.4128 7.4401 80.9316 3.41992L80.043 0.880859H101.942ZM134.315 22.9072C134.146 29.0856 134.062 35.4756 134.062 42.0771C134.062 51.0908 134.21 60.8027 134.506 71.2129C134.802 81.623 135.014 87.5475 135.141 88.9863C135.31 90.3828 135.521 91.61 135.775 92.668C136.241 94.6146 137.003 96.3919 138.061 98H120.351C121.959 95.7148 122.911 93.2604 123.207 90.6367C123.546 88.013 123.799 85.474 123.969 83.0195C124.307 78.026 124.477 71.3187 124.477 62.8975C124.477 52.6989 124.307 43.389 123.969 34.9678L123.271 17.5117C123.017 11.0794 121.98 6.50911 120.16 3.80078C119.483 2.78516 118.616 1.81185 117.558 0.880859H142.377C144.027 8.11719 146.08 15.7979 148.534 23.9229L160.087 60.8027L177.797 0.880859H202.553C200.479 2.70052 199.125 4.5625 198.49 6.4668C197.559 9.38672 197.03 12.7721 196.903 16.623L196.459 27.8584C195.909 41.0192 195.634 52.6989 195.634 62.8975C195.634 79.9938 196.417 90.8483 197.982 95.4609C198.279 96.3073 198.66 97.1536 199.125 98H179.13C180.272 95.7572 180.907 93.3451 181.034 90.7637C181.203 88.14 181.352 84.543 181.479 79.9727C181.986 64.9499 182.24 54.0107 182.24 47.1553C182.24 35.8564 182.134 27.4564 181.923 21.9551L158.563 98L146.186 59.0254L134.315 22.9072ZM258.222 98C258.772 95.334 259.047 93.2181 259.047 91.6523C259.047 90.0443 259.005 88.8382 258.92 88.0342C258.878 87.2301 258.793 86.3838 258.666 85.4951C258.581 84.5641 258.454 83.5485 258.285 82.4482C258.158 81.3057 258.031 79.9938 257.904 78.5127C256.931 68.3988 253.482 60.0833 247.558 53.5664C244.934 50.6888 242.099 48.5094 239.052 47.0283C236.005 45.5049 233.487 44.7432 231.498 44.7432C229.551 44.7432 228.049 44.8701 226.991 45.124C224.621 52.2334 223.437 59.6602 223.437 67.4043C223.437 74.2598 223.796 79.3802 224.516 82.7656C225.658 87.8438 227.414 92.943 229.784 98.0635H210.805C211.82 95.5244 212.328 90.1924 212.328 82.0674C212.328 73.9001 212.942 66.2829 214.169 59.2158C215.396 52.1064 216.983 45.7799 218.93 40.2363C220.919 34.6927 223.119 29.8473 225.531 25.7002C227.986 21.5107 230.419 17.8714 232.831 14.7822C235.285 11.6507 237.592 8.9847 239.75 6.78418C241.908 4.54134 243.707 2.57357 245.146 0.880859H265.141C263.321 2.95443 262.411 5.85319 262.411 9.57715C262.411 11.2699 262.686 14.0417 263.236 17.8926L264.823 29.4453C270.621 69.3932 275.805 92.2448 280.375 98H258.222ZM229.594 38.3955C231.244 37.7607 232.979 37.4434 234.799 37.4434C236.618 37.4434 238.248 37.5703 239.687 37.8242C241.168 38.0781 242.628 38.5013 244.066 39.0938C247.156 40.2786 249.737 42.1618 251.811 44.7432C249.737 33.8675 248.467 27.2236 248.002 24.8115L245.78 13.7031L242.162 18.0195C237.084 24.1133 232.895 30.9053 229.594 38.3955ZM303.163 28.874C303.078 33.2751 303.036 38.2897 303.036 43.918C303.036 51.916 303.184 61.0778 303.48 71.4033C303.777 81.6865 304.009 87.5475 304.179 88.9863C304.348 90.3828 304.56 91.61 304.813 92.668C305.237 94.403 305.893 96.1803 306.781 98H289.77C291.039 95.4186 291.801 92.9007 292.055 90.4463C292.351 87.9495 292.584 85.474 292.753 83.0195C293.091 78.026 293.261 71.3187 293.261 62.8975C293.261 52.6989 293.091 43.389 292.753 34.9678L292.055 17.5117C291.801 11.0794 290.785 6.50911 289.008 3.80078C288.288 2.78516 287.4 1.81185 286.342 0.880859H306.083C308.58 6.63607 311.225 12.349 314.018 18.0195L322.65 34.9043L341.186 68.9912C341.228 66.3252 341.249 63.4688 341.249 60.4219V50.5195C341.249 29.3607 339.958 14.084 337.377 4.68945C336.869 2.95443 336.319 1.6849 335.727 0.880859L354.833 0.817383C352.717 5.04915 351.384 16.9616 350.834 36.5547C350.749 39.6016 350.707 42.5215 350.707 45.3145L350.771 50.6465V76.5449C350.771 87.5052 350.855 94.6569 351.024 98H340.741L322.333 63.7227L303.163 28.874Z" fill="#DFDFDF"/>
<path d="M425.546 98C426.096 95.334 426.371 93.2181 426.371 91.6523C426.371 90.0443 426.329 88.8382 426.244 88.0342C426.202 87.2301 426.117 86.3838 425.99 85.4951C425.906 84.5641 425.779 83.5485 425.609 82.4482C425.482 81.3057 425.355 79.9938 425.229 78.5127C424.255 68.3988 420.806 60.0833 414.882 53.5664C412.258 50.6888 409.423 48.5094 406.376 47.0283C403.329 45.5049 400.811 44.7432 398.822 44.7432C396.876 44.7432 395.373 44.8701 394.315 45.124C391.946 52.2334 390.761 59.6602 390.761 67.4043C390.761 74.2598 391.12 79.3802 391.84 82.7656C392.982 87.8438 394.739 92.943 397.108 98.0635H378.129C379.145 95.5244 379.652 90.1924 379.652 82.0674C379.652 73.9001 380.266 66.2829 381.493 59.2158C382.72 52.1064 384.307 45.7799 386.254 40.2363C388.243 34.6927 390.443 29.8473 392.855 25.7002C395.31 21.5107 397.743 17.8714 400.155 14.7822C402.61 11.6507 404.916 8.9847 407.074 6.78418C409.232 4.54134 411.031 2.57357 412.47 0.880859H432.465C430.645 2.95443 429.735 5.85319 429.735 9.57715C429.735 11.2699 430.01 14.0417 430.561 17.8926L432.147 29.4453C437.945 69.3932 443.129 92.2448 447.699 98H425.546ZM396.918 38.3955C398.568 37.7607 400.303 37.4434 402.123 37.4434C403.943 37.4434 405.572 37.5703 407.011 37.8242C408.492 38.0781 409.952 38.5013 411.391 39.0938C414.48 40.2786 417.061 42.1618 419.135 44.7432C417.061 33.8675 415.792 27.2236 415.326 24.8115L413.104 13.7031L409.486 18.0195C404.408 24.1133 400.219 30.9053 396.918 38.3955ZM472.772 17.9561L472.836 81.1787C472.878 83.5908 473.153 85.4105 473.661 86.6377C474.169 87.8649 475.227 88.4785 476.835 88.4785C484.368 88.4785 490.229 83.6966 494.418 74.1328C498.48 64.8229 500.512 51.916 500.512 35.4121C500.512 26.737 499.496 20.1566 497.465 15.6709C494.714 9.61947 489.932 6.59375 483.119 6.59375C478.76 6.59375 476.073 7.10156 475.058 8.11719C474.084 9.13281 473.45 10.4023 473.153 11.9258C472.899 13.4069 472.772 15.417 472.772 17.9561ZM455.126 98C456.48 94.7839 457.263 92.0967 457.475 89.9385C457.729 87.7803 457.94 85.474 458.109 83.0195C458.448 78.026 458.617 71.3187 458.617 62.8975C458.617 52.6989 458.448 43.389 458.109 34.9678L457.411 17.5117C457.242 13.1107 456.861 10.0426 456.269 8.30762C455.338 5.55697 453.814 3.08138 451.698 0.880859H486.547C501.02 0.880859 510.478 6.57259 514.921 17.9561C516.487 21.9762 517.27 26.8428 517.27 32.5557C517.27 64.5055 506.436 84.8604 484.77 93.6201C477.449 96.5824 468.837 98.0635 458.935 98.0635C458.3 98.0635 457.665 98.0635 457.03 98.0635C456.396 98.0635 455.761 98.0423 455.126 98ZM581.317 74.5137C582.46 76.1641 583.031 78.153 583.031 80.4805C583.031 82.8079 582.862 84.818 582.523 86.5107C582.227 88.2035 581.804 89.8115 581.254 91.335C579.984 94.6781 578.376 96.8997 576.43 98H525.395C528.738 95.9264 530.917 94.1279 531.933 92.6045C533.879 89.7269 534.853 86.0029 534.853 81.4326C534.81 70.1761 534.789 59.9987 534.789 50.9004V17.6387C534.789 11.5026 533.773 6.99577 531.742 4.11816C531.023 3.06022 530.134 1.98112 529.076 0.880859H555.165C552.668 4.47786 551.251 8.18066 550.912 11.9893C550.827 13.2588 550.785 14.6553 550.785 16.1787V74.3232C550.785 82.2367 551.208 86.9762 552.055 88.542C552.901 90.0654 553.917 90.9753 555.102 91.2715C556.286 91.5254 558.085 91.6523 560.497 91.6523C562.909 91.6523 565.194 91.2292 567.353 90.3828C569.511 89.5365 571.436 88.3516 573.129 86.8281C576.007 84.2044 578.736 80.0996 581.317 74.5137ZM632.987 98C633.537 95.334 633.812 93.2181 633.812 91.6523C633.812 90.0443 633.77 88.8382 633.686 88.0342C633.643 87.2301 633.559 86.3838 633.432 85.4951C633.347 84.5641 633.22 83.5485 633.051 82.4482C632.924 81.3057 632.797 79.9938 632.67 78.5127C631.697 68.3988 628.248 60.0833 622.323 53.5664C619.7 50.6888 616.864 48.5094 613.817 47.0283C610.771 45.5049 608.253 44.7432 606.264 44.7432C604.317 44.7432 602.815 44.8701 601.757 45.124C599.387 52.2334 598.202 59.6602 598.202 67.4043C598.202 74.2598 598.562 79.3802 599.281 82.7656C600.424 87.8438 602.18 92.943 604.55 98.0635H585.57C586.586 95.5244 587.094 90.1924 587.094 82.0674C587.094 73.9001 587.707 66.2829 588.935 59.2158C590.162 52.1064 591.749 45.7799 593.695 40.2363C595.684 34.6927 597.885 29.8473 600.297 25.7002C602.751 21.5107 605.185 17.8714 607.597 14.7822C610.051 11.6507 612.357 8.9847 614.516 6.78418C616.674 4.54134 618.472 2.57357 619.911 0.880859H639.906C638.087 2.95443 637.177 5.85319 637.177 9.57715C637.177 11.2699 637.452 14.0417 638.002 17.8926L639.589 29.4453C645.386 69.3932 650.57 92.2448 655.141 98H632.987ZM604.359 38.3955C606.01 37.7607 607.745 37.4434 609.564 37.4434C611.384 37.4434 613.013 37.5703 614.452 37.8242C615.933 38.0781 617.393 38.5013 618.832 39.0938C621.921 40.2786 624.503 42.1618 626.576 44.7432C624.503 33.8675 623.233 27.2236 622.768 24.8115L620.546 13.7031L616.928 18.0195C611.85 24.1133 607.66 30.9053 604.359 38.3955ZM742.611 10.7197C742.611 6.61491 741.299 3.33529 738.676 0.880859H761.21C758.629 3.1237 756.534 6.25521 754.926 10.2754C754.376 11.6296 753.826 13.0895 753.275 14.6553C752.725 16.221 752.09 18.4427 751.371 21.3203L749.086 31.2227C748.197 35.0312 747.287 39.1784 746.356 43.6641C741.49 66.9388 738.739 79.9515 738.104 82.7021C737.512 85.4105 737.216 88.013 737.216 90.5098C737.216 92.9642 737.766 95.4821 738.866 98.0635L716.649 98C717.665 96.4342 718.257 94.9743 718.427 93.6201C718.638 92.2236 718.744 90.5309 718.744 88.542C718.744 86.5531 718.406 83.5908 717.729 79.6553C717.051 75.7197 716.163 71.234 715.062 66.1982L707.001 31.9209C700.569 60.2738 696.908 76.5026 696.02 80.6074C695.173 84.7122 694.75 87.9919 694.75 90.4463C694.75 92.9007 695.279 95.4398 696.337 98.0635L674.12 98C675.517 95.7572 676.215 92.7526 676.215 88.9863C676.215 82.7233 673.422 68.166 667.836 45.3145C662.038 21.3626 657.108 6.55143 653.046 0.880859H675.58C674.818 2.74284 674.438 4.98568 674.438 7.60938C674.438 10.1908 674.649 13.026 675.072 16.1152C675.538 19.2044 676.13 22.6956 676.85 26.5889C677.611 30.4821 678.458 34.6504 679.389 39.0938L688.021 77.0527C688.783 73.7943 689.587 70.1549 690.434 66.1348C692.803 54.6243 694.411 46.5628 695.258 41.9502L697.416 29.8262C698.686 22.3783 699.32 17.3424 699.32 14.7188C699.32 12.0951 699.151 9.57715 698.812 7.16504C698.516 4.75293 697.712 2.6582 696.4 0.880859H720.141C718.363 4.22396 717.475 8.05371 717.475 12.3701C717.475 15.5863 718.49 22.1032 720.521 31.9209L727.885 66.3887L730.551 77.8779L735.883 52.4873C736.771 47.917 737.618 43.4102 738.422 38.9668L740.58 26.6523C741.934 18.5697 742.611 13.2588 742.611 10.7197ZM809.325 98C809.875 95.334 810.15 93.2181 810.15 91.6523C810.15 90.0443 810.108 88.8382 810.023 88.0342C809.981 87.2301 809.896 86.3838 809.77 85.4951C809.685 84.5641 809.558 83.5485 809.389 82.4482C809.262 81.3057 809.135 79.9938 809.008 78.5127C808.035 68.3988 804.586 60.0833 798.661 53.5664C796.037 50.6888 793.202 48.5094 790.155 47.0283C787.108 45.5049 784.59 44.7432 782.602 44.7432C780.655 44.7432 779.153 44.8701 778.095 45.124C775.725 52.2334 774.54 59.6602 774.54 67.4043C774.54 74.2598 774.9 79.3802 775.619 82.7656C776.762 87.8438 778.518 92.943 780.888 98.0635H761.908C762.924 95.5244 763.432 90.1924 763.432 82.0674C763.432 73.9001 764.045 66.2829 765.272 59.2158C766.5 52.1064 768.087 45.7799 770.033 40.2363C772.022 34.6927 774.223 29.8473 776.635 25.7002C779.089 21.5107 781.522 17.8714 783.935 14.7822C786.389 11.6507 788.695 8.9847 790.854 6.78418C793.012 4.54134 794.81 2.57357 796.249 0.880859H816.244C814.424 2.95443 813.515 5.85319 813.515 9.57715C813.515 11.2699 813.79 14.0417 814.34 17.8926L815.927 29.4453C821.724 69.3932 826.908 92.2448 831.479 98H809.325ZM780.697 38.3955C782.348 37.7607 784.083 37.4434 785.902 37.4434C787.722 37.4434 789.351 37.5703 790.79 37.8242C792.271 38.0781 793.731 38.5013 795.17 39.0938C798.259 40.2786 800.84 42.1618 802.914 44.7432C800.84 33.8675 799.571 27.2236 799.105 24.8115L796.884 13.7031L793.266 18.0195C788.188 24.1133 783.998 30.9053 780.697 38.3955ZM854.267 28.874C854.182 33.2751 854.14 38.2897 854.14 43.918C854.14 51.916 854.288 61.0778 854.584 71.4033C854.88 81.6865 855.113 87.5475 855.282 88.9863C855.451 90.3828 855.663 91.61 855.917 92.668C856.34 94.403 856.996 96.1803 857.885 98H840.873C842.143 95.4186 842.904 92.9007 843.158 90.4463C843.454 87.9495 843.687 85.474 843.856 83.0195C844.195 78.026 844.364 71.3187 844.364 62.8975C844.364 52.6989 844.195 43.389 843.856 34.9678L843.158 17.5117C842.904 11.0794 841.889 6.50911 840.111 3.80078C839.392 2.78516 838.503 1.81185 837.445 0.880859H857.187C859.683 6.63607 862.328 12.349 865.121 18.0195L873.754 34.9043L892.289 68.9912C892.331 66.3252 892.353 63.4688 892.353 60.4219V50.5195C892.353 29.3607 891.062 14.084 888.48 4.68945C887.973 2.95443 887.423 1.6849 886.83 0.880859L905.937 0.817383C903.821 5.04915 902.488 16.9616 901.938 36.5547C901.853 39.6016 901.811 42.5215 901.811 45.3145L901.874 50.6465V76.5449C901.874 87.5052 901.959 94.6569 902.128 98H891.845L873.437 63.7227L854.267 28.874Z" fill="#B19D5F"/>
</svg>
