<svg width="700" height="700" viewBox="0 0 700 700" fill="none" xmlns="http://www.w3.org/2000/svg">
<path d="M526 126H174C147.5 126 126 147.5 126 174V526C126 552.5 147.5 574 174 574H526C552.5 574 574 552.5 574 526V174C574 147.5 552.5 126 526 126ZM253 478.5C247.5 488.1 235.2 491.3 225.7 485.8C216.1 480.3 212.9 468 218.4 458.5L232.7 433.8C248.8 428.9 262 432.7 272.3 445.2L253 478.5ZM391.9 424.6H210C199 424.6 190 415.6 190 404.6C190 393.6 199 384.6 210 384.6H261L326.4 271.4L305.9 236C300.4 226.4 303.7 214.2 313.2 208.7C322.8 203.2 335 206.5 340.5 216L349.4 231.4L358.3 216C363.8 206.4 376.1 203.2 385.6 208.7C395.2 214.2 398.4 226.5 392.9 236L307.1 384.6H369.2C389.4 384.6 400.7 408.3 391.9 424.6ZM490 424.6H461L480.6 458.5C486.1 468.1 482.8 480.3 473.3 485.8C463.7 491.3 451.5 488 446 478.5C413.1 421.6 388.5 378.8 372 350.4C355.3 321.4 367.2 292.4 379.1 282.6C392.2 305.3 411.8 339.3 438 384.6H490C501 384.6 510 393.6 510 404.6C510 415.7 501 424.6 490 424.6Z" fill="#0D2147" fill-opacity="0.8"/>
</svg>
