<svg width="1100" height="954" viewBox="0 0 1100 954" fill="none" xmlns="http://www.w3.org/2000/svg">
<path d="M0 15C0 6.71573 6.71573 0 15 0H1085C1093.28 0 1100 6.71573 1100 15V115C1100 123.284 1093.28 130 1085 130H15C6.71571 130 0 123.284 0 115V15Z" fill="#DFDFDF"/>
<path d="M0 427C0 418.716 6.71573 412 15 412H1085C1093.28 412 1100 418.716 1100 427V527C1100 535.284 1093.28 542 1085 542H15C6.71571 542 0 535.284 0 527V427Z" fill="#B19D5F"/>
<path d="M0 839C0 830.716 6.71573 824 15 824H1085C1093.28 824 1100 830.716 1100 839V939C1100 947.284 1093.28 954 1085 954H15C6.71571 954 0 947.284 0 939V839Z" fill="#DFDFDF"/>
</svg>
