<svg width="700" height="700" viewBox="0 0 700 700" fill="none" xmlns="http://www.w3.org/2000/svg">
<path d="M143 126C116.5 126 95 147.5 95 174V526C95 552.5 116.5 574 143 574H559C585.5 574 607 552.5 607 526V174C607 147.5 585.5 126 559 126H143ZM143 158H249C252.3 158 255 160.7 255 164V184C255 187.3 252.3 190 249 190H133C129.7 190 127 187.3 127 184V174C127 165.2 134.2 158 143 158ZM569 254H133C129.7 254 127 251.3 127 248V212C127 208.7 129.7 206 133 206H271L301.2 160.7C302.3 159 304.2 158 306.2 158H559C567.8 158 575 165.2 575 174V248C575 251.3 572.3 254 569 254ZM351 518C284.8 518 231 464.2 231 398C231 331.8 284.8 278 351 278C417.2 278 471 331.8 471 398C471 464.2 417.2 518 351 518ZM351 310C302.5 310 263 349.5 263 398C263 446.5 302.5 486 351 486C399.5 486 439 446.5 439 398C439 349.5 399.5 310 351 310ZM303 414C294.2 414 287 406.8 287 398C287 362.7 315.7 334 351 334C359.8 334 367 341.2 367 350C367 358.8 359.8 366 351 366C333.4 366 319 380.4 319 398C319 406.8 311.8 414 303 414Z" fill="#0D2147" fill-opacity="0.8"/>
</svg>
