<svg width="512" height="390" viewBox="0 0 512 390" fill="none" xmlns="http://www.w3.org/2000/svg">
<path d="M93.5931 149.142V277.491C93.5931 293.896 80.2296 307.26 63.8245 307.26H0.0488281V119.374H63.8245C80.2296 119.374 93.5931 132.787 93.5931 149.142Z" fill="#FFB789"/>
<path d="M327.903 127.7C280.632 127.7 242.287 166.045 242.287 213.316C242.287 260.587 280.632 298.932 327.903 298.932C375.173 298.932 413.518 260.587 413.518 213.316C413.518 166.045 375.223 127.7 327.903 127.7ZM327.903 240.841C312.744 240.841 300.378 228.574 300.378 213.316C300.378 198.157 312.744 185.791 327.903 185.791C343.111 185.791 355.427 198.157 355.427 213.316C355.427 228.574 343.161 240.841 327.903 240.841Z" fill="#FFB789"/>
<path d="M481.085 36.949H259.889V32.0125C259.889 22.7878 252.41 15.3082 243.185 15.3082H210.923C201.649 15.3082 194.169 22.7878 194.169 32.0125V36.949H162.855V16.7044C162.855 7.47958 155.375 0 146.15 0H83.4718C74.247 0 66.7176 7.47958 66.7176 16.7044V36.9989H30.8656C13.8621 36.9989 0 50.8111 0 67.8645V87.4609H63.7756C97.8325 87.4609 125.507 115.185 125.507 149.192V277.541C125.507 311.598 97.7826 339.272 63.7756 339.272H0.0498553V358.919C0.0498553 375.922 13.8621 389.684 30.9155 389.684H481.134C498.138 389.684 512 375.922 512 358.919V67.8146C511.95 50.8111 498.138 36.949 481.085 36.949ZM173.426 133.934C160.312 133.934 149.641 123.263 149.641 110.049C149.641 96.935 160.312 86.2642 173.426 86.2642C186.59 86.2642 197.311 96.935 197.311 110.049C197.311 123.213 186.64 133.934 173.426 133.934ZM327.903 346.154C254.554 346.154 195.116 286.666 195.116 213.317C195.116 139.967 254.554 80.5298 327.903 80.5298C401.253 80.5298 460.74 139.967 460.74 213.317C460.74 286.666 401.253 346.154 327.903 346.154Z" fill="#EBE9CD"/>
</svg>
