<svg width="512" height="384" viewBox="0 0 512 384" fill="none" xmlns="http://www.w3.org/2000/svg">
<path d="M499.986 112H440.116L423.476 70.4C406.376 27.63 365.566 0 319.496 0H192.496C146.436 0 105.616 27.63 88.5064 70.4L71.8664 112H12.0064C4.19636 112 -1.53364 119.34 0.366363 126.91L6.36636 150.91C7.69636 156.25 12.4964 160 18.0064 160H38.0764C24.6464 171.73 15.9964 188.78 15.9964 208V256C15.9964 272.12 22.1564 286.67 31.9964 297.93V352C31.9964 369.67 46.3264 384 63.9964 384H95.9964C113.666 384 127.996 369.67 127.996 352V320H383.996V352C383.996 369.67 398.326 384 415.996 384H447.996C465.666 384 479.996 369.67 479.996 352V297.93C489.836 286.68 495.996 272.13 495.996 256V208C495.996 188.78 487.346 171.73 473.926 160H493.996C499.506 160 504.306 156.25 505.636 150.91L511.636 126.91C513.526 119.34 507.796 112 499.986 112ZM147.926 94.17C155.216 75.95 172.866 64 192.496 64H319.496C339.126 64 356.776 75.95 364.066 94.17L383.996 144H127.996L147.926 94.17ZM95.9964 255.8C76.7964 255.8 63.9964 243.04 63.9964 223.9C63.9964 204.76 76.7964 192 95.9964 192C115.196 192 143.996 220.71 143.996 239.85C143.996 258.99 115.196 255.8 95.9964 255.8ZM415.996 255.8C396.796 255.8 367.996 258.99 367.996 239.85C367.996 220.71 396.796 192 415.996 192C435.196 192 447.996 204.76 447.996 223.9C447.996 243.04 435.196 255.8 415.996 255.8V255.8Z" fill="#EBE9CD"/>
</svg>
