<svg width="321" height="266" viewBox="0 0 321 266" fill="none" xmlns="http://www.w3.org/2000/svg">
<path d="M297.419 107.467L290.399 109.787L296.739 116.597C296.739 116.597 302.279 113.287 300.849 110.157L297.419 107.467Z" fill="#FFC3BD"/>
<path d="M285.59 116.067L291.09 121.367L296.75 116.607L290.4 109.797L285.59 116.067Z" fill="#FFC3BD"/>
<path d="M308.93 51.8867C309.64 53.1967 310.23 54.3667 310.82 55.6167C311.41 56.8467 311.97 58.0867 312.52 59.3367C313.59 61.8367 314.59 64.3867 315.47 66.9867C316.38 69.5767 317.13 72.2467 317.79 74.9667L318.26 77.0167L318.64 79.1167C318.78 79.8067 318.86 80.5367 318.95 81.2467L319.09 82.3167L319.12 82.5867L319.16 83.0367C319.19 83.3767 319.19 83.6767 319.19 83.9867C319.11 86.3867 318.5 87.9967 317.89 89.5167C317.26 91.0067 316.55 92.3167 315.81 93.5667C314.32 96.0567 312.68 98.2767 310.98 100.417C307.56 104.687 303.88 108.527 299.88 112.187L295.81 108.537C298.72 104.337 301.61 99.9867 304.21 95.6967C305.5 93.5467 306.71 91.3667 307.7 89.2367C308.19 88.1767 308.62 87.1267 308.91 86.1667C309.2 85.2367 309.34 84.2967 309.27 84.0567C309.26 84.0367 309.26 84.0167 309.25 84.0267C309.24 84.0067 309.26 84.0867 309.24 83.9867L309.19 83.7667L309 82.9067C308.87 82.3267 308.77 81.7567 308.6 81.1767L308.14 79.4367L307.62 77.6867C306.89 75.3567 306.08 73.0267 305.18 70.7067C304.27 68.3867 303.31 66.0767 302.29 63.7767C301.31 61.4967 300.17 59.1467 299.15 57.0367L308.93 51.8867Z" fill="#FF9E61"/>
<path d="M320.4 69.3769L306.79 76.5669L303.51 78.3069C303.51 78.3069 302.74 76.0569 301.65 72.7869C300.77 70.1769 299.67 66.9269 298.59 63.6369C298.25 62.5969 297.91 61.5669 297.58 60.5469C297.48 60.2569 297.38 59.9769 297.29 59.6869C294.35 50.6769 302.51 46.6369 308.06 47.7969C317.57 49.7869 320.4 69.3769 320.4 69.3769Z" fill="#9FC6FF"/>
<path d="M306.79 76.5672L303.51 78.3071C303.51 78.3071 302.74 76.0572 301.65 72.7872C300.77 70.1772 299.67 66.9271 298.59 63.6371C298.25 62.5971 297.91 61.5671 297.58 60.5471L305.08 59.0771C305.08 59.0771 306.11 70.9772 306.79 76.5672Z" fill="#77B3FC"/>
<path d="M297.23 27.1875C295.66 32.3875 293.66 42.0075 297.02 45.9075C297.02 45.9075 295.04 51.1475 285.18 50.1675C274.34 49.0875 280.54 44.2775 280.54 44.2775C286.6 43.4575 286.88 39.0475 286.26 34.8275L297.23 27.1875Z" fill="#FF9E61"/>
<path d="M278.43 46.1075C278.93 45.1475 278.22 41.5575 278.22 41.5575C278.22 41.5575 293.68 39.4775 299.21 41.4475C302.19 42.5075 299.57 47.8575 299.57 47.8575L278.43 46.1075Z" fill="#FFFBBC"/>
<path d="M278.75 19.317C278.69 19.897 278.33 20.347 277.95 20.307C277.57 20.267 277.3 19.767 277.36 19.177C277.42 18.597 277.78 18.147 278.16 18.187C278.54 18.227 278.81 18.727 278.75 19.317Z" fill="#0F264C"/>
<path d="M278.73 19.6074C278.73 19.6074 277.06 22.8474 275.44 24.3274C276.38 25.3974 278.18 25.1274 278.18 25.1274L278.73 19.6074Z" fill="#ED847E"/>
<path d="M280.99 17.3869C280.87 17.3869 280.76 17.3269 280.7 17.2169C279.9 15.9069 278.63 15.8469 278.61 15.8469C278.42 15.8369 278.27 15.6869 278.28 15.4869C278.28 15.2969 278.42 15.1369 278.63 15.1469C278.7 15.1469 280.29 15.2169 281.29 16.8469C281.39 17.0069 281.34 17.2269 281.17 17.3169C281.11 17.3669 281.05 17.3869 280.99 17.3869Z" fill="#0F264C"/>
<path d="M247.25 251.698L239.99 251.158L239.31 234.188L246.57 234.728L247.25 251.698Z" fill="#FF9E61"/>
<path d="M293.7 258.177H286.41L280.73 241.297H288.02L293.7 258.177Z" fill="#FF9E61"/>
<path d="M285.44 257.327H294.32C294.62 257.327 294.88 257.537 294.94 257.827L296.38 264.307C296.53 264.977 296 265.617 295.31 265.607C292.45 265.557 290.37 265.387 286.77 265.387C284.56 265.387 279.99 265.617 276.93 265.617C273.94 265.617 273.47 262.597 274.72 262.317C280.33 261.087 282.45 259.397 284.25 257.777C284.58 257.487 285 257.327 285.44 257.327Z" fill="#FFFBBC"/>
<path d="M239.64 249.527L247.57 250.117C247.87 250.137 248.11 250.367 248.15 250.657L249.11 257.227C249.21 257.907 248.65 258.507 247.97 258.437C245.11 258.177 240.99 257.697 237.39 257.437C233.18 257.127 230.38 256.977 225.45 256.607C222.47 256.387 221.86 253.307 223.13 253.127C228.91 252.307 232.71 252.627 237.84 249.967C238.41 249.677 239.01 249.487 239.64 249.527Z" fill="#FFFBBC"/>
<path d="M239.31 234.197L239.66 242.947L246.93 243.487L246.58 234.737L239.31 234.197Z" fill="#F29994"/>
<path d="M288.02 241.308H280.729L283.659 249.998H290.949L288.02 241.308Z" fill="#F29994"/>
<path d="M303.11 111.337C297.41 110.917 275.96 109.317 264.25 108.447C262.85 97.1073 262.6 87.2673 262.97 78.9673C263.13 75.4273 263.41 72.1673 263.75 69.1873C265.55 53.5973 269.35 45.6773 269.35 45.6773C269.35 45.6773 274.88 44.5873 280.67 44.4873C285.07 44.4173 292.25 45.1073 297.19 45.7173C303.52 46.4973 308.96 48.0373 308.96 48.0373C301.11 75.7173 303.82 105.387 303.11 111.337Z" fill="#9FC6FF"/>
<path d="M267.66 72.1775L262.97 78.9675C263.13 75.4275 263.41 72.1675 263.75 69.1875L267.66 72.1775Z" fill="#77B3FC"/>
<path d="M264.68 50.707C264.02 51.847 263.24 53.137 262.51 54.357C261.76 55.587 260.98 56.817 260.19 58.027C258.62 60.447 256.98 62.827 255.3 65.137C253.6 67.437 251.84 69.657 250 71.727C248.34 73.577 246.6 75.287 244.81 76.737C243.27 77.087 241.71 77.317 240.13 77.407C238.15 77.487 236.14 77.407 234.13 77.047C232.12 76.717 230.12 76.157 228.16 75.387C227.18 74.997 226.2 74.587 225.26 74.107C224.79 73.867 224.33 73.607 223.87 73.347C223.43 73.107 222.92 72.787 222.61 72.597L218.8 76.517C219.35 77.137 219.75 77.557 220.24 78.037C220.72 78.487 221.21 78.927 221.71 79.337C222.71 80.177 223.76 80.957 224.87 81.667C227.08 83.087 229.48 84.237 232.03 85.087C234.57 85.927 237.25 86.467 239.97 86.647C242.69 86.807 245.44 86.667 248.11 86.187L248.94 86.037L249.89 85.417C252.82 83.487 255.34 81.297 257.63 78.987C259.94 76.687 262.03 74.267 263.98 71.777C265.95 69.297 267.77 66.737 269.49 64.117C270.34 62.807 271.18 61.487 271.99 60.147C272.82 58.797 273.57 57.487 274.37 55.987L264.68 50.707Z" fill="#FF9E61"/>
<path d="M277.87 54.0574C277.35 61.0074 269.13 74.5274 269.13 74.5274L250.52 64.7474C250.52 64.7474 256.82 54.6174 263.71 48.5874C270.67 42.4874 278.44 46.4274 277.87 54.0574Z" fill="#9FC6FF"/>
<path d="M225.89 75.0071L220.45 70.2471L216.25 77.3871C216.25 77.3871 220.12 81.7271 224.67 78.9971L225.89 75.0071Z" fill="#FF9E61"/>
<path d="M212.88 67.0869L210 73.6569L216.26 77.3869L220.45 70.2469L212.88 67.0869Z" fill="#FF9E61"/>
<path d="M298.66 19.2671C297.51 26.4071 297.19 30.6471 293.2 33.9671C287.19 38.9671 278.65 34.7971 277.65 27.4571C276.75 20.8471 278.79 10.2871 286.1 8.12709C293.31 6.00709 299.81 12.1271 298.66 19.2671Z" fill="#FF9E61"/>
<path d="M306.74 15.5071C312.07 19.2471 299.36 32.9671 294.84 32.8171C290.32 32.6671 281.87 20.1271 284.63 13.4671C282.3 12.5171 281.55 12.2171 280.6 9.83708C278.89 5.52708 280.96 -1.66291 291.52 0.347091C288.9 2.12709 290.71 3.53709 295.69 2.84709C293.75 5.17709 296.97 6.90709 301.8 5.90709C300.97 10.1871 311.74 10.7971 306.74 15.5071Z" fill="#0F264C"/>
<path d="M288.61 21.4766C288.27 23.3966 287.07 24.9766 285.75 25.8766C283.75 27.2266 282 25.6166 281.92 23.3366C281.85 21.2866 282.8 18.1066 285.11 17.6666C287.38 17.2466 289 19.2866 288.61 21.4766Z" fill="#FF9E61"/>
<path d="M293.58 248.318H280.23C280.23 248.318 267.22 203.608 263.96 180.448C263.26 175.448 263.66 168.858 264.72 161.688C266.51 149.438 270.13 135.528 273.14 125.148C275.82 115.918 278.03 109.478 278.03 109.478C278.03 109.478 288.23 110.238 303.12 111.348C301.76 129.548 283.74 159.458 284.99 184.168C286.14 206.918 293.58 248.318 293.58 248.318Z" fill="#FFFBBC"/>
<path d="M279.78 130.407C279.64 142.527 271.12 155.917 264.72 161.687C266.51 149.437 270.13 135.527 273.14 125.147C275.01 124.767 278.22 128.317 279.78 130.407Z" fill="#0A1B35"/>
<path d="M264.25 108.447C264.25 108.447 232.77 156.067 231.91 178.287C231.02 201.397 237.05 241.057 237.05 241.057L249.36 241.977C249.36 241.977 250.79 204.257 253.02 181.667C255.45 157.037 291 129.587 292.42 110.547C280.41 109.647 264.25 108.447 264.25 108.447Z" fill="#FFFBBC"/>
<path d="M277.87 248.607H295.32V243.907L275.82 243.607L277.87 248.607Z" fill="#0053CC"/>
<path d="M234.59 241.127L251.68 242.437L252.04 237.697L232.91 235.987L234.59 241.127Z" fill="#0053CC"/>
<path d="M283.03 258.607C282.48 258.607 281.96 258.517 281.63 258.237C281.37 258.017 281.25 257.707 281.27 257.327C281.29 257.037 281.44 256.907 281.56 256.837C282.37 256.427 284.72 257.867 284.98 258.037C285.04 258.077 285.07 258.147 285.06 258.207C285.05 258.277 285 258.327 284.93 258.347C284.43 258.467 283.7 258.607 283.03 258.607ZM281.95 257.097C281.86 257.097 281.78 257.107 281.73 257.137C281.68 257.157 281.63 257.207 281.62 257.337C281.6 257.607 281.68 257.817 281.85 257.967C282.25 258.307 283.2 258.347 284.44 258.097C283.61 257.627 282.5 257.097 281.95 257.097Z" fill="#E9E04D"/>
<path d="M284.89 258.347C284.86 258.347 284.83 258.337 284.81 258.327C284.06 257.917 282.6 256.317 282.75 255.507C282.78 255.357 282.89 255.107 283.3 255.057C283.57 255.017 283.82 255.097 284.04 255.277C284.89 255.967 285.06 258.067 285.07 258.157C285.07 258.217 285.05 258.277 284.99 258.317C284.96 258.337 284.93 258.347 284.89 258.347ZM283.42 255.387C283.39 255.387 283.37 255.387 283.34 255.387C283.12 255.417 283.1 255.517 283.09 255.557C283 256.037 283.93 257.247 284.68 257.807C284.6 257.197 284.36 255.967 283.82 255.527C283.7 255.437 283.57 255.387 283.42 255.387Z" fill="#E9E04D"/>
<path d="M237.15 250.597C236.2 250.597 235.24 250.467 234.79 249.997C234.57 249.767 234.48 249.477 234.53 249.137C234.56 248.937 234.67 248.777 234.85 248.697C235.77 248.277 238.58 249.967 238.9 250.167C238.96 250.207 238.99 250.277 238.98 250.347C238.96 250.417 238.9 250.477 238.83 250.477C238.36 250.547 237.76 250.597 237.15 250.597ZM235.23 248.967C235.13 248.967 235.05 248.977 234.99 249.007C234.92 249.037 234.88 249.097 234.87 249.177C234.83 249.407 234.89 249.597 235.04 249.747C235.46 250.177 236.65 250.337 238.27 250.187C237.26 249.617 235.9 248.967 235.23 248.967Z" fill="#E9E04D"/>
<path d="M238.81 250.487C238.78 250.487 238.75 250.477 238.73 250.467C237.88 250.007 236.26 248.307 236.46 247.497C236.51 247.307 236.66 247.077 237.14 247.067C237.5 247.067 237.81 247.177 238.07 247.437C238.94 248.267 238.99 250.237 238.99 250.317C238.99 250.377 238.96 250.437 238.91 250.467C238.87 250.477 238.84 250.487 238.81 250.487ZM237.17 247.407C237.16 247.407 237.15 247.407 237.14 247.407C236.83 247.417 236.8 247.537 236.79 247.577C236.67 248.067 237.76 249.387 238.62 249.987C238.57 249.407 238.4 248.217 237.83 247.677C237.63 247.497 237.42 247.407 237.17 247.407Z" fill="#E9E04D"/>
<path fill-rule="evenodd" clip-rule="evenodd" d="M0 39.0773L215.457 25L229.241 235.966L13.7839 250.043L0 39.0773ZM5.97852 45.4592L210.358 32.1056L223.702 236.326L19.3217 249.679L5.97852 45.4592Z" fill="#EBE9CD"/>
<path d="M229.024 232.996L229.214 235.966L120.644 243.056L142.574 218.076L172.774 183.636L229.024 232.996Z" fill="#EBE9CD"/>
<path d="M13.7634 250.035L12.4434 229.766L74.8334 158.646L167.553 239.996L13.7634 250.035Z" fill="#EBE9CD"/>
<path d="M171.04 120.814C183.951 107.904 183.951 86.9714 171.04 74.0608C158.13 61.1502 137.197 61.1502 124.287 74.0608C111.376 86.9714 111.376 107.904 124.287 120.814C137.197 133.725 158.13 133.725 171.04 120.814Z" fill="#FF9E61"/>
</svg>
