<svg width="80" height="80" viewBox="0 0 80 80" fill="none" xmlns="http://www.w3.org/2000/svg">
<g clip-path="url(#clip0)">
<path fill-rule="evenodd" clip-rule="evenodd" d="M18.8235 10C13.9504 10 10 13.9504 10 18.8235V61.1765C10 66.0496 13.9504 70 18.8235 70H61.1765C66.0496 70 70 66.0496 70 61.1765V18.8235C70 13.9504 66.0496 10 61.1765 10H18.8235ZM34.7593 29.2342H32.7344L24.1176 49.4118H27.0617L29.5893 43.4662H38.1198L40.791 49.4118H43.7351L34.7593 29.2342ZM33.7109 33.6432L36.9422 40.9099H30.7095L33.7109 33.6432ZM46.6728 43.0354H55.9645V42.7051C55.9645 40.6466 55.4427 39.0046 54.3991 37.7792C53.3555 36.5537 51.9577 35.9409 50.2056 35.9409C48.3866 35.9409 46.9074 36.5728 45.7681 37.8366C44.6287 39.0908 44.0591 40.7232 44.0591 42.7338C44.0591 44.0742 44.3271 45.2566 44.8633 46.281C45.409 47.2959 46.1319 48.1049 47.0318 48.7081C47.9318 49.3112 49.1094 49.6128 50.5647 49.6128C51.6274 49.6128 52.5513 49.4979 53.3364 49.2682C54.1311 49.0384 54.9305 48.6554 55.7347 48.1192V45.5629C54.2795 46.6352 52.6901 47.1714 50.9668 47.1714C49.7317 47.1714 48.7217 46.798 47.9366 46.0512C47.1611 45.3045 46.7398 44.2992 46.6728 43.0354ZM53.3795 41.47H46.7302C46.9122 40.4264 47.2999 39.6222 47.8935 39.0574C48.4966 38.4925 49.2674 38.21 50.2056 38.21C51.1439 38.21 51.8907 38.4925 52.446 39.0574C53.0013 39.6222 53.3125 40.4264 53.3795 41.47Z" fill="#EBE9CD"/>
<path d="M61.1766 11.4707H18.8236C14.7627 11.4707 11.4707 14.7627 11.4707 18.8236V61.1766C11.4707 65.2375 14.7627 68.5295 18.8236 68.5295H61.1766C65.2375 68.5295 68.5295 65.2375 68.5295 61.1766V18.8236C68.5295 14.7627 65.2375 11.4707 61.1766 11.4707Z" stroke="#B1B097" stroke-width="3"/>
</g>
<defs>
<clipPath id="clip0">
<rect width="60" height="60" fill="white" transform="translate(10 10)"/>
</clipPath>
</defs>
</svg>
