<svg width="80" height="80" viewBox="0 0 80 80" fill="none" xmlns="http://www.w3.org/2000/svg">
<path d="M15.6637 30H19.2183V46.454C17.3949 46.8002 16.0561 46.9389 14.6018 46.9389C10.2621 46.9386 8 44.9768 8 41.2142C8 37.5901 10.4007 35.2358 14.1169 35.2358C14.694 35.2358 15.1325 35.2819 15.6637 35.4203V30ZM15.6637 38.2824C15.2482 38.1441 14.902 38.0979 14.4633 38.0979C12.6628 38.0979 11.624 39.2059 11.624 41.1448C11.624 43.0377 12.6167 44.0764 14.4402 44.0764C14.8326 44.0764 15.1559 44.0534 15.6637 43.9842V38.2824Z" fill="#EBE9CD"/>
<path d="M24.8733 35.4897V43.7301C24.8733 46.5694 24.6655 47.9313 24.0424 49.1085C23.4653 50.2398 22.7034 50.9551 21.1339 51.7402L17.833 50.1705C19.4027 49.4318 20.1644 48.7856 20.6491 47.7927C21.157 46.7773 21.3187 45.5999 21.3187 42.5068V35.4897H24.8733ZM21.3187 30.019H24.8733V33.6662H21.3187V30.019ZM27.0205 36.2976C28.5903 35.5591 30.0906 35.236 31.7295 35.236C33.553 35.236 34.7533 35.7205 35.2843 36.667C35.5842 37.1979 35.6765 37.8903 35.6765 39.3678V46.5925C34.0836 46.8233 32.0756 46.985 30.5984 46.985C27.6207 46.985 26.2817 45.9459 26.2817 43.6378C26.2817 41.1446 28.0591 39.9905 32.4218 39.6211V38.8363C32.4218 38.1901 32.0986 37.9594 31.1983 37.9594C29.8827 37.9594 28.4054 38.3287 27.0202 39.0444L27.0205 36.2976V36.2976ZM32.5836 41.9529C30.2291 42.1837 29.4672 42.553 29.4672 43.4764C29.4672 44.1687 29.9059 44.4918 30.8753 44.4918C31.4064 44.4918 31.8909 44.4458 32.5835 44.3304L32.5836 41.9529ZM37.4079 36.0437C39.5083 35.4897 41.2395 35.236 42.9938 35.236C44.8174 35.236 46.1332 35.6513 46.9182 36.4593C47.6568 37.2208 47.8875 38.0517 47.8875 39.8294V46.8002H44.3327V39.9679C44.3327 38.6061 43.8711 38.098 42.6016 38.098C42.1169 38.098 41.6784 38.1442 40.9625 38.3519V46.8002H37.4079V36.0437ZM49.2694 48.7392C50.516 49.3856 51.7624 49.6854 53.0781 49.6854C55.4091 49.6854 56.4017 48.7392 56.4017 46.4769V46.4077C55.7095 46.7538 55.0167 46.8924 54.0936 46.8924C50.9774 46.8924 48.9919 44.838 48.9919 41.5836C48.9919 37.5438 51.9237 35.2588 57.1171 35.2588C58.6406 35.2588 60.0489 35.4202 61.7569 35.7664L60.5397 38.3305C59.5933 38.1458 60.4639 38.3058 59.7487 38.2365V38.606L59.7947 40.1061L59.8176 42.0452C59.8407 42.5298 59.8407 43.0146 59.8639 43.4993V44.469C59.8639 47.5159 59.61 48.9469 58.8485 50.1242C57.7404 51.8556 55.8244 52.7094 53.1007 52.7094C51.7157 52.7094 50.5158 52.5017 49.2691 52.017L49.2694 48.7392V48.7392ZM56.3328 38.1211H55.9636C55.2714 38.098 54.4635 38.2825 53.9093 38.6288C53.0554 39.1136 52.6164 39.9908 52.6164 41.2372C52.6164 43.0148 53.494 44.0303 55.0635 44.0303C55.5482 44.0303 55.9407 43.9379 56.402 43.7995V42.5762C56.402 42.1606 56.3793 41.6987 56.3793 41.2143L56.3563 39.5755L56.3331 38.3982L56.3328 38.1211V38.1211ZM67.2756 35.1897C70.8303 35.1897 73.0002 37.4288 73.0002 41.0527C73.0002 44.7692 70.7382 47.1006 67.1371 47.1006C63.5822 47.1006 61.3892 44.8614 61.3892 41.2606C61.3895 37.5209 63.6517 35.1897 67.2756 35.1897V35.1897ZM67.2061 44.2381C68.568 44.2381 69.376 43.1069 69.376 41.1449C69.376 39.2061 68.5911 38.0519 67.2295 38.0519C65.8212 38.0519 65.0131 39.1831 65.0131 41.1449C65.0134 43.1071 65.8214 44.2381 67.2061 44.2381V44.2381Z" fill="#EBE9CD"/>
</svg>
