<svg width="80" height="80" viewBox="0 0 80 80" fill="none" xmlns="http://www.w3.org/2000/svg">
<path d="M69 55.2116C66.9266 55.7388 65.6441 55.2348 64.4934 53.5069L56.3104 42.1853L55.1276 40.6178L45.5712 53.5443C44.4793 55.0994 43.334 55.7763 41.2962 55.2258L53.5334 38.7992L42.1405 23.9613C44.0999 23.5802 45.4537 23.7743 46.656 25.5288L55.1437 36.9912L63.6937 25.5912C64.7891 24.0362 65.9665 23.4448 67.933 24.0183L63.5155 29.8751L57.5305 37.6681C56.818 38.5587 56.916 39.1679 57.5715 40.0282L69 55.2116ZM12.0143 38.5249L13.0153 33.6015C15.7406 23.858 26.9091 19.8093 34.6112 25.8299C39.1124 29.371 40.231 34.3799 40.0084 39.9908H14.6363C14.2551 50.0905 21.5243 56.1859 30.7922 53.0759C34.043 51.984 35.9578 49.4386 36.9161 46.2537C37.4024 44.6577 38.2075 44.4083 39.7073 44.8643C38.9414 48.8472 37.2136 52.1746 33.562 54.2569C28.1061 57.374 20.3184 56.3658 16.2216 52.0338C13.7812 49.5205 12.7731 46.3356 12.3206 42.9299C12.2494 42.367 12.1069 41.8308 12 41.2911C12.0095 40.3696 12.0143 39.4481 12.0143 38.5266V38.5249ZM14.6826 37.848H37.6108C37.4612 30.5448 32.9137 25.3578 26.6989 25.3133C19.8767 25.2599 14.9783 30.324 14.6826 37.848V37.848Z" fill="#EBE9CD"/>
</svg>
