<svg width="80" height="80" viewBox="0 0 80 80" fill="none" xmlns="http://www.w3.org/2000/svg">
<path d="M51.5014 32.0037C54.0206 32.0037 56.4366 31.0026 58.2179 29.2207C59.9993 27.4387 61 25.0219 61 22.5019C61 19.9818 59.9993 17.565 58.2179 15.783C56.4366 14.0011 54.0206 13 51.5014 13L32.5042 13C29.9865 13 27.5719 14.0005 25.7916 15.7814C24.0113 17.5623 23.0111 19.9777 23.0111 22.4963C23.0111 25.0149 24.0113 27.4303 25.7916 29.2112C27.5719 30.9921 29.9865 31.9926 32.5042 31.9926C29.985 31.9926 27.569 32.9937 25.7876 34.7756C24.0063 36.5576 23.0056 38.9744 23.0056 41.4944C23.0056 44.0145 24.0063 46.4313 25.7876 48.2133C27.569 49.9952 29.985 50.9963 32.5042 50.9963C30.6255 50.9952 28.7887 51.5514 27.2261 52.5945C25.6634 53.6377 24.4451 55.121 23.7252 56.8568C23.0052 58.5926 22.816 60.503 23.1814 62.3464C23.5469 64.1898 24.4505 65.8834 25.7781 67.213C27.1058 68.5427 28.7977 69.4486 30.6401 69.8163C32.4824 70.184 34.3924 69.997 36.1284 69.2788C37.8645 68.5607 39.3487 67.3437 40.3933 65.7817C41.438 64.2198 41.9961 62.383 41.9972 60.5037V32.0037H51.5014ZM51.5014 32.0037C49.6238 32.0037 47.7885 32.5607 46.2273 33.6041C44.6662 34.6476 43.4495 36.1307 42.731 37.8659C42.0125 39.6011 41.8245 41.5105 42.1908 43.3526C42.557 45.1947 43.4612 46.8868 44.7888 48.2149C46.1164 49.543 47.8079 50.4474 49.6494 50.8138C51.4909 51.1802 53.3996 50.9922 55.1342 50.2734C56.8688 49.5547 58.3515 48.3375 59.3946 46.7759C60.4377 45.2142 60.9944 43.3782 60.9944 41.5C60.9941 38.9815 59.9939 36.5663 58.2137 34.7854C56.4334 33.0046 54.019 32.004 51.5014 32.0037Z" fill="#EBE9CD"/>
</svg>
