<svg width="80" height="80" viewBox="0 0 80 80" fill="none" xmlns="http://www.w3.org/2000/svg">
<path d="M19 57.8163L19.3512 57.3253L35.9615 25.808L35.9965 25.4743L28.6741 11.7211C28.0608 10.569 26.3335 10.8598 26.1317 12.1501L19 57.8163Z" fill="#EBE9CD"/>
<path d="M41.3344 35.876L46.7864 30.2921L41.3328 19.8822C40.8148 18.897 39.3703 18.8938 38.8571 19.8822L35.9443 25.4391V25.9126L41.3344 35.876Z" fill="#EBE9CD" fill-opacity="0.86"/>
<path d="M19 57.8163L19.1589 57.6558L19.7373 57.4206L40.9909 36.2449L41.261 35.5124L35.9584 25.4092L19 57.8163Z" fill="#CBC899"/>
<path d="M42.0142 68.495L61.2497 57.7673L55.7564 23.938C55.5847 22.8796 54.2865 22.4617 53.5285 23.2197L19 57.8165L38.1242 68.495C39.3335 69.1687 40.805 69.1687 42.0142 68.495Z" fill="#EBE9CD"/>
<path d="M61.0781 57.6763L55.6276 24.1044C55.4576 23.0541 54.377 22.6187 53.6254 23.3719L19.2129 57.7494L38.1274 68.3214C39.3271 68.9904 40.7874 68.992 41.9872 68.323L61.0781 57.6763Z" fill="#EBE9CD"/>
<path d="M42.0142 68.1787C40.805 68.8525 39.3335 68.8525 38.1242 68.1771L19.1541 57.6528L19 57.8149L38.1242 68.4933C39.3335 69.1687 40.805 69.1687 42.0142 68.4949L61.2497 57.7672L61.202 57.478L42.0142 68.1787Z" fill="#EBE9CD"/>
</svg>
