<svg width="80" height="80" viewBox="0 0 80 80" fill="none" xmlns="http://www.w3.org/2000/svg">
<path d="M57.013 54.9308H58.2308C58.2308 58.4207 57.6509 60.9953 56.433 62.5972C55.3311 64.1991 53.8812 65 52.0834 65C50.6915 65 49.2996 64.4854 48.0238 63.4555C46.6899 62.3685 45.53 59.5077 44.4862 54.9308L41.5284 41.8867L31.4375 64.5426H25L39.5566 33.6483C38.7447 29.6436 37.8167 26.6686 36.7728 24.7807C35.6709 22.8355 34.3372 21.8628 32.7133 21.8628C31.4375 21.8628 30.2776 22.3778 29.2917 23.3504C28.3638 24.323 27.8417 25.8104 27.7257 27.8699H26.5079C26.5659 24.5517 27.2038 21.9199 28.4797 19.9748C29.7556 17.9724 31.3215 17 33.2352 17C34.4531 17 35.6131 17.5146 36.715 18.4872C37.8168 19.4598 38.8027 21.1762 39.5566 23.5791C40.3686 25.982 41.6444 30.9593 43.3262 38.5112L45.7621 49.1527C46.7479 53.558 47.7338 56.4756 48.8358 57.9631C49.8797 59.4506 51.2135 60.1945 52.6634 60.1945C55.2151 60.1945 56.665 58.4207 57.013 54.9308Z" fill="#EBE9CD"/>
</svg>
