<svg width="80" height="80" viewBox="0 0 80 80" fill="none" xmlns="http://www.w3.org/2000/svg">
<path d="M71.7739 36.6055L43.4018 8.22554C42.6163 7.4408 41.5515 7 40.4412 7C39.331 7 38.2661 7.4408 37.4807 8.22554L31.5814 14.1206L39.0564 21.5957C42.9825 20.2696 46.6996 24.0289 45.3518 27.9334L52.5569 35.1386C57.5233 33.4265 61.4334 39.6365 57.7032 43.3639C53.8598 47.2073 47.5165 42.9474 49.5782 37.9461L42.8533 31.2298V48.9093C46.5241 50.7287 46.083 54.9814 44.1707 56.8893C43.2365 57.8231 41.9696 58.3476 40.6487 58.3476C39.3278 58.3476 38.061 57.8231 37.1267 56.8893C34.5775 54.3357 35.5206 50.0831 38.7589 48.7642V30.9179C35.7411 29.6832 35.1897 26.4578 36.0545 24.3888L28.6854 17.0108L9.22612 36.4735C8.44104 37.2587 8 38.3236 8 39.434C8 40.5445 8.44104 41.6094 9.22612 42.3946L37.6069 70.7746C38.3921 71.5592 39.4567 72 40.5667 72C41.6768 72 42.7414 71.5592 43.5266 70.7746L71.7739 42.5267C72.559 41.7414 73 40.6765 73 39.5661C73 38.4557 72.559 37.3907 71.7739 36.6055V36.6055Z" fill="#EBE9CD"/>
</svg>
