<svg width="80" height="80" viewBox="0 0 80 80" fill="none" xmlns="http://www.w3.org/2000/svg">
<path d="M39.954 13C25.5965 13 14 24.5965 14 38.954C14 50.4584 21.4549 60.1221 31.7628 63.6195C33.0513 63.8956 33.5115 63.0673 33.5115 62.331C33.5115 61.6867 33.5115 59.6619 33.5115 57.5451C26.3327 59.1097 24.7681 54.508 24.7681 54.508C23.5717 51.4708 21.915 50.7345 21.915 50.7345C19.5221 49.0779 22.0991 49.1699 22.0991 49.1699C24.6761 49.354 26.0566 51.8389 26.0566 51.8389C28.3575 55.7965 32.131 54.692 33.6035 53.9558C33.8796 52.2991 34.5239 51.1027 35.2602 50.4584C29.4619 49.7221 23.3876 47.5133 23.3876 37.5735C23.3876 34.7204 24.4 32.4195 26.0566 30.5788C25.7805 29.9345 24.8602 27.2655 26.3327 23.6761C26.3327 23.6761 28.5416 22.9398 33.5115 26.3451C35.5363 25.7929 37.8372 25.5168 40.046 25.5168C42.2549 25.5168 44.4637 25.7929 46.5805 26.3451C51.5504 23.0319 53.6673 23.6761 53.6673 23.6761C55.0478 27.2655 54.2195 29.9345 53.9434 30.5788C55.6 32.4195 56.6124 34.7204 56.6124 37.5735C56.6124 47.5133 50.5381 49.7221 44.7398 50.3664C45.6602 51.1947 46.4885 52.7593 46.4885 55.1522C46.4885 58.6496 46.4885 61.4106 46.4885 62.2389C46.4885 62.9752 46.9487 63.7115 48.2372 63.5274C58.5451 60.1221 66 50.3664 66 38.954C65.908 24.5965 54.3115 13 39.954 13Z" fill="#EBE9CD"/>
</svg>
