<svg width="80" height="80" viewBox="0 0 80 80" fill="none" xmlns="http://www.w3.org/2000/svg">
<g clip-path="url(#clip0)">
<path fill-rule="evenodd" clip-rule="evenodd" d="M45.155 18.5277L56.8445 25.2858C57.182 24.9283 57.5693 24.6214 57.9944 24.3747C60.4186 22.9792 63.5109 23.8078 64.919 26.2354C66.3128 28.663 65.4853 31.7591 63.0608 33.1691C62.6389 33.4124 62.1842 33.5936 61.7108 33.7073V47.2287C62.1791 47.3425 62.6288 47.5226 63.0464 47.7634C65.4853 49.1734 66.3128 52.2697 64.9046 54.6973C63.5109 57.1247 60.4042 57.9533 57.9798 56.5579C57.5101 56.2881 57.087 55.9441 56.7267 55.5393L45.1083 62.2559C45.2785 62.7718 45.3649 63.3117 45.3643 63.855C45.3643 66.6459 43.0997 68.9282 40.2978 68.9282C37.4959 68.9282 35.2313 66.6603 35.2313 63.855C35.2313 63.3563 35.3029 62.8746 35.4363 62.4196L23.7499 55.6634C23.4161 56.0139 23.0343 56.315 22.6159 56.5579C20.177 57.9533 17.0847 57.1247 15.691 54.6973C14.2974 52.2697 15.125 49.1734 17.5492 47.7634C17.9668 47.5225 18.4165 47.3424 18.8848 47.2285V33.7073C18.4114 33.5936 17.9567 33.4124 17.5348 33.1691C15.1103 31.7737 14.2828 28.663 15.6766 26.2354C17.0703 23.8078 20.1768 22.9792 22.6012 24.3747C23.024 24.6201 23.4094 24.925 23.7456 25.2801L35.4385 18.5201C35.3006 18.0517 35.2309 17.5658 35.2313 17.0775C35.2313 14.2723 37.4959 12.0044 40.2978 12.0044C43.0997 12.0044 45.3643 14.2721 45.3643 17.0775C45.3643 17.5817 45.2911 18.0684 45.155 18.5277ZM43.9371 20.6099L55.6545 27.3839C55.4679 28.037 55.4144 28.721 55.4972 29.3952C55.5799 30.0694 55.7972 30.72 56.1362 31.3084C56.8495 32.5508 58.0114 33.3745 59.301 33.6955V47.2336C59.2352 47.2496 59.1697 47.2672 59.1047 47.2858L43.801 20.7455C43.8472 20.7012 43.8927 20.656 43.9371 20.6101V20.6099ZM36.7978 20.7485L21.4943 47.2884C21.4281 47.2693 21.3615 47.2514 21.2946 47.235V33.6955C22.5842 33.3745 23.7462 32.5508 24.4594 31.3084C24.7991 30.7189 25.0166 30.0669 25.099 29.3913C25.1814 28.7158 25.127 28.0305 24.9391 27.3764L36.6531 20.6044C36.7004 20.6533 36.7486 20.7014 36.7978 20.7483V20.7485ZM41.7135 21.9507L57.0135 48.4847C56.663 48.8196 56.3626 49.2033 56.1215 49.624C55.8811 50.0422 55.7013 50.4925 55.5875 50.9614H25.0085C24.8946 50.4925 24.7146 50.0422 24.4741 49.624C24.2322 49.2062 23.9323 48.8248 23.5835 48.4912L38.8865 21.9519C39.3453 22.0842 39.8204 22.151 40.2978 22.1506C40.7893 22.1506 41.2643 22.0809 41.7135 21.9507ZM44.0446 60.4373L55.686 53.7072C55.6511 53.5973 55.6199 53.4863 55.5925 53.3743H25.002C24.9857 53.4402 24.9682 53.5055 24.9494 53.5707L36.6476 60.3338C37.12 59.8419 37.6869 59.4509 38.3143 59.1842C38.9416 58.9174 39.6163 58.7806 40.2978 58.7819C41.0031 58.7806 41.7009 58.9273 42.3462 59.2124C42.9916 59.4975 43.5701 59.9148 44.0446 60.4373V60.4373Z" fill="#EBE9CD"/>
</g>
<defs>
<clipPath id="clip0">
<rect width="50.5955" height="57" fill="white" transform="translate(15 12)"/>
</clipPath>
</defs>
</svg>
