<svg width="80" height="80" viewBox="0 0 80 80" fill="none" xmlns="http://www.w3.org/2000/svg">
<g clip-path="url(#clip0)">
<path fill-rule="evenodd" clip-rule="evenodd" d="M18.8235 10C13.9504 10 10 13.9504 10 18.8235V61.1765C10 66.0496 13.9504 70 18.8235 70H61.1765C66.0496 70 70 66.0496 70 61.1765V18.8235C70 13.9504 66.0496 10 61.1765 10H18.8235ZM37.7005 29.2342H35.6755L27.0588 49.4118H30.0029L32.5305 43.4662H41.061L43.7322 49.4118H46.6762L37.7005 29.2342ZM36.6521 33.6432L39.8834 40.9099H33.6506L36.6521 33.6432ZM50.1022 31.0869C49.7959 30.7901 49.4273 30.6416 48.9964 30.6416C48.5944 30.6416 48.2401 30.7996 47.9337 31.1156C47.6274 31.4219 47.4742 31.7762 47.4742 32.1783C47.4742 32.59 47.6274 32.9538 47.9337 33.2698C48.2401 33.5761 48.5944 33.7293 48.9964 33.7293C49.4273 33.7293 49.7959 33.5761 50.1022 33.2698C50.4086 32.9634 50.5618 32.5996 50.5618 32.1783C50.5618 31.7475 50.4086 31.3836 50.1022 31.0869ZM50.3176 36.1995H47.7039V49.4118H50.3176V36.1995Z" fill="#EBE9CD"/>
<path d="M61.1766 11.4707H18.8236C14.7627 11.4707 11.4707 14.7627 11.4707 18.8236V61.1766C11.4707 65.2375 14.7627 68.5295 18.8236 68.5295H61.1766C65.2375 68.5295 68.5295 65.2375 68.5295 61.1766V18.8236C68.5295 14.7627 65.2375 11.4707 61.1766 11.4707Z" stroke="#B1B097" stroke-width="3"/>
</g>
<defs>
<clipPath id="clip0">
<rect width="60" height="60" fill="white" transform="translate(10 10)"/>
</clipPath>
</defs>
</svg>
