<svg width="80" height="80" viewBox="0 0 80 80" fill="none" xmlns="http://www.w3.org/2000/svg">
<path d="M62.8929 11H18.1071C14.7355 11 12 13.7355 12 17.1071V61.8929C12 65.2645 14.7355 68 18.1071 68H62.8929C66.2645 68 69 65.2645 69 61.8929V17.1071C69 13.7355 66.2645 11 62.8929 11ZM43.0192 55.4549C43.0192 61.0022 39.7621 63.5342 35.0163 63.5342C30.7286 63.5342 28.2475 61.3203 26.9752 58.6357L31.3393 56.002C32.179 57.4906 32.9424 58.7502 34.7873 58.7502C36.5431 58.7502 37.6627 58.0632 37.6627 55.3786V37.1717H43.0192V55.4549V55.4549ZM55.6915 63.5342C50.7167 63.5342 47.4978 61.1676 45.9328 58.0632L50.2969 55.544C51.442 57.4143 52.9433 58.8011 55.577 58.8011C57.7909 58.8011 59.2159 57.6942 59.2159 56.1547C59.2159 54.3225 57.7654 53.6737 55.3098 52.5922L53.9739 52.0196C50.106 50.3783 47.5487 48.3045 47.5487 43.9404C47.5487 39.9199 50.615 36.8663 55.3862 36.8663C58.796 36.8663 61.2388 38.0496 62.9946 41.154L58.8214 43.8259C57.9054 42.1846 56.9129 41.5357 55.3734 41.5357C53.8085 41.5357 52.8161 42.5281 52.8161 43.8259C52.8161 45.429 53.8085 46.0779 56.1114 47.083L57.4473 47.6556C62.0022 49.6022 64.5596 51.5998 64.5596 56.0783C64.5596 60.8877 60.7681 63.5342 55.6915 63.5342V63.5342Z" fill="#EBE9CD"/>
</svg>
