<svg width="80" height="80" viewBox="0 0 80 80" fill="none" xmlns="http://www.w3.org/2000/svg">
<path d="M25.0031 41.2439V41.2428L24.4438 43.6206L25.0028 41.2428L25.0031 41.2439ZM27.8793 46.4071L27.2629 46.4027L27.8793 46.4071ZM27.7205 49.9591H27.7212L24.0293 49.9753L27.7212 49.9591H27.7205ZM28.4947 46.4115L27.8783 46.4071L28.4947 46.4115ZM28.0441 49.6569L28.6873 46.7133L28.0441 49.6569ZM41.6381 36.1025L40.4399 42.8614L41.6381 36.1025ZM38.5582 36.1025L37.6491 41.1515L38.5582 36.1025Z" fill="#EBE9CD"/>
<path d="M41.4331 35.7981H38.8713C38.7295 35.7981 38.5877 35.9349 38.5575 36.1013L36.7384 46.1969C36.7205 46.2812 36.6802 46.3562 36.6238 46.4108C36.5674 46.4654 36.4978 46.4966 36.4253 46.4998H34.6114C32.8179 46.4998 33.025 45.011 33.3923 42.9708L33.4034 42.909L33.621 41.5185L33.7147 40.9468L34.5418 36.1024C34.5705 35.9353 34.4802 35.7981 34.3353 35.7981H31.7054C31.5637 35.7981 31.4225 35.9349 31.3935 36.102L30.2632 42.5359C30.2623 42.5407 30.2096 42.8399 30.2096 42.8399C29.5584 46.4077 29.731 49.8106 33.2706 49.9168L33.3732 49.9194H38.9295C39.002 49.916 39.0715 49.8845 39.1279 49.8297C39.1842 49.7749 39.2242 49.6997 39.242 49.6154L41.6383 36.0983C41.6468 36.0615 41.6478 36.0227 41.6413 35.9853C41.6348 35.9479 41.621 35.9129 41.601 35.8831C41.5809 35.8534 41.5553 35.8299 41.5261 35.8144C41.497 35.799 41.4652 35.7921 41.4334 35.7944L41.4331 35.7981ZM51.6532 46.539C51.7956 46.539 51.8886 46.6758 51.8597 46.843L51.6107 48.3018L51.6532 46.539ZM51.3629 49.7618L51.6116 48.3018L51.3626 49.7626L51.3629 49.7618ZM51.051 50.0688L46.3299 50.0961L51.051 50.0688Z" fill="#EBE9CD"/>
<path d="M44.8008 44.6594C44.7987 44.4997 44.9503 44.2245 45.0927 44.2245L44.7728 44.2183C44.6286 45.9582 44.8036 44.6598 44.8036 44.6598L44.8008 44.6594ZM46.5627 50.0955L46.5133 50.0959L46.5627 50.0955ZM51.6527 46.5388C51.7951 46.5388 51.8881 46.6756 51.8592 46.8428L51.5695 48.5438L51.6527 46.5388ZM47.779 50.0959H47.7685H47.779ZM47.1466 50.0944H47.1103H47.1466ZM46.9546 50.0952L46.8942 50.0955L46.9546 50.0952ZM46.7596 50.0955H46.7066H46.7596ZM47.1103 50.0944H46.9549H47.1103Z" fill="#EBE9CD"/>
<path d="M47.7658 50.0924L47.1476 50.095L47.7658 50.0924ZM51.0521 50.0688L47.7747 50.0928L51.0521 50.0688ZM51.3627 49.7626L51.5711 48.54L51.3624 49.7633L51.3627 49.7626ZM46.8949 50.0954H46.7593H46.8949ZM46.5128 50.0961H46.33H46.5128ZM46.7063 50.0958H46.5621H46.7063ZM9.23049 44.6963L9.63111 42.5795L9.17625 44.9995L8.73957 47.4643L9.12232 45.3035L9.23326 44.6963H9.23049ZM13.9939 35.7626H11.1803C11.1076 35.7661 11.0378 35.7974 10.9809 35.8518C10.9241 35.9062 10.8832 35.9809 10.8641 36.0651L10.331 38.8915C10.3221 38.9279 10.3207 38.9664 10.3268 39.0037C10.333 39.0409 10.3465 39.0759 10.3662 39.1056C10.386 39.1352 10.4114 39.1587 10.4404 39.1741C10.4693 39.1895 10.5009 39.1963 10.5325 39.194H13.3677C13.4402 39.1905 13.5099 39.1591 13.5665 39.1046C13.6231 39.05 13.6636 38.975 13.682 38.8907L14.1976 36.0654C14.2278 35.899 14.1365 35.7622 13.9942 35.7622L13.9939 35.7626ZM13.3846 40.4631V40.4628L12.5593 45.0439L13.3846 40.4631ZM5.20826 55.6417L7.52816 55.6639C6.75442 55.6609 5.98071 55.6534 5.20703 55.6413L5.20826 55.6417ZM10.0265 40.4624L9.62494 42.5795L10.0234 40.4628L10.0265 40.4624Z" fill="#EBE9CD"/>
<path d="M13.1781 40.1593H10.3424C10.2006 40.1593 10.0579 40.2962 10.0268 40.4626L9.23049 44.6968L9.11955 45.304L8.35436 49.6256C8.31689 49.8273 8.27133 50.0267 8.21785 50.2232C8.21785 50.2232 7.6878 52.1147 6.80027 52.0933L5.91459 52.0766C5.84216 52.0787 5.7722 52.1086 5.71496 52.1619C5.65773 52.2152 5.61623 52.2892 5.59656 52.3728L5.00857 55.3346C4.99937 55.3708 4.99754 55.4092 5.00326 55.4464C5.00897 55.4837 5.02206 55.5188 5.04141 55.5487C5.06077 55.5786 5.08583 55.6026 5.11449 55.6185C5.14315 55.6343 5.17457 55.6418 5.20611 55.64L7.52724 55.6622C9.75222 55.6622 10.9245 54.183 11.6761 49.9303L13.3846 40.4648C13.4145 40.2984 13.323 40.1616 13.1806 40.1616L13.1781 40.1593ZM53.4598 49.9229C53.4281 49.9251 53.3963 49.9182 53.3672 49.9027C53.3381 49.8872 53.3125 49.8637 53.2925 49.834C53.2725 49.8042 53.2586 49.7692 53.2522 49.7318C53.2457 49.6944 53.2467 49.6557 53.2552 49.6189L55.388 37.6284" fill="#EBE9CD"/>
<path d="M56.4252 49.6188L57.288 44.5007L56.4252 49.6188ZM53.2871 49.7712C53.2698 49.6876 53.28 49.4827 53.3102 49.3156L54.3225 43.6206L53.2563 49.6114C53.2478 49.6482 53.2467 49.6869 53.2532 49.7242C53.2597 49.7616 53.2735 49.7966 53.2934 49.8263C53.3134 49.856 53.339 49.8796 53.368 49.8951C53.3971 49.9106 53.4288 49.9175 53.4606 49.9154H53.7194C53.5771 49.9154 53.3043 49.847 53.2871 49.7675V49.7712Z" fill="#EBE9CD"/>
<path d="M56.2561 49.8577C56.1791 49.8954 55.9988 49.9261 55.8564 49.9261H56.1153C56.2571 49.9261 56.3973 49.7893 56.4253 49.6217L56.4768 49.3178C56.4484 49.4849 56.3338 49.8207 56.2561 49.8577ZM56.8565 47.0634L57.2374 44.8047L56.8565 47.0634Z" fill="#EBE9CD"/>
<path d="M65.2742 38.4321L65.3913 39.0146C65.4236 39.181 65.334 39.3167 65.1919 39.3171L65.2742 38.4321ZM56.4766 49.3143L56.8562 47.0597L56.4766 49.3143ZM65.1577 37.8394L65.2739 38.4362L65.1577 37.8394ZM57.2377 44.805L57.3425 44.2014L57.7493 41.915L57.2886 44.5051L57.2377 44.8053V44.805Z" fill="#EBE9CD"/>
<path d="M55.4233 37.4324L55.3348 37.9324L54.3225 43.6273L55.4233 37.4361V37.4324ZM65.3901 39.0152L65.2729 38.4327L65.0979 37.5341C64.8677 36.4602 64.1919 35.8404 62.7235 35.8404L60.4378 35.8374L58.333 35.8345H55.9644C55.8921 35.8379 55.8226 35.8693 55.7664 35.924C55.7101 35.9786 55.6701 36.0536 55.6522 36.1377L55.3894 37.6295L53.3104 49.316C53.2802 49.4832 53.2704 49.6881 53.2873 49.7716C53.3043 49.8552 53.577 49.9195 53.7197 49.9195H55.8565C55.9989 49.9195 56.1789 49.8889 56.2562 49.8511C56.3336 49.8134 56.4485 49.4784 56.4769 49.3112L57.2883 44.4979L58.1558 39.6165C58.1738 39.5324 58.2139 39.4576 58.2701 39.4031C58.3263 39.3486 58.3957 39.3174 58.468 39.314L65.1913 39.3103C65.333 39.3099 65.423 39.1745 65.3907 39.0078L65.3901 39.0152ZM74.0453 33.7466L73.5276 33.7488H71.3756C71.2968 33.7542 71.2198 33.7799 71.15 33.8241C71.0801 33.8684 71.019 33.9301 70.9707 34.0051L66.2126 42.3708C66.1324 42.512 66.0406 42.4909 66.0092 42.3249L65.6591 40.4818C65.64 40.3976 65.5991 40.3229 65.5422 40.2685C65.4854 40.2141 65.4156 40.1829 65.3429 40.1793H62.2837C62.1413 40.1793 62.0572 40.3132 62.0988 40.4774L63.4695 46.24C63.5089 46.4366 63.5112 46.6413 63.4763 46.8391L62.8785 49.6281C62.843 49.7938 62.9309 49.9292 63.0726 49.9292H66.0927C66.2344 49.9292 66.3802 49.7938 66.4153 49.6281L67.0132 46.8391C67.0483 46.6738 67.1475 46.4268 67.2332 46.2903L74.9565 33.9858C75.0422 33.849 74.996 33.7381 74.8536 33.7399L74.0431 33.7462L74.0453 33.7466ZM49.7409 40.964C49.7224 41.146 49.5807 41.2821 49.4383 41.2821H45.5597C45.4256 41.2821 45.3575 41.1726 45.3773 41.038C45.3785 41.0343 45.3788 41.0306 45.381 41.0269C45.3794 41.0232 45.3794 41.018 45.3806 41.0128L45.3985 40.9337C45.7689 39.7518 46.5233 38.9763 47.9415 38.9763C49.5378 38.9763 49.8497 39.9119 49.7412 40.9648L49.7409 40.964ZM48.6032 35.5919C43.6247 35.5919 42.445 39.2182 41.7834 42.8781C41.1214 46.6083 41.1785 50.0967 46.3301 50.0967H46.5129L46.5622 50.0963H46.895L46.9554 50.0959L47.1471 50.0956L47.7757 50.093L51.0534 50.0689C51.1253 50.0645 51.1942 50.0325 51.2498 49.9776C51.3054 49.9226 51.3448 49.8477 51.3622 49.7639L51.8602 46.8435C51.8687 46.8065 51.8698 46.7676 51.8632 46.73C51.8566 46.6924 51.8426 46.6573 51.8224 46.6275C51.8022 46.5977 51.7763 46.5742 51.747 46.5589C51.7176 46.5436 51.6857 46.537 51.6537 46.5395H47.022C45.18 46.5395 44.633 45.9479 44.8346 44.2253H52.238C52.3601 44.2227 52.4691 44.1255 52.5154 43.996C52.524 43.9711 52.53 43.9451 52.5332 43.9184C53.6316 38.9434 53.316 35.5926 48.6072 35.5926L48.6032 35.5919ZM25.0732 40.9448L23.8852 45.997C23.8621 46.081 23.8182 46.1545 23.7594 46.2079C23.7006 46.2613 23.6297 46.2919 23.5561 46.2958H20.5971C18.3527 46.2958 17.806 44.1894 18.3527 41.0824C18.8991 37.9043 19.9706 35.9288 22.1795 35.7287C25.1983 35.4551 25.802 38.003 25.0763 40.9444L25.0732 40.9448ZM27.1025 46.1135C27.1025 46.1135 28.4976 42.0457 28.8144 39.7011C29.2458 36.5578 27.9349 32 22.8698 32C17.8337 32 15.6463 36.3518 14.8121 41.0824C13.9776 45.8473 15.071 50.0264 20.0818 49.992L27.7244 49.955C27.7977 49.9507 27.8681 49.9194 27.926 49.8654C27.9839 49.8115 28.0266 49.7374 28.0483 49.6533L28.6914 46.7097C28.7015 46.674 28.704 46.6359 28.6989 46.5988C28.6938 46.5617 28.6811 46.5266 28.662 46.4967C28.6429 46.4669 28.618 46.4431 28.5894 46.4276C28.5608 46.412 28.5295 46.4051 28.4982 46.4075L27.2655 46.3987C27.1444 46.3975 27.0754 46.304 27.0899 46.1794C27.0925 46.1555 27.0976 46.1322 27.105 46.1098L27.1025 46.1135ZM52.0334 43.3929C52.0334 43.4469 52.0155 43.4988 51.9837 43.537C51.9518 43.5752 51.9086 43.5967 51.8636 43.5967C51.8186 43.5967 51.7754 43.5752 51.7435 43.537C51.7117 43.4988 51.6938 43.4469 51.6938 43.3929C51.6938 43.3389 51.7117 43.287 51.7435 43.2488C51.7754 43.2106 51.8186 43.1891 51.8636 43.1891C51.9086 43.1891 51.9518 43.2106 51.9837 43.2488C52.0155 43.287 52.0334 43.3389 52.0334 43.3929Z" fill="#EBE9CD"/>
</svg>
