<svg width="80" height="80" viewBox="0 0 80 80" fill="none" xmlns="http://www.w3.org/2000/svg">
<path fill-rule="evenodd" clip-rule="evenodd" d="M41.0746 68.0001L39.5557 67.4815C39.5557 67.4815 39.7412 59.7461 36.9619 59.191C35.1097 57.044 37.259 -31.8609 43.9282 58.8946C43.9282 58.8946 41.6307 60.0417 41.2232 62.0039C40.7783 63.9287 41.0746 68.0001 41.0746 68.0001V68.0001Z" fill="white"/>
<path fill-rule="evenodd" clip-rule="evenodd" d="M41.0746 68.0001L39.5557 67.4815C39.5557 67.4815 39.7412 59.7461 36.9619 59.191C35.1097 57.044 37.259 -31.8609 43.9282 58.8946C43.9282 58.8946 41.6307 60.0417 41.2232 62.0039C40.7783 63.9287 41.0746 68.0001 41.0746 68.0001V68.0001Z" fill="#A6A385"/>
<path fill-rule="evenodd" clip-rule="evenodd" d="M41.8901 60.5234C41.8901 60.5234 55.1922 51.7881 52.0793 33.6145C49.0784 20.4015 42.0013 16.071 41.2231 14.4053C40.3711 13.2209 39.5557 11.1484 39.5557 11.1484L40.1118 47.9016C40.1118 47.9389 38.963 59.1537 41.8905 60.5238" fill="white"/>
<path fill-rule="evenodd" clip-rule="evenodd" d="M41.8901 60.5234C41.8901 60.5234 55.1922 51.7881 52.0793 33.6145C49.0784 20.4015 42.0013 16.071 41.2231 14.4053C40.3711 13.2209 39.5557 11.1484 39.5557 11.1484L40.1118 47.9016C40.1118 47.9389 38.963 59.1537 41.8905 60.5238" fill="#EBE9CD"/>
<path fill-rule="evenodd" clip-rule="evenodd" d="M38.7776 61.0043C38.7776 61.0043 26.2905 52.4912 27.0317 37.5014C27.7356 22.5112 36.554 15.1456 38.2584 13.8132C39.3702 12.6288 39.4072 12.1844 39.4815 11C40.2596 12.6657 40.1114 35.9099 40.2222 38.6485C40.5555 49.1971 39.6296 59.0061 38.7776 61.0043Z" fill="white"/>
<path fill-rule="evenodd" clip-rule="evenodd" d="M38.7776 61.0043C38.7776 61.0043 26.2905 52.4912 27.0317 37.5014C27.7356 22.5112 36.554 15.1456 38.2584 13.8132C39.3702 12.6288 39.4072 12.1844 39.4815 11C40.2596 12.6657 40.1114 35.9099 40.2222 38.6485C40.5555 49.1971 39.6296 59.0061 38.7776 61.0043Z" fill="#C7C5AA"/>
</svg>
