<svg width="80" height="80" viewBox="0 0 80 80" fill="none" xmlns="http://www.w3.org/2000/svg">
<path d="M21.8291 62.2203H19.1282C19.0326 57.6705 18.7696 53.3932 18.3395 49.3852H18.3155L14.2032 62.2203H12.1468L8.05904 49.3852H8.03555C7.73231 53.2333 7.54128 57.5117 7.46195 62.2203H5C5.15867 56.4944 5.55742 51.1264 6.1947 46.1157H9.54237L13.4386 57.9492H13.4626L17.3828 46.1157H20.5859C21.2874 51.9848 21.7018 57.3533 21.8291 62.2203V62.2203ZM33.5428 50.3384C32.4431 56.2939 30.9922 60.6212 29.1915 63.3224C27.7886 65.4017 26.2515 66.4424 24.5776 66.4424C24.1314 66.4424 23.5807 66.308 22.9283 66.0413V64.6053C23.2472 64.6511 23.6215 64.6772 24.0515 64.6772C24.8334 64.6772 25.4618 64.4626 25.9409 64.0323C26.514 63.5084 26.8005 62.9193 26.8005 62.2677C26.8005 61.8208 26.5772 60.9072 26.1314 59.5238L23.1674 50.3378H25.8209L27.9483 57.208C28.4264 58.768 28.6257 59.8571 28.5459 60.4775C29.7093 57.3768 30.5219 53.9958 30.9849 50.3373H33.5428V50.3384V50.3384Z" fill="#CAC8AB"/>
<path d="M69.4956 62.2201H61.8232V46.1156H64.4042V60.2377H69.4956V62.2201ZM59.8148 62.6092L56.8482 61.1482C57.1112 60.9326 57.3628 60.6992 57.5893 60.4289C58.8503 58.9507 59.4792 56.7646 59.4792 53.8691C59.4792 48.5412 57.3842 45.876 53.1926 45.876C51.1372 45.876 49.5338 46.5521 48.3872 47.9047C47.1272 49.384 46.4983 51.5622 46.4983 54.4421C46.4983 57.273 47.0557 59.3497 48.1711 60.6669C49.1915 61.8602 50.7296 62.4577 52.7865 62.4577C53.5538 62.4577 54.2578 62.3639 54.8993 62.1748L58.7616 64.4187L59.8148 62.6092ZM50.2045 58.9976C49.5511 57.9485 49.2243 56.2641 49.2243 53.9415C49.2243 49.8866 50.4587 47.8568 52.93 47.8568C54.2218 47.8568 55.1686 48.3423 55.774 49.3111C56.4265 50.3617 56.7548 52.031 56.7548 54.3212C56.7548 58.4095 55.5193 60.4539 53.0496 60.4539C51.7573 60.4544 50.8105 59.9705 50.2045 58.9976V58.9976ZM45.3735 57.7563C45.3735 59.122 44.8714 60.2424 43.8683 61.1201C42.8641 61.9941 41.5175 62.4321 39.8301 62.4321C38.2518 62.4321 36.7215 61.929 35.2402 60.9279L35.9339 59.545C37.2084 60.182 38.3624 60.4987 39.3985 60.4987C40.3708 60.4987 41.1308 60.2836 41.6819 59.857C42.2325 59.4288 42.5608 58.8283 42.5608 58.0689C42.5608 57.112 41.8922 56.2943 40.6657 55.6093C39.5347 54.9895 37.2726 53.6936 37.2726 53.6936C36.0466 52.8019 35.4328 51.8445 35.4328 50.2674C35.4328 48.9621 35.8906 47.9084 36.8065 47.1068C37.7236 46.302 38.9068 45.901 40.3572 45.901C41.8552 45.901 43.2169 46.3015 44.4434 47.0943L43.8213 48.4777C42.7722 48.0329 41.7367 47.8105 40.7153 47.8105C39.888 47.8105 39.2492 48.0089 38.805 48.4074C38.3572 48.8043 38.0811 49.3121 38.0811 49.9351C38.0811 50.8872 38.7638 51.7154 40.0237 52.4138C41.1699 53.0347 43.4883 54.353 43.4883 54.353C44.7456 55.2432 45.3735 56.1917 45.3735 57.7563" fill="#EBE9CD"/>
<path d="M72.7362 40.721C71.1756 40.6814 69.9673 40.8382 68.9532 41.2664C68.6604 41.383 68.1948 41.383 68.1541 41.7523C68.3123 41.9086 68.3305 42.1607 68.4678 42.3763C68.7016 42.7654 69.1093 43.2889 69.4814 43.5618C69.8901 43.8743 70.3003 44.1837 70.7304 44.4561C71.4887 44.9244 72.3484 45.1968 73.0874 45.6635C73.518 45.9349 73.946 46.2859 74.3771 46.5781C74.589 46.7339 74.7247 46.9865 74.9998 47.0839V47.0245C74.862 46.8495 74.8228 46.5964 74.6877 46.4016L74.1021 45.838C73.5363 45.0796 72.8332 44.4176 72.0749 43.8738C71.4506 43.4446 70.0853 42.8613 69.8321 42.1435L69.7925 42.1039C70.2215 42.0638 70.7304 41.9086 71.138 41.7893C71.8014 41.6148 72.4063 41.6544 73.0869 41.4799C73.4001 41.4018 73.7106 41.3039 74.0248 41.2075V41.032C73.672 40.6814 73.4204 40.2158 73.0493 39.8845C72.0566 39.0287 70.9626 38.1917 69.8321 37.4912C69.2267 37.101 68.448 36.85 67.8034 36.5182C67.5711 36.401 67.1797 36.3432 67.0429 36.1484C66.6932 35.7202 66.4965 35.1567 66.2428 34.6499C65.6791 33.5805 65.1316 32.394 64.6452 31.2632C64.2934 30.5048 64.0794 29.7475 63.6504 29.0459C61.6409 25.7384 59.4587 23.7352 56.1048 21.7689C55.384 21.3595 54.5265 21.185 53.6105 20.9704L52.1475 20.8933C51.8354 20.7569 51.5228 20.3865 51.2503 20.2115C50.1376 19.5115 47.2727 17.9942 46.4543 19.9975C45.9272 21.2637 47.2341 22.5085 47.6829 23.1508C48.0144 23.5966 48.4439 24.1039 48.6756 24.6102C48.8129 24.941 48.8515 25.292 48.9888 25.6415C49.3009 26.4978 49.5927 27.4505 50.0029 28.2495C50.2169 28.6568 50.4502 29.085 50.7237 29.4537C50.8803 29.6694 51.1527 29.7647 51.2122 30.1163C50.9403 30.5038 50.9189 31.0887 50.7628 31.5752C50.0614 33.7738 50.3354 36.4974 51.3297 38.1131C51.6407 38.5996 52.3829 39.6704 53.3756 39.26C54.2546 38.91 54.0599 37.8011 54.3125 36.8286C54.3704 36.5937 54.3323 36.4395 54.4492 36.2854V36.3234C54.7212 36.8677 54.9957 37.3922 55.2478 37.9381C55.8527 38.8907 56.906 39.8835 57.7833 40.5434C58.2505 40.8955 58.6205 41.4976 59.2056 41.7127V41.6544H59.167C59.0485 41.4799 58.8752 41.4018 58.7197 41.2664C58.3679 40.9158 57.9785 40.4877 57.7056 40.0991C56.8882 39.0089 56.1648 37.8021 55.5229 36.5567C55.2087 35.9525 54.9378 35.2921 54.6846 34.6889C54.5667 34.4561 54.5667 34.105 54.371 33.9878C54.0776 34.4155 53.6502 34.7858 53.4362 35.3098C53.0651 36.1479 53.0265 37.1786 52.8887 38.2506L52.8119 38.2881C52.1909 38.1323 51.9748 37.4912 51.7389 36.9469C51.1548 35.5645 51.0567 33.3456 51.5635 31.7507C51.6992 31.3429 52.2864 30.0584 52.052 29.6699C51.9346 29.2975 51.5442 29.0855 51.3302 28.7922C51.0786 28.4235 50.803 27.9568 50.6277 27.5474C50.16 26.4582 49.9246 25.2514 49.421 24.1628C49.1856 23.6555 48.7769 23.1305 48.446 22.6632C48.0744 22.1382 47.6657 21.7684 47.3719 21.146C47.2748 20.9319 47.1386 20.5819 47.2946 20.349C47.3327 20.1928 47.412 20.1345 47.5676 20.0954C47.8202 19.8824 48.542 20.1532 48.7952 20.2704C49.518 20.5621 50.1224 20.8345 50.7258 21.2428C50.9988 21.4382 51.2916 21.808 51.6418 21.9054H52.052C52.6747 22.0408 53.3767 21.9429 53.9628 22.1189C54.9957 22.4502 55.9315 22.9362 56.7708 23.4607C59.3246 25.0769 61.4306 27.3734 62.8523 30.1163C63.0856 30.5632 63.1848 30.9726 63.3978 31.4387C63.8085 32.393 64.3164 33.3659 64.724 34.2998C65.1337 35.2139 65.5241 36.1473 66.1092 36.9067C66.401 37.3151 67.5732 37.5292 68.0988 37.7433C68.4876 37.9177 69.0931 38.073 69.4438 38.287C70.1072 38.6949 70.768 39.1631 71.3917 39.6116C71.7022 39.8449 72.6782 40.3314 72.7362 40.721V40.721ZM52.8474 23.8117C52.5783 23.809 52.3099 23.8419 52.0494 23.9097V23.9487H52.087C52.2441 24.2597 52.5171 24.4753 52.7117 24.7467C52.8688 25.0587 53.0051 25.3681 53.159 25.6796L53.1966 25.641C53.4717 25.4467 53.6084 25.1353 53.6084 24.668C53.4899 24.5305 53.4717 24.3961 53.373 24.2597C53.2582 24.0649 53.0051 23.968 52.8474 23.8117" fill="#CAC8AB"/>
<path d="M74.5931 62.2172H74.9971V60.2442H74.3911L73.8968 61.5906L73.3598 60.2442H72.7763V62.2172H73.1578V60.7161H73.1792L73.7418 62.2172H74.0325L74.5931 60.7161V62.2172ZM71.3389 62.2172H71.7663V60.5786H72.3258V60.2437H70.7559V60.5786H71.3378L71.3389 62.2172Z" fill="#EBE9CD"/>
</svg>
