<svg width="80" height="80" viewBox="0 0 80 80" fill="none" xmlns="http://www.w3.org/2000/svg">
<path d="M40.1242 63.0505C39.9109 63.0505 39.6977 62.9892 39.5047 62.887L37.5547 61.7223C37.2602 61.5588 37.4023 61.4975 37.5039 61.4668C37.8898 61.334 37.9711 61.3033 38.3875 61.0581C38.4281 61.0377 38.4891 61.0479 38.5297 61.0683L40.0328 61.9675C40.0836 61.9981 40.1648 61.9981 40.2156 61.9675L46.0859 58.5549C46.1367 58.5242 46.1773 58.4629 46.1773 58.3914V51.5764C46.1773 51.5049 46.1469 51.4436 46.0859 51.413L40.2156 48.0106C40.1648 47.9799 40.0937 47.9799 40.0328 48.0106L34.1625 51.413C34.1016 51.4436 34.0711 51.5151 34.0711 51.5764V58.3914C34.0711 58.4527 34.1117 58.514 34.1625 58.5447L35.7672 59.4744C36.6406 59.9138 37.1789 59.3927 37.1789 58.8818V52.1486C37.1789 52.0566 37.25 51.9749 37.3516 51.9749H38.093C38.1844 51.9749 38.2656 52.0464 38.2656 52.1486V58.8818C38.2656 60.0568 37.6359 60.721 36.5289 60.721C36.1937 60.721 35.9195 60.721 35.1781 60.3531L33.6344 59.4642C33.2586 59.2394 33.0148 58.8307 33.0148 58.3914V51.5764C33.0148 51.1371 33.2484 50.7182 33.6344 50.5036L39.5047 47.091C39.8805 46.8764 40.368 46.8764 40.7336 47.091L46.6039 50.5036C46.9797 50.7284 47.2234 51.1371 47.2234 51.5764V58.3914C47.2234 58.8307 46.9898 59.2497 46.6039 59.4642L40.7336 62.8768C40.5609 62.9892 40.3477 63.0505 40.1242 63.0505V63.0505ZM44.8672 56.3275C44.8672 55.0503 44.0141 54.7132 42.2062 54.4679C40.3781 54.2227 40.1953 54.1001 40.1953 53.671C40.1953 53.3134 40.3477 52.8434 41.6984 52.8434C42.907 52.8434 43.3539 53.109 43.5367 53.9264C43.557 54.0082 43.618 54.0592 43.6992 54.0592H44.4609C44.5117 54.0592 44.5523 54.0388 44.5828 54.0082C44.6133 53.9673 44.6336 53.9264 44.6234 53.8753C44.5016 52.4653 43.5773 51.8114 41.6984 51.8114C40.0227 51.8114 39.0273 52.5266 39.0273 53.7119C39.0273 55.0095 40.0227 55.3568 41.6273 55.5203C43.5469 55.7145 43.6992 55.9903 43.6992 56.3684C43.6992 57.0325 43.1711 57.3084 41.932 57.3084C40.3781 57.3084 40.0328 56.9201 39.9211 56.1436C39.9109 56.0618 39.8398 56.0005 39.7484 56.0005H38.9867C38.8953 56.0005 38.8141 56.0721 38.8141 56.1742C38.8141 57.1653 39.3523 58.3505 41.9219 58.3505C43.8008 58.3505 44.8672 57.6149 44.8672 56.3275V56.3275ZM50.4023 51.2086C50.4023 51.8319 49.8945 52.3427 49.275 52.3427C48.6555 52.3427 48.1477 51.8319 48.1477 51.2086C48.1477 50.5649 48.6758 50.0745 49.275 50.0745C49.8844 50.0643 50.4023 50.5649 50.4023 51.2086ZM50.2195 51.2086C50.2195 50.6773 49.793 50.2584 49.2648 50.2584C48.7469 50.2584 48.3203 50.6773 48.3203 51.2086C48.3203 51.7399 48.7469 52.169 49.2648 52.169C49.793 52.1588 50.2195 51.7297 50.2195 51.2086ZM49.7625 51.8421H49.4984C49.4883 51.7808 49.4477 51.4538 49.4477 51.4436C49.4273 51.3721 49.407 51.3312 49.3156 51.3312H49.0922V51.8421H48.8484V50.5649H49.2852C49.4375 50.5649 49.732 50.5649 49.732 50.9021C49.732 51.1371 49.5797 51.1882 49.4883 51.2188C49.6609 51.229 49.6711 51.3414 49.7016 51.5049C49.7117 51.6071 49.732 51.7808 49.7625 51.8421V51.8421ZM49.4781 50.943C49.4781 50.7693 49.3563 50.7693 49.2953 50.7693H49.0922V51.1269H49.2852C49.4477 51.1269 49.4781 51.0145 49.4781 50.943V50.943ZM21.9445 36.3832C21.9445 36.1074 21.8023 35.8622 21.5688 35.7293L15.343 32.1226C15.2414 32.0613 15.1195 32.0306 14.9977 32.0204H14.9367C14.8148 32.0204 14.7031 32.0613 14.5914 32.1226L8.37578 35.7293C8.14219 35.8622 8 36.1176 8 36.3832L8.01016 46.0897C8.01016 46.2225 8.08125 46.3451 8.19297 46.4167C8.30469 46.4882 8.44687 46.4882 8.56875 46.4167L12.2656 44.2812C12.4992 44.1382 12.6414 43.893 12.6414 43.6273V39.0908C12.6414 38.8252 12.7836 38.5697 13.0172 38.4369L14.5914 37.5276C14.7133 37.4561 14.8352 37.4254 14.9672 37.4254C15.0992 37.4254 15.2313 37.4561 15.343 37.5276L16.9172 38.4369C17.1508 38.5697 17.293 38.8252 17.293 39.0908V43.6273C17.293 43.893 17.4352 44.1484 17.6687 44.2812L21.3656 46.4167C21.4773 46.4882 21.6297 46.4882 21.7414 46.4167C21.8531 46.3554 21.9242 46.2225 21.9242 46.0897L21.9445 36.3832ZM55.9883 25.7879V43.8112C55.9883 44.0769 55.8461 44.3323 55.6125 44.4652L49.3867 48.0821C49.1531 48.2149 48.8688 48.2149 48.6352 48.0821L42.4094 44.4652C42.1758 44.3323 42.0336 44.0769 42.0336 43.8112V36.5774C42.0336 36.3117 42.1758 36.0563 42.4094 35.9235L48.6352 32.3065C48.8688 32.1737 49.1531 32.1737 49.3867 32.3065L50.9406 33.2056C51.1133 33.3078 51.3367 33.175 51.3367 32.9809V23.3766C51.3367 23.0905 51.6414 22.9066 51.8953 23.0496L55.6023 25.1339C55.8359 25.2565 55.9883 25.512 55.9883 25.7879V25.7879ZM51.3164 38.958C51.3164 38.8865 51.2758 38.8252 51.225 38.7945L49.0922 37.548C49.0313 37.5174 48.9602 37.5174 48.8992 37.548L46.7664 38.7945C46.7055 38.8252 46.675 38.8865 46.675 38.958V41.4408C46.675 41.5123 46.7156 41.5736 46.7664 41.6043L48.8992 42.8406C48.9602 42.8713 49.0312 42.8713 49.082 42.8406L51.2148 41.6043C51.2758 41.5736 51.3062 41.5123 51.3062 41.4408V38.958H51.3164ZM72.6242 38.8865C72.8578 38.7537 73 38.4982 73 38.2326V36.4854C73 36.2198 72.8578 35.9643 72.6242 35.8315L66.4391 32.2146C66.2055 32.0817 65.9211 32.0817 65.6875 32.2146L59.4617 35.8315C59.2281 35.9643 59.0859 36.2198 59.0859 36.4854V43.7193C59.0859 43.9952 59.2281 44.2404 59.4617 44.3732L65.6469 47.9186C65.8703 48.0514 66.1547 48.0514 66.3883 47.9186L70.1258 45.8241C70.3797 45.681 70.3797 45.3132 70.1258 45.1702L63.8594 41.5532C63.7375 41.4817 63.6664 41.3591 63.6664 41.2263V38.958C63.6664 38.8252 63.7375 38.7026 63.8594 38.6311L65.8094 37.4969C65.9211 37.4254 66.0734 37.4254 66.1852 37.4969L68.1352 38.6311C68.2469 38.7026 68.3281 38.8252 68.3281 38.958V40.7358C68.3281 41.0219 68.643 41.2058 68.8969 41.0628L72.6242 38.8865V38.8865ZM64.7734 39.2441C64.7328 39.2747 64.7023 39.3156 64.7023 39.3667V40.7563C64.7023 40.8073 64.7328 40.8584 64.7734 40.8789L65.9719 41.5736C66.0125 41.6043 66.0734 41.6043 66.1141 41.5736L67.3125 40.8789C67.3531 40.8482 67.3836 40.8073 67.3836 40.7563V39.3667C67.3836 39.3156 67.3531 39.2645 67.3125 39.2441L66.1141 38.5493C66.0734 38.5187 66.0125 38.5187 65.9719 38.5493L64.7734 39.2441ZM38.9562 43.6886V36.4956C38.9562 36.23 38.7937 35.9745 38.5602 35.8417L32.3547 32.2452C32.1414 32.1226 31.8469 32.1022 31.6031 32.2452L25.3977 35.8417C25.1641 35.9745 25.0016 36.2198 25.0016 36.4956V43.6886C25.0016 43.9747 25.1945 44.2199 25.4078 44.3425L31.6234 47.9391C31.8672 48.0821 32.1516 48.0719 32.375 47.9391L38.5703 44.3425C38.7531 44.2404 38.8852 44.0667 38.9359 43.8623C38.9461 43.8112 38.9562 43.7499 38.9562 43.6886ZM31.4102 30.9272L31.3289 30.9783H31.4406L31.4102 30.9272V30.9272ZM39.1492 44.2302L39.1086 44.1586V44.2506L39.1492 44.2302Z" fill="#EBE9CD"/>
</svg>
