<svg width="80" height="80" viewBox="0 0 80 80" fill="none" xmlns="http://www.w3.org/2000/svg">
<path d="M10.8359 54.0808C9.208 53.621 7.98022 52.8622 7.15248 51.8045C6.33394 50.7561 5.92467 49.3673 5.92467 47.6383V44.8929C5.92467 42.658 4.94978 41.5406 3 41.5406V39.5402C4.94978 39.5402 5.92467 38.4274 5.92467 36.2017V33.3322C5.94307 31.6491 6.35234 30.2926 7.15248 29.2625C7.96183 28.2232 9.18961 27.4691 10.8359 27L11.3602 28.5865C9.43799 29.2027 8.47686 30.8076 8.47686 33.4012V36.1879C8.47686 38.2757 7.70891 39.7288 6.17299 40.5473C7.70891 41.3751 8.47686 42.842 8.47686 44.9481V47.79C8.50445 50.3192 9.46555 51.8873 11.3602 52.4943L10.8359 54.0808ZM29.4738 39.6368C29.4738 41.605 29.1427 43.3248 28.4805 44.7964C27.8184 46.2587 26.8802 47.3761 25.6662 48.1487C24.4522 48.9212 23.0359 49.3076 21.4171 49.3076C19.8353 49.3076 18.4327 48.9212 17.2095 48.1487C15.9863 47.3669 15.0344 46.2587 14.3538 44.8239C13.6824 43.38 13.3375 41.7107 13.3191 39.8162V38.3676C13.3191 36.4362 13.6548 34.7302 14.3262 33.2494C14.9976 31.7687 15.9449 30.6374 17.1681 29.8557C18.4005 29.0647 19.8077 28.6693 21.3896 28.6693C22.9991 28.6693 24.4154 29.0601 25.6386 29.8419C26.8711 30.6145 27.8184 31.7411 28.4805 33.2218C29.1427 34.6934 29.4738 36.4086 29.4738 38.3676V39.6368ZM26.8388 38.34C26.8388 35.9579 26.3606 34.1323 25.4041 32.8631C24.4476 31.5847 23.1094 30.9456 21.3896 30.9456C19.7157 30.9456 18.3959 31.5847 17.4302 32.8631C16.4737 34.1323 15.9817 35.8982 15.9541 38.1606V39.6368C15.9541 41.9453 16.4369 43.7617 17.4026 45.0861C18.3775 46.4012 19.7157 47.0588 21.4171 47.0588C23.1278 47.0588 24.4522 46.438 25.3903 45.1964C26.3284 43.9456 26.8113 42.1568 26.8388 39.8299V38.34ZM48.8981 39.6368C48.8981 41.605 48.5669 43.3248 47.9047 44.7964C47.2426 46.2587 46.3045 47.3761 45.0904 48.1487C43.8764 48.9212 42.4601 49.3076 40.8414 49.3076C39.2595 49.3076 37.8569 48.9212 36.6337 48.1487C35.4105 47.3669 34.4586 46.2587 33.778 44.8239C33.1066 43.38 32.7618 41.7107 32.7434 39.8162V38.3676C32.7434 36.4362 33.0791 34.7302 33.7504 33.2494C34.4218 31.7687 35.3691 30.6374 36.5924 29.8557C37.8248 29.0647 39.2319 28.6693 40.8138 28.6693C42.4233 28.6693 43.8396 29.0601 45.0629 29.8419C46.2953 30.6145 47.2426 31.7411 47.9047 33.2218C48.5669 34.6934 48.8981 36.4086 48.8981 38.3676V39.6368ZM46.2631 38.34C46.2631 35.9579 45.7848 34.1323 44.8283 32.8631C43.8718 31.5847 42.5337 30.9456 40.8138 30.9456C39.1399 30.9456 37.8201 31.5847 36.8544 32.8631C35.898 34.1323 35.4059 35.8982 35.3783 38.1606V39.6368C35.3783 41.9453 35.8612 43.7617 36.8269 45.0861C37.8017 46.4012 39.1399 47.0588 40.8414 47.0588C42.5521 47.0588 43.8764 46.438 44.8146 45.1964C45.7526 43.9456 46.2355 42.1568 46.2631 39.8299V38.34ZM55.52 41.1681V49.0316H52.8712V28.9452H60.2794C62.4775 28.9452 64.1974 29.5062 65.439 30.6283C66.69 31.7503 67.3153 33.2356 67.3153 35.0842C67.3153 37.034 66.7038 38.5377 65.4804 39.5954C64.2664 40.6439 62.5235 41.1681 60.2519 41.1681H55.52ZM55.52 39.0022H60.2794C61.6958 39.0022 62.781 38.6711 63.5352 38.0089C64.2893 37.3375 64.6664 36.3718 64.6664 35.1118C64.6664 33.9162 64.2893 32.9597 63.5352 32.2423C62.781 31.525 61.7463 31.1525 60.4312 31.1249H55.52V39.0022ZM68.6257 52.4943C70.4929 51.8965 71.4586 50.3744 71.5226 47.928V44.8929C71.5226 42.7684 72.3551 41.3199 74.0196 40.5473C72.3551 39.7931 71.5226 38.3446 71.5226 36.2017V33.4012C71.5226 30.8076 70.562 29.2027 68.6395 28.5865L69.1638 27C70.7918 27.4599 72.0148 28.2094 72.8336 29.2487C73.6523 30.2788 74.066 31.6445 74.0748 33.346V36.243C74.0748 38.4412 75.0499 39.5402 77 39.5402V41.5406C75.0499 41.5406 74.0748 42.658 74.0748 44.8929V47.6797C74.0748 49.4087 73.6567 50.7929 72.8197 51.8321C71.9922 52.8714 70.7736 53.621 69.1638 54.0808L68.6257 52.4943Z" fill="#EBE9CD"/>
</svg>
