<svg width="80" height="80" viewBox="0 0 80 80" fill="none" xmlns="http://www.w3.org/2000/svg">
<g clip-path="url(#clip0)">
<path fill-rule="evenodd" clip-rule="evenodd" d="M18.8235 10C13.9504 10 10 13.9504 10 18.8235V61.1765C10 66.0496 13.9504 70 18.8235 70H61.1765C66.0496 70 70 66.0496 70 61.1765V18.8235C70 13.9504 66.0496 10 61.1765 10H18.8235ZM29.4536 28.9557V49.0471H32.3402V40.3442H34.4657C36.3614 40.3442 37.8166 40.1431 38.8315 39.741C39.8464 39.3293 40.6458 38.6735 41.2298 37.7735C41.8139 36.8735 42.1059 35.8395 42.1059 34.6715C42.1059 32.929 41.5362 31.5408 40.3969 30.5067C39.2576 29.4727 37.7305 28.9557 35.8156 28.9557H29.4536ZM32.3402 31.512H35.3131C37.8598 31.512 39.1331 32.5412 39.1331 34.5997C39.1331 35.6241 38.8172 36.414 38.1853 36.9693C37.5534 37.515 36.6534 37.7879 35.4854 37.7879H32.3402V31.512ZM42.1289 45.2844V48.0992C43.0575 48.5492 43.8283 48.8604 44.441 49.0327C45.0538 49.1955 45.7526 49.2768 46.5378 49.2768C47.8685 49.2768 48.9552 48.9322 49.7978 48.2428C50.6498 47.5439 51.0759 46.6535 51.0759 45.5716C51.0759 44.0589 49.9749 42.6802 47.7728 41.4356L46.8394 40.9042C46.1308 40.5117 45.633 40.1766 45.3458 39.8989C45.0681 39.6213 44.9293 39.3293 44.9293 39.0229C44.9293 38.6687 45.0825 38.3862 45.3889 38.1756C45.7048 37.9554 46.1165 37.8453 46.6239 37.8453C47.6101 37.8453 48.8786 38.3145 50.4296 39.2527V36.6677C49.0701 35.9401 47.7441 35.5762 46.4516 35.5762C45.2069 35.5762 44.1873 35.897 43.3926 36.5384C42.6076 37.1799 42.215 38.0081 42.215 39.0229C42.215 39.808 42.4735 40.5356 42.9905 41.2058C43.5171 41.8665 44.6229 42.6659 46.308 43.6042C47.1505 44.0829 47.6962 44.4515 47.9452 44.71C48.2036 44.9589 48.3329 45.2748 48.3329 45.6578C48.3329 46.0312 48.1366 46.3519 47.7441 46.62C47.3515 46.8881 46.8824 47.0221 46.3367 47.0221C45.8101 47.0221 45.1591 46.8642 44.3836 46.5482C43.6176 46.2227 42.8661 45.8014 42.1289 45.2844Z" fill="#EBE9CD"/>
<path d="M61.1766 11.4707H18.8236C14.7627 11.4707 11.4707 14.7627 11.4707 18.8236V61.1766C11.4707 65.2375 14.7627 68.5295 18.8236 68.5295H61.1766C65.2375 68.5295 68.5295 65.2375 68.5295 61.1766V18.8236C68.5295 14.7627 65.2375 11.4707 61.1766 11.4707Z" stroke="#B1B097" stroke-width="3"/>
</g>
<defs>
<clipPath id="clip0">
<rect width="60" height="60" fill="white" transform="translate(10 10)"/>
</clipPath>
</defs>
</svg>
