<svg width="80" height="80" viewBox="0 0 80 80" fill="none" xmlns="http://www.w3.org/2000/svg">
<path d="M40.5 24.7019C57.9078 24.7019 71.2938 32.0159 71.2938 40.0492C71.2938 48.0825 57.8977 55.3965 40.5 55.3965C23.0922 55.3965 9.70625 48.0825 9.70625 40.0492C9.70625 32.0159 23.1023 24.7019 40.5 24.7019ZM40.5 23C22.5539 23 8 30.6281 8 40.0492C8 49.4703 22.5539 57.0984 40.5 57.0984C58.4461 57.0984 73 49.4703 73 40.0492C73 30.6281 58.4461 23 40.5 23ZM30.1609 38.6816C29.3586 42.7843 26.525 42.3589 23.0414 42.3589L24.4328 35.2069C28.2922 35.2069 30.9125 34.7916 30.1609 38.6816ZM17.8922 49.602H21.6195L22.5031 45.0636C26.6773 45.0636 29.2672 45.3676 31.6641 43.1288C34.3148 40.6975 35.0055 36.3719 33.1164 34.204C32.1313 33.0695 30.5469 32.5123 28.3938 32.5123H21.2133L17.8922 49.602ZM36.7523 27.9638H40.4594L39.5758 32.5022C42.775 32.5022 45.7406 32.2692 47.1727 33.5861C48.6758 34.9638 47.9547 36.7265 46.3297 45.0434H42.5719C44.1359 37 44.4305 36.3314 43.8617 35.7236C43.3133 35.136 42.0641 35.2576 39.0477 35.2576L37.1383 45.0434H33.4312L36.7523 27.9638V27.9638ZM59.2891 38.6816C58.4766 42.8451 55.5617 42.3589 52.1695 42.3589L53.5609 35.2069C57.4406 35.2069 60.0406 34.7916 59.2891 38.6816V38.6816ZM47.0203 49.602H50.7578L51.6414 45.0636C56.0289 45.0636 58.4563 45.3169 60.8023 43.1288C63.4531 40.6975 64.1438 36.3719 62.2547 34.204C61.2695 33.0695 59.6852 32.5123 57.532 32.5123H50.3516L47.0203 49.602V49.602Z" fill="#EBE9CD"/>
</svg>
