<svg width="80" height="80" viewBox="0 0 80 80" fill="none" xmlns="http://www.w3.org/2000/svg">
<path d="M66.955 32.438C65.9753 28.5067 64.1178 25.5423 60.161 25.5423H55.0592V31.5729C55.0592 36.2549 51.0897 40.1989 46.5603 40.1989H32.9724C29.2573 40.1989 26.1784 43.3796 26.1784 47.1074V60.0592C26.1784 63.7488 29.3846 65.9117 32.9724 66.9677C37.2727 68.2272 41.4076 68.4562 46.5603 66.9677C49.9828 65.9753 53.3543 63.9778 53.3543 60.0592V54.881H39.7791V53.1507H60.161C64.1178 53.1507 65.5809 50.3899 66.955 46.255C68.38 41.9929 68.3163 37.8961 66.955 32.438V32.438ZM47.4128 58.3289C48.825 58.3289 49.9701 59.4867 49.9701 60.9116C49.9701 62.3493 48.825 63.5071 47.4128 63.5071C46.0133 63.5071 44.8555 62.3366 44.8555 60.9116C44.8682 59.474 46.0133 58.3289 47.4128 58.3289ZM32.349 38.4941H45.9369C49.7156 38.4941 52.7309 35.377 52.7309 31.5856V18.6211C52.7309 14.9315 49.6265 12.1707 45.9369 11.5472C41.3822 10.7966 36.433 10.8348 32.349 11.56C26.5983 12.5778 25.555 14.7025 25.555 18.6338V23.812H39.1557V25.5423H20.4531C16.4963 25.5423 13.0357 27.9215 11.9543 32.438C10.7075 37.6162 10.6566 40.8478 11.9543 46.255C12.9212 50.2754 15.2241 53.1507 19.1809 53.1507H23.8501V46.942C23.8501 42.4509 27.7306 38.4941 32.349 38.4941ZM31.4965 20.3514C30.0843 20.3514 28.9393 19.1936 28.9393 17.7687C28.952 16.331 30.0843 15.1732 31.4965 15.1732C32.896 15.1732 34.0538 16.3437 34.0538 17.7687C34.0538 19.1936 32.9088 20.3514 31.4965 20.3514V20.3514Z" fill="#EBE9CD"/>
</svg>
