<svg width="80" height="80" viewBox="0 0 80 80" fill="none" xmlns="http://www.w3.org/2000/svg">
<path d="M61.0918 29.4997C60.4063 29.2704 59.7207 29.0537 59.0352 28.8499C59.1494 28.3784 59.251 27.907 59.3525 27.4355C60.9141 19.8413 59.8857 13.7379 56.4199 11.7247C53.0811 9.80066 47.6348 11.8011 42.125 16.6176C41.5791 17.0891 41.0459 17.586 40.5381 18.0829C40.1953 17.7516 39.8398 17.4203 39.4844 17.1018C33.708 11.9541 27.9189 9.78792 24.4531 11.8139C21.127 13.7507 20.1367 19.4973 21.5332 26.6837C21.6729 27.3973 21.8252 28.0981 22.0029 28.8116C21.1904 29.041 20.3906 29.2958 19.6416 29.5634C12.8623 31.9207 8 35.6413 8 39.4894C8 43.4649 13.1797 47.4531 20.2256 49.8741C20.7969 50.0652 21.3682 50.2563 21.9521 50.422C21.7617 51.1865 21.5967 51.9383 21.4443 52.7155C20.1113 59.7873 21.1523 65.3938 24.4785 67.3178C27.9063 69.3055 33.6699 67.2668 39.2812 62.3357C39.7256 61.9407 40.1699 61.533 40.6143 61.0997C41.1729 61.6476 41.7568 62.1701 42.3408 62.6797C47.7744 67.3688 53.1445 69.2673 56.458 67.3433C59.8857 65.3555 61.0029 59.3286 59.5557 51.9892C59.4414 51.4286 59.3145 50.8552 59.1748 50.2691C59.5811 50.1544 59.9746 50.027 60.3682 49.8996C67.6934 47.4658 73 43.5286 73 39.4894C73 35.6286 67.998 31.8825 61.0918 29.4997V29.4997ZM43.915 18.6818C48.6377 14.5534 53.043 12.9352 55.0488 14.0947C57.1943 15.3307 58.0195 20.3255 56.6738 26.8876C56.585 27.3208 56.4961 27.7413 56.3818 28.1618C53.5635 27.5247 50.707 27.066 47.8379 26.8112C46.1875 24.4412 44.3848 22.1731 42.4297 20.0452C42.9248 19.5737 43.4072 19.1278 43.915 18.6818V18.6818ZM29.2266 46.1025C29.874 47.211 30.5342 48.3196 31.2324 49.4026C29.252 49.186 27.2842 48.8675 25.3418 48.447C25.9004 46.6121 26.5986 44.7136 27.4111 42.7768C27.9951 43.8981 28.5918 45.0067 29.2266 46.1025V46.1025ZM25.3799 30.7739C27.208 30.3662 29.1504 30.0349 31.1689 29.78C30.4961 30.8376 29.8359 31.9207 29.2139 33.0165C28.5918 34.0996 27.9824 35.2081 27.4111 36.3294C26.6113 34.4308 25.9385 32.5705 25.3799 30.7739ZM28.8584 39.5531C29.6963 37.7947 30.6104 36.0746 31.5752 34.3799C32.54 32.6852 33.5811 31.0415 34.6729 29.4233C36.5771 29.2831 38.5195 29.2066 40.5 29.2066C42.4805 29.2066 44.4355 29.2831 46.3271 29.4233C47.4062 31.0287 48.4346 32.6725 49.4121 34.3544C50.3896 36.0363 51.3037 37.7565 52.167 39.5021C51.3164 41.2605 50.4023 42.9934 49.4248 44.7008C48.46 46.3955 47.4316 48.0392 46.3525 49.6702C44.4609 49.8104 42.4932 49.8741 40.5 49.8741C38.5068 49.8741 36.5771 49.8104 34.7109 49.6957C33.6064 48.0775 32.5654 46.421 31.5879 44.7263C30.6104 43.0317 29.709 41.3115 28.8584 39.5531ZM51.7861 46.077C52.4336 44.9557 53.043 43.8217 53.6396 42.6749C54.4521 44.5225 55.1631 46.3955 55.7852 48.3196C53.8174 48.7655 51.8242 49.1096 49.8184 49.3389C50.5039 48.2686 51.1514 47.1728 51.7861 46.077ZM53.6143 36.3294C53.0176 35.2081 52.4082 34.0868 51.7734 32.991C51.1514 31.9079 50.5039 30.8376 49.8311 29.78C51.875 30.0349 53.8301 30.3789 55.6582 30.7994C55.0742 32.6852 54.3887 34.52 53.6143 36.3294V36.3294ZM40.5254 21.9947C41.8584 23.4473 43.1152 24.9763 44.2832 26.5563C41.7695 26.4416 39.2432 26.4416 36.7295 26.5563C37.9736 24.9126 39.2559 23.3836 40.5254 21.9947ZM25.7988 14.1839C27.9316 12.9352 32.667 14.7191 37.6563 19.1533C37.9736 19.4336 38.291 19.7394 38.6211 20.0452C36.6533 22.1731 34.8379 24.4412 33.1748 26.8112C30.3057 27.066 27.4619 27.512 24.6436 28.1363C24.4785 27.4865 24.3389 26.8239 24.1992 26.1613C23.0059 19.9942 23.793 15.3434 25.7988 14.1839V14.1839ZM22.6885 47.7717C22.1553 47.6188 21.6348 47.4531 21.1143 47.2747C18.4102 46.421 15.3379 45.0704 13.1162 43.2992C11.834 42.4073 10.9707 41.0312 10.7295 39.4894C10.7295 37.1576 14.7412 34.176 20.5303 32.15C21.2539 31.8952 21.9902 31.6658 22.7266 31.4492C23.5898 34.2142 24.6309 36.9283 25.8369 39.5531C24.6182 42.2162 23.5645 44.9684 22.6885 47.7717V47.7717ZM37.4912 60.2588C35.3965 62.1828 32.9717 63.7118 30.3311 64.7567C28.9219 65.432 27.2969 65.4957 25.8496 64.9223C23.8311 63.7501 22.9932 59.2521 24.1357 53.1997C24.2754 52.4862 24.4277 51.7726 24.6055 51.0718C27.4492 51.6834 30.3184 52.1039 33.2256 52.3205C34.9014 54.7033 36.7422 56.9841 38.71 59.1247C38.3037 59.5197 37.8975 59.902 37.4912 60.2588ZM40.6016 57.1625C39.3066 55.7609 38.0117 54.2063 36.7549 52.5371C37.9736 52.5881 39.2305 52.6136 40.5 52.6136C41.8076 52.6136 43.0898 52.5881 44.3594 52.5244C43.1914 54.1426 41.9346 55.6844 40.6016 57.1625V57.1625ZM57.1943 60.9851C57.0801 62.5396 56.3184 63.9922 55.0996 64.9733C53.0811 66.1455 48.7773 64.6165 44.1309 60.6155C43.5977 60.1568 43.0645 59.6599 42.5186 59.1502C44.4609 56.9968 46.251 54.716 47.876 52.3205C50.7832 52.0784 53.6777 51.6325 56.5342 50.9826C56.6611 51.505 56.7754 52.0275 56.877 52.5371C57.499 55.2894 57.6006 58.1563 57.1943 60.9851V60.9851ZM59.5049 47.2875C59.1494 47.4021 58.7939 47.5168 58.4258 47.6188C57.5371 44.841 56.4453 42.127 55.1885 39.4894C56.4072 36.89 57.4355 34.2142 58.2988 31.4747C58.959 31.6658 59.5938 31.8697 60.2031 32.0736C66.1191 34.1123 70.2705 37.1449 70.2705 39.4639C70.2705 41.9613 65.8398 45.185 59.5049 47.2875ZM40.5 45.3762C43.7119 45.3762 46.3145 42.7641 46.3145 39.5404C46.3145 36.3166 43.7119 33.7045 40.5 33.7045C37.2881 33.7045 34.6855 36.3166 34.6855 39.5404C34.6855 42.7641 37.2881 45.3762 40.5 45.3762Z" fill="#EBE9CD"/>
</svg>
