<svg width="80" height="80" viewBox="0 0 80 80" fill="none" xmlns="http://www.w3.org/2000/svg">
<path d="M50.3726 48.7479C52.3676 48.541 53.875 46.8268 53.8011 44.7727C53.7272 42.7185 52.0129 41.0634 49.9588 41.0634H49.8258C47.6978 41.1373 46.0574 42.9106 46.1165 45.0387C46.1904 46.0731 46.6042 46.9598 47.2101 47.5805C44.8752 52.1764 41.3137 55.5458 35.9493 58.3536C32.3139 60.2748 28.5307 60.9693 24.7623 60.4816C21.6737 60.0679 19.2649 58.6935 17.7576 56.4325C15.5557 53.0631 15.3488 49.4277 17.2108 45.7923C18.5113 43.1766 20.5802 41.2555 21.8806 40.2949C21.5999 39.4082 21.2008 37.8861 20.994 36.7925C11.0484 44.0042 12.0681 53.7429 15.0975 58.3536C17.3586 61.7821 21.9545 63.9101 27.0382 63.9101C28.4125 63.9101 29.7869 63.7771 31.1612 63.4225C39.9393 61.723 46.6042 56.5064 50.3726 48.7479ZM62.461 40.2358C57.2443 34.1325 49.5598 30.7631 40.7669 30.7631H39.6733C39.0526 29.5218 37.7522 28.709 36.3039 28.709H36.1709C34.0429 28.7829 32.4026 30.5562 32.4617 32.6843C32.5356 34.7384 34.2498 36.3935 36.3039 36.3935H36.4369C37.9443 36.3197 39.2448 35.3591 39.8063 34.0586H41.0477C46.2643 34.0586 51.2001 35.566 55.6631 38.5216C59.0916 40.7826 61.5595 43.7382 62.9339 47.3145C64.1013 50.1962 64.0274 53.0188 62.8009 55.4128C60.8797 59.0482 57.6581 61.0432 53.4021 61.0432C50.6534 61.0432 48.0524 60.2156 46.6781 59.595C45.9244 60.2748 44.5501 61.3831 43.5895 62.0629C46.5451 63.4372 49.5598 64.1909 52.4415 64.1909C59.0325 64.1909 63.9092 60.5555 65.7565 56.9202C67.7367 52.9449 67.6037 46.0731 62.461 40.2358ZM27.5849 49.9154C27.6588 51.9695 29.3731 53.6247 31.4272 53.6247H31.5602C33.6882 53.5508 35.3286 51.7774 35.2695 49.6494C35.1956 47.5952 33.4814 45.9401 31.4272 45.9401H31.2942C31.1612 45.9401 30.9543 45.9401 30.8065 46.014C27.9987 41.3442 26.8313 36.2605 27.2303 30.7779C27.511 26.6549 28.8706 23.0934 31.2794 20.1378C33.2745 17.596 37.1167 16.3694 39.7177 16.2955C46.9884 16.1625 50.077 25.2214 50.2839 28.8568C51.1706 29.0637 52.6927 29.5366 53.7124 29.8912C52.8848 18.7782 46.0279 13 39.4369 13C33.2597 13 27.5554 17.463 25.2944 24.0539C22.1319 32.8468 24.2008 41.2851 28.0431 47.9351C27.7179 48.408 27.511 49.1617 27.5849 49.9154Z" fill="#EBE9CD"/>
</svg>
