<svg width="80" height="80" viewBox="0 0 80 80" fill="none" xmlns="http://www.w3.org/2000/svg">
<path d="M11 40V70H71V10H11V40ZM59.3504 37.6C60.7875 37.9335 62.0936 38.6851 63.104 39.76C63.6603 40.3391 64.1438 40.9839 64.544 41.68C64.544 41.7568 61.952 43.5088 60.3728 44.488C60.3152 44.5264 60.0848 44.2768 59.8304 43.8976C59.5421 43.4002 59.1325 42.9839 58.6398 42.6876C58.1471 42.3913 57.5873 42.2246 57.0128 42.2032C55.1936 42.0784 54.0224 43.0336 54.032 44.6032C54.017 44.994 54.1064 45.3817 54.2912 45.7264C54.6896 46.5568 55.4336 47.0512 57.7664 48.0592C62.0624 49.9072 63.9008 51.1264 65.0432 52.8592C66.32 54.7792 66.6032 57.88 65.7392 60.1744C64.7792 62.6704 62.4272 64.3648 59.1008 64.9264C57.5815 65.1004 56.0465 65.0843 54.5312 64.8784C52.2186 64.5032 50.0854 63.4022 48.44 61.7344C47.888 61.1248 46.8128 59.536 46.88 59.4208C47.0552 59.2907 47.2397 59.1736 47.432 59.0704L49.64 57.8032L51.3632 56.8048L51.7232 57.3376C52.3308 58.2067 53.1039 58.9472 53.9984 59.5168C55.9184 60.5248 58.5392 60.3856 59.8352 59.2192C60.2703 58.7918 60.5418 58.2253 60.6023 57.6184C60.6628 57.0114 60.5086 56.4025 60.1664 55.8976C59.6864 55.2304 58.7264 54.6688 56.0432 53.4976C52.9472 52.1632 51.6128 51.3376 50.3936 50.0224C49.6325 49.1545 49.0705 48.1305 48.7472 47.0224C48.506 45.7564 48.4704 44.4598 48.6416 43.1824C49.28 40.192 51.5216 38.104 54.7952 37.4848C56.3112 37.2972 57.8469 37.3393 59.3504 37.6096V37.6ZM45.2672 40.1152V42.5728H37.4768V64.7632H31.952V42.568H24.1424V40.168C24.1214 39.3418 24.1439 38.5151 24.2096 37.6912C24.2384 37.6528 29.0096 37.6336 34.7696 37.6432H45.2384L45.2672 40.1152Z" fill="#EBE9CD"/>
</svg>
