<svg width="80" height="80" viewBox="0 0 80 80" fill="none" xmlns="http://www.w3.org/2000/svg">
<g clip-path="url(#clip0)">
<path d="M27.603 41.8433C27.603 40.5952 26.3819 39.2696 24.2688 39.2696C21.896 39.2696 19.2892 40.9998 18.8909 44.4515C18.4839 47.9378 20.6662 49.4872 22.8659 49.4872C25.0656 49.4872 26.2174 48.635 27.3952 47.4988C26.3819 46.2334 25.0742 46.8187 24.8231 46.9479C24.546 47.0856 24.1909 47.275 23.4634 47.275C22.6147 47.275 21.7487 46.8962 21.7487 45.321C27.1873 44.7873 27.603 43.0915 27.603 41.8433ZM24.9097 42.0499C24.875 42.4373 24.7192 43.1001 21.9652 43.4702C22.5455 41.4215 23.654 41.2666 24.1649 41.2666C24.6412 41.2666 24.9443 41.6367 24.9097 42.0499ZM15.6953 42.3856C15.6953 42.3856 14.5262 46.0354 14.4309 46.3367C14.3963 46.0268 13.5389 39.4761 13.5389 39.4761C11.5471 39.4761 10.4819 40.8879 9.91897 42.377C9.91897 42.377 8.4987 46.0354 8.37746 46.3453C8.3688 46.0612 8.16096 42.4201 8.16096 42.4201C8.03971 40.5952 6.35964 39.4848 5 39.4848L6.64543 49.4097C8.73253 49.4011 9.85834 47.998 10.4472 46.5089C10.4472 46.5089 11.703 43.2809 11.7549 43.1345C11.7636 43.2723 12.6556 49.4097 12.6556 49.4097C14.7513 49.4097 15.8772 48.0927 16.4834 46.6552L19.4192 39.4848C17.3494 39.4848 16.2582 40.8879 15.6953 42.3856ZM35.2932 39.2523C34.0028 39.2523 33.0156 39.9496 32.1842 40.9739V40.9653L32.929 35C31.2143 35 29.82 36.4806 29.5515 38.6842L28.2525 49.3323C29.2398 49.3323 30.2876 49.0482 30.8506 48.3251C31.3528 48.9707 32.1063 49.4872 33.2234 49.4872C36.1159 49.4872 38.0991 46.1473 38.0991 43.014C38.0818 40.1562 36.6875 39.2523 35.2932 39.2523ZM35.0247 44.3741C34.7216 46.1215 33.743 47.3094 32.7991 47.3094C31.8465 47.3094 31.4394 46.8876 31.4394 46.8876C31.6213 45.3554 31.7339 44.4171 32.0803 43.608C32.4267 42.7988 33.2494 41.5076 34.1068 41.5076C34.9468 41.5076 35.3279 42.6181 35.0247 44.3741ZM45.3217 39.4848H43.3038L43.3125 39.3815C43.4511 38.073 43.7628 37.3844 44.7934 37.2725C45.4949 37.2036 45.8066 36.8421 45.8846 36.4461C45.9452 36.1363 46.1357 35.0603 46.1357 35.0603C42.0828 35.0344 40.8097 36.7732 40.4806 39.4245L40.472 39.4848H40.4287C39.7705 39.4848 39.0431 40.225 38.9218 41.1633L38.8785 41.5076H40.2295L39.095 50.8214L38.7486 52.4914C38.7919 52.4914 38.8439 52.5 38.8872 52.5C40.7837 52.4311 41.9962 50.942 42.2646 48.7814L43.148 41.5076H43.7802C44.4037 41.5076 45.1311 40.8879 45.261 39.8549L45.3217 39.4848ZM55.8178 39.3126C53.4882 39.3126 51.2885 41.017 50.613 43.694C49.9375 46.3711 50.9594 49.5389 54.3888 49.5389C57.8096 49.5389 59.7841 46.242 59.7841 43.4961C59.7841 40.7673 57.9222 39.3126 55.8178 39.3126ZM56.7617 44.288C56.6405 45.5017 56.1035 47.3438 54.6313 47.3438C53.1504 47.3438 53.3583 45.1918 53.5055 44.1675C53.6614 43.0743 54.2763 41.5162 55.6013 41.5162C56.7877 41.5162 56.9003 42.9193 56.7617 44.288ZM71.2935 42.3856C71.2935 42.3856 70.1243 46.0354 70.0291 46.3367C69.9944 46.0268 69.1371 39.4761 69.1371 39.4761C67.1452 39.4761 66.08 40.8879 65.5171 42.377C65.5171 42.377 64.0969 46.0354 63.9756 46.3453C63.967 46.0612 63.7591 42.4201 63.7591 42.4201C63.6379 40.5952 61.9578 39.4848 60.5982 39.4848L62.2349 49.4097C64.322 49.4011 65.4479 47.998 66.0367 46.5089C66.0367 46.5089 67.2925 43.2809 67.3358 43.1345C67.3531 43.2723 68.2364 49.4097 68.2364 49.4097C70.3322 49.4097 71.458 48.0927 72.0642 46.6552L75 39.4848C72.9389 39.4848 71.8477 40.8879 71.2935 42.3856ZM47.2269 35.0603L45.5295 48.6695L45.1831 50.348C45.2264 50.348 45.2784 50.3566 45.3217 50.3566C47.149 50.3308 48.448 48.7383 48.6905 46.7327L49.6691 38.9252C49.9635 36.5408 48.5346 35.0603 47.2269 35.0603Z" fill="#EBE9CD"/>
</g>
<defs>
<clipPath id="clip0">
<rect width="70" height="17.5" fill="white" transform="translate(5 35)"/>
</clipPath>
</defs>
</svg>
