<svg width="253" height="253" viewBox="0 0 253 253" fill="none" xmlns="http://www.w3.org/2000/svg">
<path d="M126.5 0C56.6361 0 0 56.6135 0 126.5C0 196.364 56.6135 253 126.5 253C196.387 253 253 196.364 253 126.5C253 56.6361 196.364 0 126.5 0ZM136.048 233.452V224.942C136.048 219.659 131.782 215.393 126.5 215.393C121.218 215.393 116.952 219.659 116.952 224.942V233.452C65.2365 228.869 23.9727 187.493 19.5258 135.755H27.7424C33.0245 135.755 37.2909 131.489 37.2909 126.207C37.2909 120.924 33.0245 116.658 27.7424 116.658H19.5484C24.2436 65.1913 65.417 24.1081 116.929 19.5484V27.449C116.929 32.7311 121.195 36.9974 126.477 36.9974C131.76 36.9974 136.026 32.7311 136.026 27.449V19.5484C187.538 24.1081 228.711 65.1913 233.407 116.658H225.235C219.953 116.658 215.687 120.924 215.687 126.207C215.687 131.489 219.953 135.755 225.235 135.755H233.452C229.027 187.493 187.764 228.869 136.048 233.452Z" fill="#EBE9CD"/>
<path d="M183.64 65.2271L127.136 124.519C127.023 124.519 126.933 124.497 126.82 124.497C126.121 124.497 125.421 124.564 124.745 124.7L77.466 88.9213C74.3306 86.5722 69.8418 87.1595 67.4508 90.3444C65.0598 93.484 65.6914 98.0015 68.8494 100.373L116.128 136.152C116.579 141.663 121.203 146 126.82 146C132.752 146 137.557 141.189 137.557 135.248C137.557 134.955 137.534 134.684 137.512 134.413L194.016 75.1204C196.745 72.2518 196.655 67.7343 193.768 64.9786C190.903 62.2455 186.392 62.3584 183.64 65.2271Z" fill="#FF9E61"/>
</svg>
